<?xml version="1.0" encoding="UTF-8"?>
<!DOCTYPE svg PUBLIC "-//W3C//DTD SVG 1.1//EN" "http://www.w3.org/Graphics/SVG/1.1/DTD/svg11.dtd">
<svg xmlns="http://www.w3.org/2000/svg" version="1.1" width="2000px" height="632px" style="shape-rendering:geometricPrecision; text-rendering:geometricPrecision; image-rendering:optimizeQuality; fill-rule:evenodd; clip-rule:evenodd" xmlns:xlink="http://www.w3.org/1999/xlink">
<g><path style="opacity:0.992" fill="#fe0000" d="M 354.5,-0.5 C 355.167,-0.5 355.833,-0.5 356.5,-0.5C 445.5,153.5 534.5,307.5 623.5,461.5C 563.83,461.167 504.163,461.5 444.5,462.5C 444.624,463.107 444.957,463.44 445.5,463.5C 474.929,514.699 504.596,565.699 534.5,616.5C 475.001,617.665 415.335,617.832 355.5,617C 325.874,566.249 296.374,515.415 267,464.5C 237.248,515.003 207.748,565.669 178.5,616.5C 118.837,617.5 59.1704,617.833 -0.5,617.5C -0.5,616.5 -0.5,615.5 -0.5,614.5C 118.225,409.763 236.558,204.763 354.5,-0.5 Z M 355.5,309.5 C 384.97,359.831 414.303,410.331 443.5,461C 385.164,461.833 326.83,461.667 268.5,460.5C 297.764,410.303 326.764,359.969 355.5,309.5 Z"/></g>
<g><path style="opacity:0.991" fill="#000000" d="M 792.5,31.5 C 894.834,31.3333 997.167,31.5 1099.5,32C 1102.73,33.5629 1104.9,36.0629 1106,39.5C 1106.67,61.8333 1106.67,84.1667 1106,106.5C 1104.01,110.49 1100.84,112.99 1096.5,114C 998.167,114.333 899.833,114.667 801.5,115C 786.93,119.099 778.93,128.766 777.5,144C 779.382,158.87 787.382,168.537 801.5,173C 873.5,173.333 945.5,173.667 1017.5,174C 1060.46,179.213 1091.63,201.046 1111,239.5C 1126.54,278.582 1123.21,315.915 1101,351.5C 1080.76,379.042 1053.59,394.875 1019.5,399C 919.5,399.667 819.5,399.667 719.5,399C 713.924,397.681 710.757,394.181 710,388.5C 709.333,368.167 709.333,347.833 710,327.5C 710.816,322.369 713.649,318.869 718.5,317C 816.5,316.667 914.5,316.333 1012.5,316C 1025.56,313.27 1033.73,305.437 1037,292.5C 1039.08,275.157 1031.92,263.657 1015.5,258C 941.536,256.682 867.536,256.015 793.5,256C 742.215,247.383 710.048,217.883 697,167.5C 689.283,121.639 703.117,83.8052 738.5,54C 754.741,42.0916 772.741,34.5916 792.5,31.5 Z"/></g>
<g><path style="opacity:0.991" fill="#000000" d="M 1166.5,31.5 C 1252.52,31.0242 1338.52,31.5242 1424.5,33C 1486.54,43.2439 1532.7,75.7439 1563,130.5C 1591.1,189.34 1590.1,247.673 1560,305.5C 1525.65,362.445 1475.15,393.611 1408.5,399C 1328.17,399.667 1247.83,399.667 1167.5,399C 1163.31,397.474 1160.47,394.641 1159,390.5C 1158.33,273.5 1158.33,156.5 1159,39.5C 1160.35,35.6499 1162.85,32.9832 1166.5,31.5 Z M 1244.5,114.5 C 1300.17,114.333 1355.83,114.5 1411.5,115C 1457.68,123.179 1486.51,150.012 1498,195.5C 1504.3,236.924 1491.14,270.757 1458.5,297C 1442.88,307.876 1425.54,314.209 1406.5,316C 1352.83,316.667 1299.17,316.667 1245.5,316C 1244,315.167 1242.83,314 1242,312.5C 1241.33,247.833 1241.33,183.167 1242,118.5C 1242.66,117.016 1243.5,115.683 1244.5,114.5 Z"/></g>
<g><path style="opacity:0.987" fill="#000000" d="M 1999.5,380.5 C 1999.5,384.167 1999.5,387.833 1999.5,391.5C 1997.2,395.287 1993.87,397.787 1989.5,399C 1965.17,399.667 1940.83,399.667 1916.5,399C 1913.45,398.394 1910.95,396.894 1909,394.5C 1867.33,311.833 1825.67,229.167 1784,146.5C 1780.58,142.633 1777.25,142.633 1774,146.5C 1732.08,228.678 1690.41,311.011 1649,393.5C 1646.9,396.467 1644.07,398.3 1640.5,399C 1616.5,399.667 1592.5,399.667 1568.5,399C 1559.71,396.508 1556.21,390.675 1558,381.5C 1615.74,266.345 1673.74,151.345 1732,36.5C 1733.73,34.3834 1735.9,32.8834 1738.5,32C 1765.5,31.3333 1792.5,31.3333 1819.5,32C 1822.17,33.25 1824.34,35.0833 1826,37.5C 1883.7,151.995 1941.53,266.328 1999.5,380.5 Z"/></g>
<g><path style="opacity:1" fill="#ee0a0b" d="M 623.5,461.5 C 623.5,461.833 623.5,462.167 623.5,462.5C 563.998,462.168 504.664,462.501 445.5,463.5C 444.957,463.44 444.624,463.107 444.5,462.5C 504.163,461.5 563.83,461.167 623.5,461.5 Z"/></g>
<g><path style="opacity:0.993" fill="#c0262c" d="M 623.5,462.5 C 594.323,514.196 564.657,565.529 534.5,616.5C 504.596,565.699 474.929,514.699 445.5,463.5C 504.664,462.501 563.998,462.168 623.5,462.5 Z"/></g>
<g><path style="opacity:0.955" fill="#000000" d="M 751.5,472.5 C 766.164,471.416 779.831,474.583 792.5,482C 794.327,482.899 795.66,484.233 796.5,486C 794.557,490.72 792.224,495.22 789.5,499.5C 775.559,488.527 760.559,486.694 744.5,494C 738.173,499.481 734.007,506.314 732,514.5C 728.725,530.674 727.725,547.008 729,563.5C 731.1,598.452 748.6,610.285 781.5,599C 782.491,584.245 782.824,569.412 782.5,554.5C 772.5,554.5 762.5,554.5 752.5,554.5C 752.5,549.5 752.5,544.5 752.5,539.5C 769.5,539.5 786.5,539.5 803.5,539.5C 803.828,563.408 803.494,587.241 802.5,611C 785.65,618.864 767.984,621.864 749.5,620C 731.572,617.622 719.072,608.122 712,591.5C 708.899,583.431 706.899,575.098 706,566.5C 704.643,548.347 705.643,530.347 709,512.5C 714.757,489.901 728.924,476.568 751.5,472.5 Z"/></g>
<g><path style="opacity:0.954" fill="#000000" d="M 937.5,472.5 C 962.669,471.498 979.503,482.832 988,506.5C 995.62,534.274 995.287,561.941 987,589.5C 973.855,617.674 952.355,626.841 922.5,617C 910.071,610.228 901.571,600.062 897,586.5C 889.418,559.061 889.751,531.728 898,504.5C 904.879,485.763 918.046,475.096 937.5,472.5 Z M 936.5,489.5 C 950.777,487.945 960.277,493.945 965,507.5C 967.559,514.628 969.226,521.962 970,529.5C 970.667,540.833 970.667,552.167 970,563.5C 969.267,577.38 964.433,589.546 955.5,600C 943.059,607.097 932.559,604.931 924,593.5C 918.511,583.547 915.511,572.881 915,561.5C 913.716,545.669 914.716,530.002 918,514.5C 920.327,503.121 926.494,494.787 936.5,489.5 Z"/></g>
<g><path style="opacity:0.894" fill="#000000" d="M 1429.5,473.5 C 1431.49,491.47 1432.15,509.803 1431.5,528.5C 1428.29,528.988 1425.46,528.321 1423,526.5C 1412.21,532.105 1404.87,529.105 1401,517.5C 1399.95,510.302 1400.61,503.302 1403,496.5C 1408.18,489.746 1414.68,488.079 1422.5,491.5C 1423.5,485.872 1423.83,480.206 1423.5,474.5C 1425.74,474.795 1427.74,474.461 1429.5,473.5 Z M 1416.5,496.5 C 1418.78,497.207 1420.95,498.207 1423,499.5C 1423.67,506.167 1423.67,512.833 1423,519.5C 1418.66,523.728 1414.66,523.395 1411,518.5C 1407.76,512.517 1407.76,506.517 1411,500.5C 1412.5,498.531 1414.33,497.198 1416.5,496.5 Z"/></g>
<g><path style="opacity:0.896" fill="#000000" d="M 1600.5,473.5 C 1601.5,473.5 1602.5,473.5 1603.5,473.5C 1603.5,491.833 1603.5,510.167 1603.5,528.5C 1600.83,528.5 1598.17,528.5 1595.5,528.5C 1595.5,510.5 1595.5,492.5 1595.5,474.5C 1597.41,474.784 1599.08,474.451 1600.5,473.5 Z"/></g>
<g><path style="opacity:0.872" fill="#000000" d="M 1642.5,473.5 C 1647.63,473.292 1652.63,473.958 1657.5,475.5C 1658.36,477.771 1658.36,480.105 1657.5,482.5C 1653.29,480.922 1648.96,480.422 1644.5,481C 1638.41,483.461 1637.08,487.461 1640.5,493C 1647.54,495.938 1654.04,499.771 1660,504.5C 1664.82,522.701 1657.65,530.867 1638.5,529C 1635.2,528.513 1632.2,527.347 1629.5,525.5C 1630.75,523.677 1631.41,521.677 1631.5,519.5C 1636.37,521.295 1641.37,522.128 1646.5,522C 1654.32,518.738 1655.32,514.071 1649.5,508C 1644.34,505.588 1639.34,502.921 1634.5,500C 1627.56,491.382 1628.22,483.382 1636.5,476C 1638.72,475.434 1640.72,474.6 1642.5,473.5 Z"/></g>
<g><path style="opacity:0.864" fill="#000000" d="M 1783.5,473.5 C 1784.5,473.5 1785.5,473.5 1786.5,473.5C 1786.5,491.833 1786.5,510.167 1786.5,528.5C 1783.83,528.5 1781.17,528.5 1778.5,528.5C 1778.5,510.5 1778.5,492.5 1778.5,474.5C 1780.41,474.784 1782.08,474.451 1783.5,473.5 Z"/></g>
<g><path style="opacity:0.949" fill="#000000" d="M 824.5,474.5 C 831.833,474.5 839.167,474.5 846.5,474.5C 846.5,516.5 846.5,558.5 846.5,600.5C 862.844,601.389 879.178,602.389 895.5,603.5C 895.5,608.5 895.5,613.5 895.5,618.5C 871.833,618.5 848.167,618.5 824.5,618.5C 824.5,570.5 824.5,522.5 824.5,474.5 Z"/></g>
<g><path style="opacity:0.95" fill="#000000" d="M 1010.5,474.5 C 1030.53,474.103 1050.53,474.603 1070.5,476C 1081.06,478.224 1088.22,484.391 1092,494.5C 1095.5,505.621 1095.17,516.621 1091,527.5C 1086.03,536.244 1078.53,541.41 1068.5,543C 1090.85,544.857 1101.18,557.024 1099.5,579.5C 1100.5,602.661 1089.5,615.494 1066.5,618C 1047.84,618.5 1029.17,618.667 1010.5,618.5C 1010.5,570.5 1010.5,522.5 1010.5,474.5 Z M 1032.5,490.5 C 1041.51,490.334 1050.51,490.5 1059.5,491C 1069.34,495.155 1073.67,502.655 1072.5,513.5C 1073.33,526.696 1067.33,534.53 1054.5,537C 1047.17,537.5 1039.84,537.666 1032.5,537.5C 1032.5,521.833 1032.5,506.167 1032.5,490.5 Z M 1032.5,551.5 C 1040.51,551.334 1048.51,551.5 1056.5,552C 1071.59,553.634 1078.59,562.134 1077.5,577.5C 1077.91,586.434 1074.91,593.934 1068.5,600C 1064.72,601.827 1060.72,602.827 1056.5,603C 1048.51,603.5 1040.51,603.666 1032.5,603.5C 1032.5,586.167 1032.5,568.833 1032.5,551.5 Z"/></g>
<g><path style="opacity:0.953" fill="#000000" d="M 1143.5,474.5 C 1152.42,474.183 1161.25,474.516 1170,475.5C 1183.27,523.095 1196.77,570.595 1210.5,618C 1202.84,618.5 1195.17,618.666 1187.5,618.5C 1183.64,602.05 1179.3,585.717 1174.5,569.5C 1162.52,568.501 1150.52,568.168 1138.5,568.5C 1134.64,584.95 1130.3,601.283 1125.5,617.5C 1118.2,618.497 1110.86,618.831 1103.5,618.5C 1116.83,570.5 1130.17,522.5 1143.5,474.5 Z M 1156.5,498.5 C 1161.56,516.551 1166.56,534.717 1171.5,553C 1161.84,553.5 1152.17,553.666 1142.5,553.5C 1147.02,535.104 1151.68,516.77 1156.5,498.5 Z"/></g>
<g><path style="opacity:0.946" fill="#000000" d="M 1216.5,474.5 C 1223.83,474.5 1231.17,474.5 1238.5,474.5C 1238.5,516.5 1238.5,558.5 1238.5,600.5C 1255.17,601.426 1271.84,602.426 1288.5,603.5C 1288.5,608.5 1288.5,613.5 1288.5,618.5C 1264.5,618.5 1240.5,618.5 1216.5,618.5C 1216.5,570.5 1216.5,522.5 1216.5,474.5 Z"/></g>
<g><path style="opacity:0.881" fill="#000000" d="M 1348.5,474.5 C 1351.5,474.5 1354.5,474.5 1357.5,474.5C 1357.5,492.5 1357.5,510.5 1357.5,528.5C 1354.5,528.5 1351.5,528.5 1348.5,528.5C 1348.5,510.5 1348.5,492.5 1348.5,474.5 Z"/></g>
<g><path style="opacity:0.817" fill="#000000" d="M 1545.5,474.5 C 1553.16,473.01 1555.49,475.843 1552.5,483C 1544.76,484.8 1542.42,481.967 1545.5,474.5 Z"/></g>
<g><path style="opacity:0.894" fill="#000000" d="M 1509.5,483.5 C 1511.17,483.5 1512.83,483.5 1514.5,483.5C 1514.5,485.833 1514.5,488.167 1514.5,490.5C 1516.83,490.5 1519.17,490.5 1521.5,490.5C 1521.5,492.5 1521.5,494.5 1521.5,496.5C 1519.17,496.5 1516.83,496.5 1514.5,496.5C 1514.33,504.84 1514.5,513.173 1515,521.5C 1516.81,523.558 1518.97,523.892 1521.5,522.5C 1521.92,525.079 1521.25,527.246 1519.5,529C 1515.17,530.151 1511.34,529.318 1508,526.5C 1506.55,516.605 1506.05,506.605 1506.5,496.5C 1505.17,496.5 1503.83,496.5 1502.5,496.5C 1502.5,494.5 1502.5,492.5 1502.5,490.5C 1503.83,490.5 1505.17,490.5 1506.5,490.5C 1506.5,488.5 1506.5,486.5 1506.5,484.5C 1507.79,484.737 1508.79,484.404 1509.5,483.5 Z"/></g>
<g><path style="opacity:0.881" fill="#000000" d="M 1367.5,489.5 C 1369.91,489.331 1372.08,489.997 1374,491.5C 1381.14,488.098 1387.47,489.098 1393,494.5C 1394.43,505.756 1394.93,517.09 1394.5,528.5C 1391.83,528.5 1389.17,528.5 1386.5,528.5C 1386.67,519.161 1386.5,509.827 1386,500.5C 1382.6,496.016 1378.43,495.349 1373.5,498.5C 1372.5,508.478 1372.17,518.478 1372.5,528.5C 1369.83,528.5 1367.17,528.5 1364.5,528.5C 1364.5,515.833 1364.5,503.167 1364.5,490.5C 1365.79,490.737 1366.79,490.404 1367.5,489.5 Z"/></g>
<g><path style="opacity:0.876" fill="#000000" d="M 1443.5,489.5 C 1444.5,489.5 1445.5,489.5 1446.5,489.5C 1446.33,499.172 1446.5,508.839 1447,518.5C 1447.94,521.442 1449.94,522.775 1453,522.5C 1455.38,522.518 1457.55,521.851 1459.5,520.5C 1460.5,510.522 1460.83,500.522 1460.5,490.5C 1463.17,490.5 1465.83,490.5 1468.5,490.5C 1468.5,503.167 1468.5,515.833 1468.5,528.5C 1465.42,528.74 1462.42,528.407 1459.5,527.5C 1453.12,530.43 1446.96,530.097 1441,526.5C 1440.14,524.913 1439.47,523.246 1439,521.5C 1438.5,511.172 1438.33,500.839 1438.5,490.5C 1440.41,490.784 1442.08,490.451 1443.5,489.5 Z"/></g>
<g><path style="opacity:0.863" fill="#000000" d="M 1482.5,489.5 C 1488.64,489.177 1494.64,489.844 1500.5,491.5C 1500.36,494.097 1499.52,496.431 1498,498.5C 1493.34,496.65 1488.51,496.15 1483.5,497C 1481.97,499.881 1482.64,502.214 1485.5,504C 1490.74,506.203 1495.58,509.036 1500,512.5C 1503.05,521.002 1500.22,526.502 1491.5,529C 1485.41,529.624 1479.41,529.124 1473.5,527.5C 1473.66,525.173 1474.33,523.007 1475.5,521C 1480.05,522.148 1484.71,522.482 1489.5,522C 1492.47,520.776 1493.14,518.776 1491.5,516C 1485.58,513.124 1480.08,509.624 1475,505.5C 1472.41,497.692 1474.91,492.359 1482.5,489.5 Z"/></g>
<g><path style="opacity:0.893" fill="#000000" d="M 1541.5,489.5 C 1542.5,492.005 1542.5,494.672 1541.5,497.5C 1539.08,497.292 1536.75,497.626 1534.5,498.5C 1533.5,508.478 1533.17,518.478 1533.5,528.5C 1530.83,528.5 1528.17,528.5 1525.5,528.5C 1525.5,515.833 1525.5,503.167 1525.5,490.5C 1528.71,490.012 1531.54,490.679 1534,492.5C 1536.38,491.033 1538.88,490.033 1541.5,489.5 Z"/></g>
<g><path style="opacity:0.892" fill="#000000" d="M 1550.5,489.5 C 1552.48,502.124 1553.15,515.124 1552.5,528.5C 1549.83,528.5 1547.17,528.5 1544.5,528.5C 1544.5,515.833 1544.5,503.167 1544.5,490.5C 1546.74,490.795 1548.74,490.461 1550.5,489.5 Z"/></g>
<g><path style="opacity:0.878" fill="#000000" d="M 1570.5,489.5 C 1574.92,489.305 1579.25,489.805 1583.5,491C 1585.67,491.833 1587.17,493.333 1588,495.5C 1588.5,506.495 1588.67,517.495 1588.5,528.5C 1585.29,528.988 1582.46,528.321 1580,526.5C 1568.69,532.57 1561.19,529.57 1557.5,517.5C 1557.69,511.281 1560.69,507.114 1566.5,505C 1571.09,504.201 1575.59,504.368 1580,505.5C 1580.67,503.167 1580.67,500.833 1580,498.5C 1579.25,497.874 1578.42,497.374 1577.5,497C 1572.7,496.521 1568.03,496.854 1563.5,498C 1562.33,495.993 1561.66,493.827 1561.5,491.5C 1564.73,491.324 1567.73,490.657 1570.5,489.5 Z M 1573.5,509.5 C 1575.86,509.674 1578.19,510.007 1580.5,510.5C 1582.67,520.063 1579.01,523.896 1569.5,522C 1564.91,516.01 1566.24,511.843 1573.5,509.5 Z"/></g>
<g><path style="opacity:0.879" fill="#000000" d="M 1672.5,489.5 C 1673.5,489.5 1674.5,489.5 1675.5,489.5C 1675.33,499.506 1675.5,509.506 1676,519.5C 1679.75,523.148 1683.92,523.482 1688.5,520.5C 1689.5,510.522 1689.83,500.522 1689.5,490.5C 1692.17,490.5 1694.83,490.5 1697.5,490.5C 1697.5,503.167 1697.5,515.833 1697.5,528.5C 1694.29,528.988 1691.46,528.321 1689,526.5C 1682.67,530.5 1676.33,530.5 1670,526.5C 1669.33,525.167 1668.67,523.833 1668,522.5C 1667.5,511.839 1667.33,501.172 1667.5,490.5C 1669.41,490.784 1671.08,490.451 1672.5,489.5 Z"/></g>
<g><path style="opacity:0.877" fill="#000000" d="M 1709.5,489.5 C 1710.5,489.5 1711.5,489.5 1712.5,489.5C 1712.35,490.552 1712.52,491.552 1713,492.5C 1723.77,487.091 1731.1,490.091 1735,501.5C 1735.87,507.917 1735.54,514.251 1734,520.5C 1729.14,529.901 1722.14,531.901 1713,526.5C 1712.5,531.823 1712.33,537.156 1712.5,542.5C 1709.83,542.5 1707.17,542.5 1704.5,542.5C 1704.5,525.167 1704.5,507.833 1704.5,490.5C 1706.41,490.784 1708.08,490.451 1709.5,489.5 Z M 1718.5,496.5 C 1724.83,498.629 1727.83,503.129 1727.5,510C 1727.13,520.744 1722.3,523.911 1713,519.5C 1712.33,512.833 1712.33,506.167 1713,499.5C 1714.88,498.391 1716.71,497.391 1718.5,496.5 Z"/></g>
<g><path style="opacity:0.891" fill="#000000" d="M 1746.5,489.5 C 1747.5,489.5 1748.5,489.5 1749.5,489.5C 1749.35,490.552 1749.52,491.552 1750,492.5C 1759.07,487.415 1766.07,489.415 1771,498.5C 1773,506.167 1773,513.833 1771,521.5C 1765.62,529.964 1758.62,531.631 1750,526.5C 1749.5,531.823 1749.33,537.156 1749.5,542.5C 1746.83,542.5 1744.17,542.5 1741.5,542.5C 1741.5,525.167 1741.5,507.833 1741.5,490.5C 1743.41,490.784 1745.08,490.451 1746.5,489.5 Z M 1755.5,496.5 C 1761.96,498.315 1764.96,502.648 1764.5,509.5C 1765.09,516.007 1762.42,520.341 1756.5,522.5C 1754.19,521.786 1752.02,520.786 1750,519.5C 1749.33,512.833 1749.33,506.167 1750,499.5C 1751.88,498.391 1753.71,497.391 1755.5,496.5 Z"/></g>
<g><path style="opacity:0.875" fill="#000000" d="M 1794.5,489.5 C 1795.5,489.5 1796.5,489.5 1797.5,489.5C 1800.02,499.237 1802.86,508.904 1806,518.5C 1808.68,509.447 1811.51,500.447 1814.5,491.5C 1817.09,490.52 1819.75,490.187 1822.5,490.5C 1818.25,507.095 1813.08,523.429 1807,539.5C 1805.68,541.487 1803.85,542.654 1801.5,543C 1797.81,543.45 1794.15,543.283 1790.5,542.5C 1790.83,540.5 1791.17,538.5 1791.5,536.5C 1798.23,538.26 1802.23,535.76 1803.5,529C 1802.23,528.691 1801.07,528.191 1800,527.5C 1796.39,515.234 1792.56,503.068 1788.5,491C 1790.71,490.809 1792.71,490.309 1794.5,489.5 Z"/></g>
<g><path style="opacity:0.887" fill="#000000" d="M 1359.5,562.5 C 1365.26,562.149 1370.93,562.649 1376.5,564C 1377.33,566.081 1377.33,568.248 1376.5,570.5C 1373.66,569.942 1370.82,569.275 1368,568.5C 1362.47,569.029 1359.14,572.029 1358,577.5C 1356.49,584.433 1356.16,591.433 1357,598.5C 1358.94,610.091 1365.27,613.425 1376,608.5C 1378.13,610.287 1378.97,612.62 1378.5,615.5C 1370.23,618.643 1362.23,618.143 1354.5,614C 1350.87,610.238 1348.7,605.738 1348,600.5C 1347.33,593.5 1347.33,586.5 1348,579.5C 1349.35,572.012 1353.18,566.345 1359.5,562.5 Z"/></g>
<g><path style="opacity:0.888" fill="#000000" d="M 1434.5,577.5 C 1439.35,577.227 1443.68,578.56 1447.5,581.5C 1454.72,575.854 1461.55,576.187 1468,582.5C 1469.46,593.731 1469.96,605.064 1469.5,616.5C 1466.83,616.5 1464.17,616.5 1461.5,616.5C 1461.67,606.828 1461.5,597.161 1461,587.5C 1457.08,583.633 1453.08,583.633 1449,587.5C 1448.5,597.161 1448.33,606.828 1448.5,616.5C 1445.83,616.5 1443.17,616.5 1440.5,616.5C 1440.67,606.494 1440.5,596.494 1440,586.5C 1436.54,583.887 1433.04,583.887 1429.5,586.5C 1428.5,596.478 1428.17,606.478 1428.5,616.5C 1425.83,616.5 1423.17,616.5 1420.5,616.5C 1420.5,603.833 1420.5,591.167 1420.5,578.5C 1423.73,578.299 1426.89,578.633 1430,579.5C 1431.73,579.101 1433.23,578.434 1434.5,577.5 Z"/></g>
<g><path style="opacity:0.876" fill="#000000" d="M 1554.5,577.5 C 1555.5,577.5 1556.5,577.5 1557.5,577.5C 1557.35,578.552 1557.52,579.552 1558,580.5C 1565.21,576.036 1571.87,576.703 1578,582.5C 1579.43,593.756 1579.93,605.09 1579.5,616.5C 1576.83,616.5 1574.17,616.5 1571.5,616.5C 1571.67,607.161 1571.5,597.827 1571,588.5C 1567.22,583.49 1562.88,583.157 1558,587.5C 1557.5,597.161 1557.33,606.828 1557.5,616.5C 1554.83,616.5 1552.17,616.5 1549.5,616.5C 1549.5,603.833 1549.5,591.167 1549.5,578.5C 1551.41,578.784 1553.08,578.451 1554.5,577.5 Z"/></g>
<g><path style="opacity:0.89" fill="#000000" d="M 1391.5,578.5 C 1396.18,578.334 1400.85,578.501 1405.5,579C 1408.67,580.833 1411.17,583.333 1413,586.5C 1415.51,595.458 1414.85,604.125 1411,612.5C 1404.58,617.665 1397.42,618.832 1389.5,616C 1383.89,611.433 1381.22,605.433 1381.5,598C 1381.78,592.941 1382.94,588.108 1385,583.5C 1386.97,581.45 1389.13,579.783 1391.5,578.5 Z M 1395.5,584.5 C 1398.97,583.875 1401.8,584.875 1404,587.5C 1407.25,594.489 1407.25,601.489 1404,608.5C 1398,613.012 1393.67,611.679 1391,604.5C 1390.33,599.833 1390.33,595.167 1391,590.5C 1391.8,587.854 1393.3,585.854 1395.5,584.5 Z"/></g>
<g><path style="opacity:0.896" fill="#000000" d="M 1476.5,578.5 C 1479.79,578.073 1482.79,578.74 1485.5,580.5C 1496.02,575.677 1503.18,578.677 1507,589.5C 1508.13,597.045 1507.46,604.379 1505,611.5C 1499.63,617.863 1493.13,619.196 1485.5,615.5C 1484.51,620.456 1484.17,625.456 1484.5,630.5C 1481.83,630.5 1479.17,630.5 1476.5,630.5C 1476.5,613.167 1476.5,595.833 1476.5,578.5 Z M 1487.5,585.5 C 1493.91,584.407 1497.75,587.073 1499,593.5C 1500.29,599.272 1499.12,604.439 1495.5,609C 1491.67,611.004 1488.17,610.504 1485,607.5C 1484.33,600.833 1484.33,594.167 1485,587.5C 1485.99,586.934 1486.83,586.267 1487.5,585.5 Z"/></g>
<g><path style="opacity:0.884" fill="#000000" d="M 1520.5,578.5 C 1525.84,578.334 1531.18,578.501 1536.5,579C 1538.29,579.785 1539.79,580.951 1541,582.5C 1542.43,593.756 1542.93,605.09 1542.5,616.5C 1539.29,616.988 1536.46,616.321 1534,614.5C 1527.95,618.287 1521.78,618.454 1515.5,615C 1509.99,608.058 1510.32,601.391 1516.5,595C 1522.28,592.248 1528.28,591.748 1534.5,593.5C 1535.38,589.51 1534.05,586.677 1530.5,585C 1525.74,584.523 1521.07,585.023 1516.5,586.5C 1515.99,584.488 1515.82,582.488 1516,580.5C 1517.62,579.901 1519.12,579.234 1520.5,578.5 Z M 1524.5,598.5 C 1527.83,598.5 1531.17,598.5 1534.5,598.5C 1536.23,605.839 1533.56,610.172 1526.5,611.5C 1519.35,608.075 1518.68,603.741 1524.5,598.5 Z"/></g>
<g><path style="opacity:0.875" fill="#000000" d="M 1595.5,631.5 C 1592.17,631.5 1588.83,631.5 1585.5,631.5C 1583.36,629.861 1583.03,627.861 1584.5,625.5C 1588.14,626.449 1591.31,625.449 1594,622.5C 1594.45,620.481 1595.28,618.648 1596.5,617C 1595.21,616.51 1593.87,616.343 1592.5,616.5C 1589.04,604.12 1585.37,591.787 1581.5,579.5C 1584.43,578.516 1587.43,578.183 1590.5,578.5C 1592.76,587.611 1595.43,596.611 1598.5,605.5C 1601.63,596.953 1604.46,588.286 1607,579.5C 1609.72,578.556 1612.55,578.223 1615.5,578.5C 1610.9,595.462 1605.4,612.129 1599,628.5C 1597.85,629.636 1596.69,630.636 1595.5,631.5 Z"/></g>
</svg>
