<?xml version="1.0" encoding="utf-8"?>
<!-- Generator: Adobe Illustrator 27.0.0, SVG Export Plug-In . SVG Version: 6.00 Build 0)  -->
<svg version="1.1" id="Layer_1" xmlns="http://www.w3.org/2000/svg" xmlns:xlink="http://www.w3.org/1999/xlink" x="0px" y="0px"
	 viewBox="0 0 992 284.9" style="enable-background:new 0 0 992 284.9;" xml:space="preserve">
<style type="text/css">
	.st0{fill-rule:evenodd;clip-rule:evenodd;}
	.st1{fill:#FF0000;}
	.st2{fill:#BE272D;}
</style>
<g>
	<g>
		<path class="st0" d="M759.1,97.4c0-45.7-37.1-82.8-82.8-82.8h-34.3v-0.1h-68.4c-3.2,0-5.8,2.6-5.8,5.8v44.2V84v3.4v31.2v55.8
			c0,3.2,2.6,5.8,5.8,5.8h68.4v-0.2h34.3C722.1,180.1,759.1,143.1,759.1,97.4L759.1,97.4z M607.9,51.5h68.4
			c25.3,0,45.8,20.5,45.8,45.8v0c0,25.3-20.5,45.8-45.8,45.8h-68.4c-1.6,0-2.9-1.3-2.9-2.9V54.4C605,52.8,606.3,51.5,607.9,51.5z"/>
	</g>
	<g>
		<path class="st0" d="M884.3,48.4l-15.4-30.6c-1-2-3-3.2-5.2-3.2h-32.3c-2.2,0-4.2,1.2-5.2,3.2l-12.9,25.6l-64.8,128.3
			c-1.9,3.9,0.9,8.4,5.2,8.4H784c2.2,0,4.2-1.2,5.2-3.2L845,66.3c1.1-2.1,4.1-2.1,5.2,0L906,176.9c1,2,3,3.2,5.2,3.2h30.2
			c4.3,0,7.1-4.6,5.2-8.4L884.3,48.4z"/>
	</g>
	<g>
		<path class="st0" d="M499.8,180.3H371.3c-3.2,0-5.8-2.6-5.8-5.8V149c0-3.2,2.6-5.8,5.8-5.8h128.5c7.5,0,13.6-6.1,13.6-13.6v0
			c0-7.5-6.1-13.6-13.6-13.6h-49.1H442h-32.6c-28,0-50.7-22.7-50.7-50.7v0c0-28,22.7-50.7,50.7-50.7H442h8.7h87.7
			c3.2,0,5.8,2.6,5.8,5.8v25.5c0,3.2-2.6,5.8-5.8,5.8h-129c-7.5,0-13.6,6.1-13.6,13.6v0c0,7.5,6.1,13.6,13.6,13.6h90.4
			c28,0,50.7,22.7,50.7,50.7v0C550.6,157.6,527.9,180.3,499.8,180.3z"/>
	</g>
	<g>
		<polygon class="st1" points="326.2,208.9 245.8,208.9 205.6,139.2 165.4,208.9 125.2,278.5 44.8,278.5 85,208.9 125.2,139.2 
			165.4,69.6 205.6,0 245.8,69.6 286,139.2 		"/>
	</g>
	<polygon class="st1" points="286,278.5 205.6,278.5 165.4,208.9 245.8,208.9 	"/>
	<polygon class="st2" points="286,278.5 245.8,208.9 326.2,208.9 	"/>
	<g>
		<g>
			<path class="st0" d="M404.3,219.2l-3,6c-4.4-3-8.7-4.6-12.8-4.6c-2.6,0-4.9,0.6-6.9,1.8c-2.1,1.2-3.6,2.9-4.8,5.2
				c-1.1,2.2-2,4.9-2.5,8.1c-0.5,3.2-0.8,7.2-0.8,11.9c0,4.3,0.2,7.9,0.7,10.6c0.5,2.7,1.2,5.3,2.3,7.6c2.3,4.6,6.4,7,12.3,7
				c3.2,0,6.4-0.8,9.6-2.4v-20.3h-13.7v-6.4h22.6v31.7c-4.2,1.7-7.7,2.9-10.7,3.6c-3,0.7-5.9,1.1-8.7,1.1
				c-16.4,0-24.6-10.7-24.6-32.2c0-22.8,8.1-34.2,24.2-34.2C393.2,213.7,398.8,215.5,404.3,219.2z"/>
			<path class="st0" d="M417.2,279v-64.3h9.4v56.8l22.4,1.2v6.3H417.2z"/>
			<path class="st0" d="M447.5,246.9c0-10.6,2-18.8,5.9-24.5c4-5.7,9.6-8.6,16.8-8.6c7.3,0,13,2.9,16.9,8.6c4,5.7,5.9,13.9,5.9,24.5
				c0,10.6-2,18.8-5.9,24.6c-4,5.7-9.6,8.6-16.9,8.6c-7.3,0-12.9-2.9-16.9-8.6C449.5,265.8,447.5,257.6,447.5,246.9z M470.3,220.6
				c-4.1,0-7.3,2.3-9.5,6.9c-2.3,4.6-3.4,11-3.4,19.4c0,8.4,1.1,14.9,3.3,19.5c2.2,4.5,5.4,6.8,9.6,6.8c4.2,0,7.4-2.3,9.6-6.8
				c2.3-4.6,3.4-11,3.4-19.4c0-8.4-1.1-14.9-3.3-19.5C477.7,222.9,474.5,220.6,470.3,220.6z"/>
			<path class="st0" d="M501.3,279v-64.3h19.8c2.4,0,4.7,0.2,7,0.6c6.9,1.6,10.4,6.6,10.4,15c0,4.7-1.1,8.3-3.3,10.7
				c-2.2,2.4-5.8,3.9-10.8,4.4c5.8,0,10,1.3,12.7,3.9c2.7,2.6,4,6.7,4,12.2c0,11.7-6.2,17.5-18.6,17.5H501.3z M510.6,221.1V243h7.6
				c3.9,0,6.7-0.9,8.4-2.7c1.7-1.8,2.6-4.7,2.6-8.7c0-7-3-10.5-9.1-10.5H510.6z M510.6,248.8v23.7h10c3.9,0,6.6-0.9,8.3-2.8
				c1.7-1.8,2.5-4.9,2.5-9.2c0-4.4-0.9-7.5-2.8-9.2c-1.9-1.7-5.3-2.6-10.3-2.6H510.6z"/>
			<path class="st0" d="M543.1,279l18.2-64.3h11.2l18.2,64.3l-9.6,0l-5.9-22.3h-16.7l-5.9,22.3L543.1,279z M565.7,228.5l-5.8,21.8
				h13.9l-5.8-21.8c-0.4-1.5-0.7-2.9-0.9-3.9c-0.2-1.1-0.3-2.4-0.3-4c0,1.5-0.2,3-0.5,4.5C566.2,226.5,565.9,227.7,565.7,228.5z"/>
			<path class="st0" d="M594.3,279v-64.3h9.4v56.8l22.4,1.2v6.3H594.3z"/>
		</g>
	</g>
	<g>
		<g>
			<path class="st0" d="M653.7,238.5v-23.9h3.5v23.9H653.7z"/>
			<path class="st0" d="M660.8,238.5v-16.7l3.1-0.4v1.6c1.7-1,3.3-1.6,4.8-1.6c1.6,0,2.9,0.5,3.9,1.4c0.5,0.5,0.8,1,1,1.6
				c0.2,0.6,0.3,1.5,0.3,2.5v11.6h-3.1v-10.9c0-0.7,0-1.2-0.1-1.5c-0.1-0.6-0.4-1.2-1-1.5c-0.5-0.4-1.2-0.6-2-0.6
				c-1.2,0-2.4,0.5-3.8,1.4v13.1H660.8z"/>
			<path class="st0" d="M687.6,223v-8.4l3.1-0.4v24.2h-3v-1.4c-0.9,0.7-1.7,1.1-2.3,1.4c-0.6,0.3-1.3,0.4-2,0.4
				c-1.9,0-3.4-0.8-4.6-2.3c-1.2-1.5-1.7-3.6-1.7-6.2c0-2.7,0.6-4.9,1.8-6.5c1.2-1.6,2.8-2.4,4.7-2.4
				C685,221.4,686.3,221.9,687.6,223z M687.6,234.9v-9.4c-1.1-0.8-2.2-1.3-3.3-1.3c-1.3,0-2.2,0.5-2.9,1.6c-0.7,1.1-1,2.5-1,4.5
				c0,1.8,0.3,3.3,1,4.3c0.7,1,1.7,1.5,2.9,1.5C685.4,236.1,686.4,235.7,687.6,234.9z"/>
			<path class="st0" d="M704.4,237.3c-0.8,0.6-1.6,1-2.4,1.2c-0.8,0.2-1.5,0.4-2.4,0.4c-3.5,0-5.2-1.7-5.2-5.1v-11.9l3.2-0.4v11.6
				c0,1.1,0.2,2,0.7,2.5c0.5,0.5,1.3,0.7,2.4,0.7c1.2,0,2.5-0.5,3.8-1.4v-13.1h3.1v16.7h-3.1L704.4,237.3z"/>
			<path class="st0" d="M710.1,237.7l0.9-2.6c0.9,0.4,1.7,0.6,2.4,0.8c0.7,0.2,1.4,0.3,2,0.3c1,0,1.9-0.2,2.5-0.6
				c0.6-0.4,0.9-0.9,0.9-1.6c0-0.5-0.2-1-0.7-1.4c-0.5-0.4-1.6-1-3.3-1.8c-0.8-0.4-1.5-0.8-1.9-1.1c-0.5-0.3-0.9-0.6-1.2-1
				c-0.9-0.8-1.3-1.8-1.3-3c0-1.4,0.6-2.5,1.7-3.4c1.2-0.9,2.7-1.3,4.5-1.3c0.8,0,1.7,0.1,2.6,0.3c0.9,0.2,1.8,0.5,2.8,0.9l-0.8,2.4
				c-1.8-0.7-3.4-1-4.5-1c-0.9,0-1.6,0.2-2.2,0.5c-0.6,0.4-0.8,0.8-0.8,1.4c0,0.3,0.1,0.6,0.3,0.9c0.2,0.3,0.4,0.5,0.5,0.6
				c0.2,0.1,0.6,0.4,1.1,0.6l0.4,0.3l1.3,0.7c0.4,0.2,0.9,0.4,1.3,0.7c0.5,0.2,0.8,0.4,1.1,0.6c0.9,0.5,1.6,1.1,1.9,1.6
				c0.4,0.6,0.6,1.3,0.6,2.1c0,1.5-0.6,2.7-1.7,3.6c-1.2,0.9-2.7,1.3-4.7,1.3C714.1,238.9,712.2,238.5,710.1,237.7z"/>
			<path class="st0" d="M723,223.9v-2.1h2.1v-2.8l3.1-0.5v3.3h3.3v2.1l-3.3,0.3v10v1.2c0.1,0.8,0.6,1.1,1.5,1.1
				c0.5,0,1.1-0.1,1.8-0.4v2.3c-0.9,0.3-1.8,0.5-2.7,0.5c-1.3,0-2.3-0.3-3-1c-0.5-0.5-0.7-1.4-0.7-2.8v-11L723,223.9z"/>
			<path class="st0" d="M733.5,238.5v-16.6l3.2-0.1v1.3c0.7-0.6,1.4-0.9,2-1.2c0.6-0.2,1.3-0.3,2.2-0.3l-0.4,3c-0.1,0-0.2,0-0.4-0.1
				c-0.2,0-0.4,0-0.6,0c-1,0-1.9,0.3-2.7,0.9v13.1H733.5z"/>
			<path class="st0" d="M742.1,216.4c0-0.7,0.1-1.2,0.4-1.5c0.3-0.3,0.7-0.4,1.4-0.4c0.7,0,1.1,0.1,1.4,0.4c0.3,0.3,0.4,0.8,0.4,1.5
				c0,0.7-0.1,1.2-0.4,1.5c-0.3,0.3-0.7,0.4-1.4,0.4c-0.7,0-1.2-0.1-1.4-0.4C742.2,217.6,742.1,217.1,742.1,216.4z M742.3,238.5
				v-16.6l3.1-0.4v17H742.3z"/>
			<path class="st0" d="M758.4,228.5v-1.6v-1.2c-0.3-1.2-1.4-1.8-3.2-1.8c-1.2,0-2.7,0.3-4.6,0.9l-0.8-2.4c1.3-0.4,2.4-0.6,3.3-0.8
				c0.9-0.2,1.8-0.2,2.8-0.2c2,0,3.5,0.4,4.4,1.3c0.5,0.4,0.8,0.8,1,1.4c0.2,0.5,0.3,1.3,0.3,2.4v12h-3l-0.2-1.5
				c-0.8,0.7-1.6,1.2-2.4,1.5c-0.7,0.3-1.6,0.4-2.5,0.4c-1.6,0-2.9-0.5-3.9-1.4c-1-1-1.5-2.2-1.5-3.8c0-1.7,0.6-3.1,1.7-4.1
				c1.1-1,2.7-1.6,4.5-1.6C755.5,227.9,756.8,228.1,758.4,228.5z M758.4,234.9v-4.6c-1-0.2-1.8-0.3-2.7-0.3c-1.3,0-2.3,0.3-3,0.9
				c-0.8,0.6-1.1,1.4-1.1,2.5c0,0.9,0.3,1.6,0.9,2.1c0.6,0.5,1.4,0.8,2.4,0.8C756,236.4,757.2,235.9,758.4,234.9z"/>
			<path class="st0" d="M765.2,238.5v-23.9l3.1-0.4v24.3H765.2z"/>
			<path class="st0" d="M793.3,215.1l-0.9,2.6c-0.7-0.3-1.4-0.5-2-0.7c-0.6-0.2-1.2-0.2-1.8-0.2c-1.3,0-2.4,0.3-3.3,1
				c-0.8,0.7-1.3,1.5-1.3,2.6c0,0.9,0.3,1.7,1,2.4c0.3,0.3,0.7,0.6,1,0.8c0.4,0.2,1.1,0.6,2.3,1.1c1.9,0.8,3.3,1.6,4.2,2.4
				c1.4,1.2,2.2,2.7,2.2,4.7c0,2.1-0.8,3.7-2.3,5.1c-1.5,1.3-3.4,2-5.8,2c-1,0-1.9-0.1-2.8-0.3c-0.9-0.2-2-0.6-3.3-1.1l1-2.7
				c1.9,1,3.6,1.4,5.1,1.4c1.3,0,2.4-0.4,3.3-1.1c0.8-0.7,1.3-1.6,1.3-2.8c0-1.1-0.4-1.9-1.1-2.6c-0.4-0.3-0.9-0.6-1.4-0.9
				c-0.5-0.3-1.3-0.7-2.3-1.1c-1.2-0.6-2.1-1-2.7-1.4c-0.5-0.3-1-0.7-1.5-1.2c-1.2-1.2-1.7-2.6-1.7-4.3c0-2,0.7-3.6,2.1-4.8
				s3.2-1.8,5.5-1.8C789.8,214.2,791.4,214.5,793.3,215.1z"/>
			<path class="st0" d="M807.6,237.3c-0.8,0.6-1.6,1-2.4,1.2c-0.8,0.2-1.5,0.4-2.4,0.4c-3.5,0-5.2-1.7-5.2-5.1v-11.9l3.2-0.4v11.6
				c0,1.1,0.2,2,0.7,2.5c0.5,0.5,1.3,0.7,2.4,0.7c1.2,0,2.5-0.5,3.8-1.4v-13.1h3.1v16.7h-3.1L807.6,237.3z"/>
			<path class="st0" d="M814.3,244.7v-22.9l3-0.4l0.2,1.7c1.3-1.1,2.7-1.7,4.1-1.7c1.9,0,3.5,0.8,4.7,2.4c1.2,1.6,1.7,3.7,1.7,6.4
				c0,2.6-0.6,4.7-1.7,6.2c-1.1,1.6-2.7,2.3-4.6,2.3c-1.5,0-2.9-0.6-4.3-1.7v7.5H814.3z M817.5,225.4v9.4c0.7,0.4,1.3,0.8,1.8,0.9
				c0.5,0.2,1,0.3,1.6,0.3c1.2,0,2.2-0.5,2.9-1.5c0.7-1,1-2.4,1-4.3c0-1.8-0.4-3.3-1.1-4.4c-0.7-1.1-1.7-1.6-2.9-1.6
				C819.8,224.2,818.7,224.6,817.5,225.4z"/>
			<path class="st0" d="M831.1,244.7v-22.9l3-0.4l0.2,1.7c1.3-1.1,2.7-1.7,4.1-1.7c1.9,0,3.5,0.8,4.7,2.4c1.2,1.6,1.7,3.7,1.7,6.4
				c0,2.6-0.6,4.7-1.7,6.2c-1.1,1.6-2.7,2.3-4.6,2.3c-1.5,0-2.9-0.6-4.3-1.7v7.5H831.1z M834.2,225.4v9.4c0.7,0.4,1.3,0.8,1.8,0.9
				c0.5,0.2,1,0.3,1.6,0.3c1.2,0,2.2-0.5,2.9-1.5c0.7-1,1-2.4,1-4.3c0-1.8-0.4-3.3-1.1-4.4c-0.7-1.1-1.7-1.6-2.9-1.6
				C836.5,224.2,835.4,224.6,834.2,225.4z"/>
			<path class="st0" d="M847.9,238.5v-23.9l3.1-0.4v24.3H847.9z"/>
			<path class="st0" d="M852.4,221.8l3.3-0.4l3.7,12.5c0.1,0.3,0.1,0.7,0.2,1c0.1,0.4,0.1,0.7,0.2,1c0.1-1,0.2-1.6,0.4-2.1l3.7-12.1
				l3.4,0l-6.1,18.9c-0.5,1.7-1.1,2.9-1.8,3.5c-0.7,0.6-1.7,1-2.9,1c-1,0-2.1-0.2-3.4-0.5l0.7-2.2c0.8,0.3,1.5,0.4,2,0.4
				c0.7,0,1.2-0.2,1.6-0.6c0.4-0.4,0.8-1.1,1.1-2l0.6-1.7h-1.5L852.4,221.8z"/>
			<path class="st0" d="M666.3,255.1l-0.6,2.4c-1.3-0.6-2.5-0.9-3.7-0.9c-1.8,0-3.1,0.8-4,2.5c-0.9,1.6-1.3,4.2-1.3,7.6
				c0,6.3,1.8,9.4,5.3,9.4c1.3,0,2.7-0.4,4.2-1.3l0.5,2.5c-1.9,0.9-3.6,1.3-5.3,1.3c-2.7,0-4.8-1-6.3-3.1c-1.5-2.1-2.2-5.1-2.2-9
				c0-4,0.7-7,2.2-9.2c1.5-2.2,3.6-3.3,6.3-3.3C663.1,254.1,664.7,254.4,666.3,255.1z"/>
			<path class="st0" d="M668.7,269.9c0-5.8,2.4-8.7,7.2-8.7c4.8,0,7.2,2.9,7.2,8.7c0,5.8-2.4,8.7-7.2,8.7
				C671.1,278.7,668.7,275.8,668.7,269.9z M675.9,263.6c-2.6,0-3.9,2.1-3.9,6.3c0,4.2,1.3,6.4,3.9,6.4c2.6,0,3.8-2.1,3.8-6.4
				C679.8,265.7,678.5,263.6,675.9,263.6z"/>
			<path class="st0" d="M686.2,278.3v-16.6l3.1-0.4v1.3c1.5-0.9,2.9-1.4,4.2-1.4c1.5,0,2.7,0.4,3.5,1.3c0.3,0.3,0.5,0.6,0.7,0.8
				c1.7-1.4,3.4-2.1,5.1-2.1c1.6,0,2.8,0.5,3.8,1.5c0.5,0.5,0.8,1,1,1.6c0.2,0.6,0.3,1.4,0.3,2.5v11.5h-3.1v-10.8
				c0-0.7,0-1.3-0.1-1.8c-0.1-0.5-0.4-1-0.9-1.4c-0.5-0.4-1.1-0.6-1.9-0.6c-1.1,0-2.2,0.5-3.3,1.5v13.1h-3.1v-10.7v-1.6
				c-0.1-0.6-0.4-1.1-1-1.6c-0.6-0.4-1.2-0.6-2-0.6c-1.1,0-2.1,0.4-3.2,1.3v13.3H686.2z"/>
			<path class="st0" d="M711.5,284.5v-22.9l3-0.4l0.2,1.7c1.3-1.1,2.7-1.7,4.1-1.7c1.9,0,3.5,0.8,4.7,2.4c1.2,1.6,1.7,3.7,1.7,6.4
				c0,2.6-0.6,4.7-1.7,6.2c-1.1,1.6-2.7,2.3-4.6,2.3c-1.5,0-2.9-0.6-4.3-1.7v7.5H711.5z M714.6,265.2v9.4c0.7,0.4,1.3,0.8,1.8,0.9
				c0.5,0.2,1,0.3,1.6,0.3c1.2,0,2.2-0.5,2.9-1.5c0.7-1,1-2.4,1-4.3c0-1.8-0.4-3.3-1.1-4.4c-0.7-1.1-1.7-1.6-2.9-1.6
				C716.9,264,715.9,264.4,714.6,265.2z"/>
			<path class="st0" d="M737.6,268.3v-1.6v-1.2c-0.3-1.2-1.4-1.8-3.2-1.8c-1.2,0-2.7,0.3-4.6,0.9l-0.8-2.4c1.3-0.4,2.4-0.6,3.3-0.8
				c0.9-0.2,1.8-0.2,2.8-0.2c2,0,3.5,0.4,4.4,1.3c0.5,0.4,0.8,0.8,1,1.4c0.2,0.5,0.3,1.3,0.3,2.4v12h-3l-0.2-1.5
				c-0.8,0.7-1.6,1.2-2.4,1.5c-0.7,0.3-1.6,0.4-2.5,0.4c-1.6,0-2.9-0.5-3.9-1.4c-1-1-1.5-2.2-1.5-3.8c0-1.7,0.6-3.1,1.7-4.1
				c1.1-1,2.7-1.6,4.5-1.6C734.6,267.8,735.9,267.9,737.6,268.3z M737.6,274.8v-4.6c-1-0.2-1.8-0.3-2.7-0.3c-1.3,0-2.3,0.3-3,0.9
				c-0.8,0.6-1.1,1.4-1.1,2.5c0,0.9,0.3,1.6,0.9,2.1c0.6,0.5,1.4,0.8,2.4,0.8C735.2,276.2,736.4,275.7,737.6,274.8z"/>
			<path class="st0" d="M744.3,278.3v-16.7l3.1-0.4v1.6c1.7-1,3.3-1.6,4.8-1.6c1.6,0,2.9,0.5,3.9,1.4c0.5,0.5,0.8,1,1,1.6
				c0.2,0.6,0.3,1.5,0.3,2.5v11.6h-3.1v-10.9c0-0.7,0-1.2-0.1-1.5c-0.1-0.6-0.4-1.2-1-1.5c-0.5-0.4-1.2-0.6-2-0.6
				c-1.2,0-2.4,0.5-3.8,1.4v13.1H744.3z"/>
			<path class="st0" d="M758.9,261.7l3.3-0.4l3.7,12.5c0.1,0.3,0.1,0.7,0.2,1c0.1,0.4,0.1,0.7,0.2,1c0.1-1,0.2-1.6,0.4-2.1l3.7-12.1
				l3.4,0l-6.1,18.9c-0.5,1.7-1.1,2.9-1.8,3.5c-0.7,0.6-1.7,1-2.9,1c-1,0-2.1-0.2-3.4-0.5l0.7-2.2c0.8,0.3,1.5,0.4,2,0.4
				c0.7,0,1.2-0.2,1.6-0.6c0.4-0.4,0.8-1.1,1.1-2l0.6-1.7H764L758.9,261.7z"/>
		</g>
	</g>
</g>
</svg>
