<?xml version="1.0" encoding="UTF-8"?>
<svg version="1.1" xmlns="http://www.w3.org/2000/svg" width="2600" height="447">
<path d="M0 0 C1.47384095 -0.00418606 2.94767868 -0.00967046 4.42151058 -0.01631981 C8.42140192 -0.03062445 12.42108461 -0.02657749 16.42098665 -0.019153 C20.75353141 -0.01438656 25.08603324 -0.026961 29.41856384 -0.03717041 C37.88339796 -0.05429075 46.34815764 -0.0552133 54.81300457 -0.04995751 C61.69139296 -0.04590526 68.56975946 -0.04737181 75.44814682 -0.05270576 C76.92017642 -0.0538284 76.92017642 -0.0538284 78.42194398 -0.05497371 C80.41582006 -0.05650525 82.40969612 -0.0580436 84.40357219 -0.05958868 C103.06037023 -0.07328685 121.71712622 -0.06789283 140.37392329 -0.05640347 C157.4437574 -0.04645324 174.5134834 -0.05944737 191.58330084 -0.08333766 C209.12842015 -0.1077078 226.67348905 -0.11734294 244.21862495 -0.11068493 C254.06219564 -0.10719073 263.90568299 -0.10943917 273.74924088 -0.12693596 C282.11974507 -0.14163095 290.49010709 -0.1423278 298.86060841 -0.12486505 C303.13081392 -0.11633422 307.40076511 -0.11425661 311.67095757 -0.1295166 C315.57889338 -0.14330969 319.48635568 -0.13867064 323.39426373 -0.11927737 C324.80841713 -0.11550076 326.22260799 -0.11848699 327.63672818 -0.12888902 C340.73657262 -0.21840638 340.73657262 -0.21840638 345.63912964 4.38768005 C349.55286833 8.84124477 349.77171943 12.60461928 349.81613159 18.41014099 C349.82270279 19.12109924 349.82927399 19.8320575 349.83604431 20.56455994 C349.85575145 22.91705943 349.86743489 25.26949512 349.87741089 27.62205505 C349.88148642 28.42697639 349.88556194 29.23189774 349.88976097 30.06121063 C349.91061199 34.32270042 349.92491715 38.58415812 349.93429565 42.84568787 C349.94535033 47.23835138 349.97974176 51.63050698 350.01946735 56.02299118 C350.04566523 59.4082989 350.05399034 62.79348625 350.05757713 66.17888641 C350.06243593 67.79754817 350.0740298 69.4162048 350.09261513 71.03476715 C350.11707247 73.30612945 350.11603017 75.5761862 350.10910034 77.84764099 C350.1178997 79.78265472 350.1178997 79.78265472 350.12687683 81.75675964 C349.33478526 87.65330093 347.54189084 90.90569095 342.84766388 94.56184769 C337.27601497 97.55714144 331.05338036 96.9293568 324.89445496 96.87974548 C323.48627945 96.88275831 322.0781068 96.88753713 320.66994256 96.89392424 C316.8094386 96.90641448 312.94935142 96.89414701 309.08887637 96.87784934 C304.92170892 96.86466395 300.75459045 96.87464508 296.5874176 96.88195801 C289.36783438 96.89163553 282.14837189 96.88717602 274.92879677 96.87353516 C264.47747751 96.85415966 254.02629378 96.86061749 243.57497098 96.87410897 C226.60066368 96.89569111 209.62638836 96.90240407 192.65206909 96.8969574 C191.12854307 96.89647645 191.12854307 96.89647645 189.57423874 96.89598578 C181.33608573 96.89327391 173.09793304 96.88984363 164.85978031 96.8863802 C157.66586886 96.88338565 150.47195737 96.88067709 143.27804565 96.87840271 C141.75865278 96.87791444 141.75865278 96.87791444 140.20856509 96.87741631 C123.30328062 96.87246964 106.39804051 96.88317032 89.4927699 96.90497446 C79.07178623 96.91765734 68.65098572 96.91624753 58.23001202 96.89652359 C51.0848055 96.88389293 43.93969164 96.88539931 36.79448519 96.89789712 C32.6754841 96.90459366 28.55675391 96.90477481 24.43777847 96.88731575 C20.66055648 96.87140841 16.88380595 96.87415317 13.10659304 96.89116579 C11.10660445 96.89542737 9.10660304 96.88007907 7.10667592 96.86383009 C-4.17039033 96.9474681 -15.14383853 99.13388298 -23.36087036 107.38768005 C-29.55137619 114.73449904 -33.03858381 123.42513535 -32.64602661 133.1025238 C-31.32273446 143.70698834 -26.70624927 151.62649134 -18.91165161 158.74705505 C-11.63861305 163.42496654 -4.61617555 164.97960785 3.92558289 164.89320374 C4.91161348 164.89929386 5.89764407 164.90538398 6.91355437 164.91165864 C10.19187246 164.92717666 13.46945132 164.91450252 16.74777222 164.90184021 C19.10923723 164.90730501 21.47069869 164.91454875 23.83215332 164.9234314 C28.90721991 164.93874445 33.9820844 164.94157999 39.05716896 164.93466568 C46.41754655 164.92476581 53.77775366 164.93760561 61.13810273 164.95713024 C73.11232263 164.98842997 85.08650202 165.00347076 97.0607605 165.00682068 C97.77631635 165.00702467 98.49187221 165.00722865 99.22911157 165.00743882 C99.94547558 165.00764219 100.66183958 165.00784556 101.39991158 165.00805509 C111.52775284 165.0109676 121.65558145 165.01775809 131.78341675 165.02928162 C132.49475597 165.03008691 133.2060952 165.03089221 133.93899015 165.0317219 C145.85766301 165.04554267 157.77631388 165.06738272 169.6949665 165.09315145 C177.67069743 165.1098385 185.64633591 165.11508654 193.62208998 165.11156106 C198.61182491 165.11112018 203.60152644 165.11874559 208.59125137 165.12823677 C210.88355689 165.13089177 213.17586942 165.13021597 215.46817207 165.1257267 C253.95520599 165.05564348 289.38054591 170.79034029 319.63912964 196.38768005 C320.60592651 197.20236755 321.57272339 198.01705505 322.56881714 198.85643005 C346.70902736 219.98747279 363.00034733 251.30803194 365.63912964 283.38768005 C367.57736901 320.85468973 358.77269807 355.94159716 333.34225464 384.43455505 C332.44299178 385.42055532 331.54202255 386.40500279 330.63912964 387.38768005 C329.85022339 388.2590863 329.06131714 389.13049255 328.24850464 390.02830505 C313.83218114 405.20840728 294.81991362 416.47405124 274.95162964 422.88768005 C274.27777222 423.10657898 273.60391479 423.32547791 272.90963745 423.55101013 C270.50244581 424.26110361 268.08567592 424.82574986 265.63912964 425.38768005 C264.03101929 425.76440652 264.03101929 425.76440652 262.39042187 426.14874363 C247.15969674 429.34128775 231.62658304 428.82384106 216.14705837 428.79451311 C211.8915581 428.7897373 207.63610111 428.80232914 203.38061523 428.81253052 C195.07079495 428.82963222 186.76105057 428.83057742 178.45121727 428.82531761 C171.69826658 428.82126225 164.94533818 428.82273559 158.19238853 428.82806587 C157.22824734 428.82881429 156.26410615 428.82956272 155.27074855 428.83033382 C153.31174328 428.83186539 151.35273801 428.83340373 149.39373275 428.83494879 C131.07262797 428.84863991 112.75156604 428.84325767 94.43046226 428.83176357 C77.67182337 428.82181165 60.91329458 428.83481165 44.15467266 428.85869776 C26.92249844 428.88307317 9.69037554 428.8927019 -7.54181558 428.88604504 C-17.20709556 428.88255233 -26.87229068 428.88478961 -36.5375576 428.90229607 C-44.75537278 428.91699753 -52.97304313 428.91767925 -61.19085541 428.90022516 C-65.38221498 428.89170016 -69.57331557 428.88960264 -73.76466179 428.90487671 C-77.60164015 428.91868678 -81.4381367 428.91400872 -85.27508692 428.89463747 C-86.6622806 428.89086616 -88.04951254 428.89383203 -89.43667223 428.90424912 C-102.46320628 428.99511449 -102.46320628 428.99511449 -108.36087036 424.38768005 C-114.03018437 417.46613618 -112.92339002 408.30258142 -112.85696411 399.84861755 C-112.8571193 398.23774653 -112.85861156 396.62687513 -112.8613739 395.01600647 C-112.86275328 391.65209804 -112.85027514 388.28861838 -112.8274231 384.92478943 C-112.79899369 380.62298261 -112.80179426 376.32188494 -112.81451321 372.02002525 C-112.82148132 368.69819628 -112.813669 365.37653002 -112.80125618 362.05472183 C-112.79675589 360.4687678 -112.79639239 358.88279622 -112.80032158 357.29684067 C-112.80324623 355.07854872 -112.78667033 352.86122091 -112.7649231 350.64305115 C-112.75952011 349.3836673 -112.75411713 348.12428345 -112.74855042 346.82673645 C-112.19146828 341.88493751 -110.60309794 338.59633392 -107.04837036 335.13768005 C-102.31433793 332.05505429 -97.9189991 331.1377389 -92.32219982 331.13714027 C-91.12796593 331.13214158 -89.93373204 331.12714288 -88.70330924 331.12199271 C-87.400112 331.12665592 -86.09691475 331.13131913 -84.75422668 331.13612366 C-83.34890409 331.13398426 -81.94358261 331.13095822 -80.53826362 331.12712324 C-76.68122613 331.11908849 -72.8242857 331.1233875 -68.96724856 331.12964201 C-64.80558137 331.13417693 -60.64393264 331.12713498 -56.48226929 331.12133789 C-49.27142868 331.11270543 -42.06061262 331.11089665 -34.84976768 331.11328506 C-24.41429751 331.1163826 -13.97888158 331.10474414 -3.54342506 331.08873527 C13.40047829 331.06277179 30.34438169 331.04275391 47.28829956 331.02928162 C48.30234539 331.02847125 49.31639123 331.02766088 50.36116572 331.02682595 C64.75035603 331.01560551 79.13954246 331.01032354 93.52873655 331.00743882 C95.04844095 331.00713284 95.04844095 331.00713284 96.59884644 331.00682068 C98.11669722 331.00652077 98.11669722 331.00652077 99.66521166 331.00621481 C116.54220969 331.00248123 133.41914891 330.98339151 150.29611748 330.95172632 C160.7039737 330.93281547 171.11167907 330.92684793 181.51954772 330.9375435 C188.65260751 330.94386484 195.78555916 330.93581576 202.91859523 330.91648938 C207.03315642 330.90581203 211.147455 330.90164796 215.26201439 330.91496086 C219.0317355 330.92703546 222.80096487 330.92062291 226.57064345 330.89976887 C228.57387742 330.89344874 230.57714396 330.90675595 232.5803383 330.92085421 C239.83892586 330.85917611 245.31960354 330.04944532 251.63912964 326.38768005 C252.43705933 325.93006287 253.23498901 325.47244568 254.05709839 325.0009613 C262.05904834 319.11873319 266.16972663 312.05759956 268.23287964 302.3681488 C269.45775715 293.38178785 267.31068073 284.58980331 262.06491089 277.1572113 C255.28585768 269.03758128 247.77636624 264.26603458 237.09389496 263.11294079 C234.4011265 263.00581532 231.72359496 262.98927532 229.02877808 263.00914001 C227.49755452 263.00234482 227.49755452 263.00234482 225.93539715 262.99541235 C222.53963378 262.98385298 219.14426927 262.99340957 215.74850464 263.00291443 C213.30335741 262.99880618 210.85821215 262.99334381 208.41307068 262.9866333 C203.1579671 262.97492819 197.90293808 262.97208098 192.64782715 262.97698975 C185.0303695 262.98382555 177.41303474 262.97123017 169.7955991 262.95348257 C157.40864984 262.92486924 145.0217139 262.90733125 132.63473511 262.89891052 C131.8944674 262.89840334 131.1541997 262.89789616 130.39149964 262.89737362 C125.14070981 262.8938486 119.88991977 262.89071968 114.63912964 262.88768005 C108.6549172 262.88421341 102.67070495 262.88056302 96.68649292 262.87644958 C95.94956152 262.87594697 95.21263012 262.87544435 94.45336747 262.87492651 C82.11998325 262.86615077 69.78664452 262.84564877 57.45329094 262.81696749 C49.86586816 262.79988412 42.27857489 262.79315893 34.69113547 262.80027354 C28.86034699 262.80498694 23.02966151 262.79441355 17.19889641 262.7785244 C14.82309195 262.77455029 12.44727241 262.77559741 10.07147408 262.78229713 C-29.93164387 262.88635647 -63.96242482 251.57355492 -92.86087036 223.26268005 C-106.91461631 209.13196562 -117.37005423 192.10357678 -123.79837036 173.20018005 C-124.02105591 172.54952576 -124.24374146 171.89887146 -124.47317505 171.22850037 C-128.5781463 158.21782878 -129.91790716 145.20376139 -129.79837036 131.63768005 C-129.79532898 130.89955078 -129.7922876 130.16142151 -129.78915405 129.40092468 C-129.57446473 94.02680359 -115.8971758 62.01011978 -90.93606567 36.92381287 C-76.59504463 22.93842781 -59.43395227 12.63568419 -40.48587036 6.13768005 C-39.48100586 5.78649109 -39.48100586 5.78649109 -38.45584106 5.4282074 C-25.84386341 1.31223855 -13.19905178 -0.06226845 0 0 Z " fill="#FFFFFF" transform="translate(129.36087036132813,1.6123199462890625)"/>
<path d="M0 0 C1.74616079 -0.0083016 1.74616079 -0.0083016 3.52759755 -0.0167709 C6.75576391 -0.02803001 9.98331854 -0.0213416 13.21145463 -0.00703418 C16.69516285 0.00407146 20.17880243 -0.00786662 23.6625061 -0.01687622 C30.49092815 -0.03082142 37.31916543 -0.02323934 44.1475787 -0.00820064 C52.11665986 0.00867854 60.08569521 0.00544596 68.05478872 0.00170528 C82.2967457 -0.00417744 96.5386144 0.01000503 110.7805481 0.03465271 C124.55792566 0.05849339 138.33518488 0.06568923 152.11257935 0.05516052 C167.13431429 0.04370132 182.15599443 0.04188889 197.17772877 0.05625862 C198.78648638 0.05778428 200.395244 0.05930464 202.00400162 0.06081963 C203.19103028 0.06195635 203.19103028 0.06195635 204.40203931 0.06311603 C209.93620551 0.06782681 215.470347 0.0660298 221.00451279 0.06175423 C227.7776665 0.05678046 234.55070918 0.06301579 241.32383774 0.08264852 C244.76972827 0.09239597 248.21545129 0.0977657 251.66135025 0.08975601 C271.91863105 0.05711575 292.00252821 0.95586391 311.68240356 6.18870544 C312.66370239 6.44361755 313.64500122 6.69852966 314.65603638 6.96116638 C347.91347785 15.88597514 377.94019539 31.98033194 403.28005981 55.34886169 C405.5842094 57.46837158 407.93985791 59.51555886 410.30740356 61.56370544 C414.46628677 65.2733713 418.08765471 69.19627716 421.61990356 73.50120544 C422.26765747 74.28044373 422.26765747 74.28044373 422.92849731 75.07542419 C460.64780237 120.56347501 478.30160593 177.07087643 473.12380981 236.05589294 C467.98575091 284.34746084 447.26653185 329.25703988 413.18045044 363.90989685 C411.77356515 365.34451486 410.3904933 366.80239265 409.01052856 368.26292419 C381.22800425 397.18035554 341.88309738 416.32596598 302.99490356 424.37620544 C302.07983032 424.56747009 301.16475708 424.75873474 300.22195435 424.95579529 C280.57310526 428.69019592 260.62217391 428.79711494 240.69802856 428.77586365 C237.96563286 428.77913578 235.23324537 428.78534519 232.50085449 428.79135132 C225.90979297 428.80397068 219.31877241 428.8059089 212.72770083 428.80355106 C207.37167512 428.80175635 202.0156617 428.80354193 196.65963745 428.8077755 C195.89280014 428.80837069 195.12596283 428.80896588 194.33588803 428.8095791 C192.77751016 428.81079099 191.2191323 428.81200512 189.66075444 428.81322148 C175.1200004 428.82404378 160.57926969 428.82195751 146.03851438 428.81583663 C132.7422924 428.81064965 119.44614328 428.8219791 106.14993572 428.84093485 C92.46023314 428.86030098 78.77056507 428.86857284 65.08084869 428.8648116 C57.40931285 428.86290058 49.73783932 428.86537926 42.0663147 428.87952614 C35.5496498 428.89142383 29.03308578 428.89286153 22.51641953 428.88073597 C19.19397811 428.87484118 15.87187298 428.87538783 12.5494194 428.88573837 C8.94855539 428.89614993 5.34819069 428.88815024 1.74734497 428.87542725 C0.69814503 428.88280153 -0.35105492 428.89017582 -1.4320488 428.89777356 C-6.83060768 428.85753107 -10.74342607 428.5926037 -15.38009644 425.50120544 C-19.85093926 420.66786185 -20.50493322 417.25650747 -20.51431751 410.79255199 C-20.51666974 410.10371995 -20.51902197 409.41488791 -20.52144548 408.70518216 C-20.52814155 406.37994669 -20.52767708 404.05476702 -20.52726746 401.72952271 C-20.53056569 400.05241508 -20.53429117 398.37530825 -20.53840894 396.69820243 C-20.54844142 392.07612242 -20.55214772 387.4540554 -20.55479825 382.83196604 C-20.55869753 377.85230177 -20.56827603 372.87264781 -20.57701111 367.89299011 C-20.59678478 355.8614814 -20.60684226 343.82997182 -20.6157389 331.79845092 C-20.62011978 326.13634274 -20.62548705 320.4742355 -20.63072777 314.81212807 C-20.64773992 295.99710503 -20.6622354 277.18208258 -20.66947651 258.36705303 C-20.67138648 253.48314094 -20.6733068 248.59922885 -20.67526245 243.71531677 C-20.67574619 242.50140693 -20.67622993 241.28749708 -20.67672833 240.03680209 C-20.68503354 220.36014387 -20.71037879 200.68354634 -20.74284313 181.00691464 C-20.77588195 160.81798791 -20.79392234 140.62909207 -20.79712075 120.44013816 C-20.79928865 109.09959736 -20.8080783 97.7591451 -20.83358192 86.4186306 C-20.85524543 76.76324726 -20.86336077 67.10797397 -20.85361514 57.45256909 C-20.84905798 52.52424541 -20.8510387 47.596149 -20.87037659 42.66785622 C-20.88792 38.15805105 -20.88708273 33.64864044 -20.8714793 29.13883159 C-20.86908976 27.50557695 -20.87349601 25.87229562 -20.88530795 24.23908194 C-20.90035634 22.02136662 -20.89080518 19.80506216 -20.87508106 17.58738232 C-20.87605787 16.35491746 -20.87703468 15.12245261 -20.87804109 13.85264033 C-20.1382363 8.87335689 -17.57601303 5.87599279 -14.34135246 2.15753078 C-9.70512832 -0.43565787 -5.22563165 -0.04603355 0 0 Z M76.61990356 100.50120544 C75.31133009 104.42692586 75.47529816 108.16410662 75.47946167 112.25630188 C75.47649055 113.16188595 75.47351943 114.06747002 75.47045827 115.00049603 C75.46175811 118.047454 75.46026191 121.09437274 75.45877075 124.14134216 C75.45414356 126.32083724 75.44911903 128.50033151 75.44372559 130.67982483 C75.43059121 136.60954555 75.42415476 142.53925494 75.41971493 148.46898794 C75.41678625 152.17117688 75.41268186 155.8733627 75.40821075 159.57555008 C75.39453392 171.15181587 75.38486782 182.72807456 75.38100886 194.30434787 C75.38056677 195.62340755 75.38012468 196.94246723 75.37966919 198.30149841 C75.37944776 198.96240684 75.37922633 199.62331526 75.37899819 200.30425121 C75.3752949 210.34958555 75.36047225 220.39485988 75.33865356 230.44017029 C75.31340622 242.10260577 75.29847838 253.76499408 75.29696774 265.42745793 C75.29591803 271.60193051 75.2899748 277.77630718 75.27214813 283.95075607 C75.25571069 289.7570308 75.2534909 295.56313707 75.26228714 301.36942673 C75.2630598 303.50235952 75.25868479 305.63530121 75.24882889 307.76821136 C75.23617693 310.67639065 75.24194944 313.58396716 75.25241089 316.49214172 C75.24435448 317.33932168 75.23629808 318.18650163 75.22799754 319.05935371 C75.27080035 324.13488037 75.85345222 327.7347541 79.61990356 331.50120544 C82.08809462 331.60557347 84.52854529 331.6445343 86.9974823 331.64164734 C88.17014409 331.64610402 88.17014409 331.64610402 89.36649603 331.65065074 C92.00704678 331.659377 94.64755239 331.66084936 97.28811646 331.66233826 C99.17361041 331.66696414 101.05910342 331.67198848 102.94459534 331.67738342 C108.08594197 331.69054286 113.22727551 331.69696076 118.36863637 331.70139408 C121.5841173 331.70432275 124.79959465 331.70842746 128.01507378 331.71289825 C138.08406784 331.72659051 148.15305372 331.73624529 158.22205645 331.74010015 C169.82635191 331.74456722 181.43052877 331.76204479 193.03478819 331.79110074 C202.01078277 331.8127902 210.9867442 331.8228085 219.96276468 331.82414126 C225.31881573 331.8251853 230.67475556 331.83100553 236.03077888 331.84896088 C241.08277577 331.86556443 246.1345794 331.86753805 251.18659401 331.85882187 C253.02948274 331.85805767 254.87238237 331.86231148 256.71524429 331.87228012 C271.45800902 331.94727138 285.42639892 330.67366671 299.30740356 325.25120544 C300.1021106 324.94819519 300.89681763 324.64518494 301.71560669 324.33299255 C317.41957301 318.19010112 330.3786855 309.02483486 342.61990356 297.50120544 C343.22318481 296.96237732 343.82646606 296.42354919 344.44802856 295.86839294 C359.31661633 282.04199591 368.15288876 262.68231334 373.61990356 243.50120544 C374.13230591 241.77257263 374.13230591 241.77257263 374.65505981 240.00901794 C378.99784547 222.51668131 378.38500309 201.8570151 373.61990356 184.50120544 C373.30279419 183.30495544 372.98568481 182.10870544 372.65896606 180.87620544 C368.02255629 165.35574153 359.97494347 150.91591569 349.61990356 138.50120544 C348.97537231 137.70585388 348.33084106 136.91050232 347.66677856 136.09104919 C342.6114384 130.1006766 336.83023508 125.25749601 330.61990356 120.50120544 C329.45007935 119.59048279 329.45007935 119.59048279 328.25662231 118.66136169 C309.03090469 104.41171216 284.45727229 96.34775699 260.5922699 96.35403442 C259.82533804 96.35035774 259.05840618 96.34668105 258.26823395 96.34289294 C255.72049246 96.33195531 253.17279187 96.32802947 250.62503052 96.32420349 C248.7896207 96.31793185 246.95421214 96.31128443 245.11880493 96.30429077 C239.11527373 96.28334947 233.11174252 96.2729048 227.10818481 96.26292419 C225.03797073 96.25887437 222.96775677 96.25475738 220.89754295 96.25057411 C211.17939383 96.23155247 201.4612522 96.2173093 191.74308807 96.20896214 C180.52867906 96.19916952 169.31446635 96.17278469 158.10012656 96.13246125 C149.42479798 96.10233689 140.74952586 96.08749718 132.07414597 96.08418113 C126.89456489 96.08182853 121.71519429 96.07283895 116.53566933 96.04771996 C111.66906482 96.02449548 106.80281035 96.02018324 101.93616486 96.03048134 C100.1499204 96.03097801 98.363659 96.02461908 96.57746696 96.01092529 C94.14008436 95.99328269 91.70396889 96.00027367 89.2665863 96.01345825 C88.20520705 95.99700438 88.20520705 95.99700438 87.1223858 95.98021811 C82.3725394 96.04230966 79.9176234 97.08889896 76.61990356 100.50120544 Z " fill="#FFFFFF" transform="translate(559.3800964355469,1.4987945556640625)"/>
<path d="M0 0 C0.89773636 -0.0065712 1.79547272 -0.0131424 2.72041321 -0.01991272 C5.70000283 -0.03967003 8.67954198 -0.05131422 11.65917969 -0.0612793 C12.67588493 -0.06535482 13.69259018 -0.06943035 14.74010468 -0.07362938 C20.12214455 -0.09450129 25.50415885 -0.10879771 30.88623047 -0.11816406 C36.44593696 -0.12922603 42.00524295 -0.16362047 47.56480789 -0.20333576 C51.83879338 -0.22948181 56.11268321 -0.23785416 60.38674164 -0.24144554 C62.43604993 -0.24631732 64.48535379 -0.25794807 66.53458405 -0.27648354 C69.40488895 -0.3008301 72.27415471 -0.29991796 75.14453125 -0.29296875 C76.41188866 -0.31218384 76.41188866 -0.31218384 77.70484924 -0.33178711 C83.06173242 -0.28457497 86.11575586 0.58035431 90.33105469 4.17700195 C94.11275608 8.17254088 96.35071337 12.81549552 98.75732422 17.70483398 C99.18075607 18.55286591 99.60418793 19.40089783 100.04045105 20.27462769 C101.4371864 23.07527499 102.82544848 25.88003621 104.21386719 28.68481445 C105.19251845 30.65026575 106.17176629 32.6154201 107.15158081 34.58029175 C109.73393075 39.76210885 112.30942406 44.94730193 114.88311768 50.13342285 C118.97847601 58.38325533 123.08372098 66.6281689 127.18984604 74.87264633 C128.60876462 77.72419756 130.0244976 80.5773114 131.43972778 83.43069458 C136.05935278 92.72923117 140.76902151 101.96786815 145.63189888 111.14155769 C149.83372646 119.08597169 153.85791279 127.11557693 157.8609314 135.16159058 C159.18984467 137.83253899 160.52150441 140.50210388 161.85375977 143.17138672 C165.15799748 149.79301604 168.45779383 156.41685595 171.75769043 163.04064941 C174.56322462 168.67168002 177.37052742 174.30182254 180.18002319 179.93087769 C181.47205451 182.52127366 182.76161351 185.11288928 184.05102539 187.70458984 C188.46241406 196.55437072 192.97428072 205.34056741 197.60237885 214.07893372 C201.74706376 221.92349356 205.72434658 229.84789896 209.67573547 237.79119873 C210.97103914 240.39493964 212.26909743 242.99729266 213.56774902 245.59936523 C216.78851377 252.05404182 220.00483401 258.51093029 223.22125244 264.96777344 C225.95632345 270.45788562 228.69316766 275.94710731 231.4322052 281.4352417 C232.69099982 283.95915942 233.94732019 286.48429724 235.20349121 289.00952148 C239.54864986 297.72719268 243.996362 306.38040978 248.55473232 314.98846436 C253.327888 324.02375805 257.89507386 333.16021921 262.45996094 342.30200195 C263.38480716 344.15101838 264.30977196 345.99997551 265.23484802 347.84887695 C267.14947876 351.67668145 269.06269553 355.5051882 270.97485352 359.33422852 C273.426684 364.24365244 275.88217462 369.15123551 278.33868504 374.05831909 C280.23855501 377.85445533 282.1365286 381.65153717 284.03391838 385.44891357 C284.93959793 387.26093905 285.8458703 389.07266836 286.75274849 390.88409424 C288.01068452 393.39743581 289.26606227 395.91203856 290.52075195 398.42700195 C291.08088989 399.54424149 291.08088989 399.54424149 291.65234375 400.68405151 C294.38505343 406.17211373 295.75025919 409.99373549 295.33105469 416.17700195 C293.43846727 421.43418922 290.76901925 424.00702727 286.33105469 427.17700195 C282.48798711 428.59882929 278.41205593 428.33211441 274.36889648 428.33813477 C273.57001007 428.34309967 272.77112366 428.34806458 271.94802856 428.35317993 C269.30876804 428.36776804 266.66956763 428.37459803 264.03027344 428.38012695 C262.19187926 428.38588124 260.3534851 428.39163894 258.51509094 428.3973999 C254.66085532 428.40790041 250.80664049 428.41374927 246.95239258 428.41723633 C242.02290539 428.4227185 237.09369476 428.44674463 232.16429424 428.47520828 C228.36637071 428.49386713 224.56851336 428.499042 220.77054787 428.5005722 C218.95373841 428.50359202 217.13692994 428.51159781 215.32016563 428.52475739 C212.77369749 428.54188566 210.22789947 428.53992124 207.68139648 428.53344727 C206.9367363 428.54266205 206.19207611 428.55187683 205.42485046 428.56137085 C199.11799693 428.51135235 194.46893781 427.18230317 189.81152344 422.8137207 C185.96301467 417.71009289 183.4146889 411.71897795 180.64355469 405.98950195 C176.79114102 398.10333253 172.87606424 390.27319862 168.75756836 382.5234375 C163.71729338 372.98867665 158.86603279 363.36556435 154.06039429 353.71084595 C152.59704478 350.7710664 151.13097758 347.83265501 149.66430664 344.89453125 C146.02617582 337.60509153 142.39247512 330.31344585 138.75866699 323.02185059 C135.67128153 316.82714556 132.5821437 310.63332011 129.49081421 304.44058228 C128.06583517 301.58427362 126.64332157 298.72674702 125.22094727 295.86914062 C121.01493267 287.43372641 116.75943759 279.03266969 112.34472656 270.7043457 C107.37230801 261.32327169 102.60657189 251.84498086 97.87519836 242.3404541 C96.37824027 239.33346653 94.87857085 236.32784372 93.3782959 233.32250977 C89.65669153 225.86611756 85.93951477 218.40752044 82.222229 210.94897461 C79.06438104 204.61335082 75.90478431 198.27860473 72.74299622 191.94494629 C71.28478004 189.02215954 69.82902778 186.09815524 68.37341309 183.17407227 C62.87157813 172.14029225 57.23089055 161.19112346 51.45169067 150.30018616 C49.24843445 146.1258433 47.07238957 141.93654818 44.93569183 137.72772217 C43.30024945 134.60786774 42.33495452 133.17960184 39.33105469 131.17700195 C36.84505857 130.87084249 36.84505857 130.87084249 34.33105469 132.17700195 C29.66648044 138.08371922 26.59969075 145.39601209 23.28808594 152.1027832 C22.41861472 153.84968096 21.54914103 155.5965775 20.67953777 157.34340954 C19.46871098 159.77811597 18.26154536 162.21462932 17.05444336 164.65118408 C14.96488552 168.86824335 12.87173276 173.08351228 10.77531433 177.29716492 C9.6653163 179.5290847 8.55744664 181.76206508 7.4523468 183.99641418 C4.24091182 190.45933561 0.92917662 196.8585918 -2.44750977 203.23632812 C-7.29026553 212.39196524 -11.95486287 221.62988412 -16.56921387 230.90237427 C-17.96534566 233.70773804 -19.36420883 236.51172635 -20.76367188 239.31542969 C-23.73439422 245.26814264 -26.7019299 251.22244067 -29.66894531 257.17700195 C-33.11506683 264.09309067 -36.56259955 271.00846891 -40.0135498 277.92214966 C-41.37205481 280.64550204 -42.7280911 283.37007318 -44.08398438 286.09472656 C-48.18570654 294.32204636 -52.34338547 302.51142822 -56.64868164 310.63427734 C-61.52994961 319.84544079 -66.20794365 329.15118957 -70.84610558 338.48672295 C-72.28731002 341.38693289 -73.73162506 344.28557595 -75.17671204 347.18385315 C-79.27682137 355.40818549 -83.37217959 363.63487734 -87.46411133 371.86328125 C-89.98794772 376.93789177 -92.51578192 382.01049476 -95.04599953 387.08192635 C-95.9991079 388.99429464 -96.95070416 390.90741741 -97.90067101 392.82134819 C-113.92981115 425.11406765 -113.92981115 425.11406765 -121.34709167 427.7802124 C-124.76686954 428.36463 -128.172319 428.33298455 -131.63110352 428.33813477 C-132.42998993 428.34309967 -133.22887634 428.34806458 -134.05197144 428.35317993 C-136.69123196 428.36776804 -139.33043237 428.37459803 -141.96972656 428.38012695 C-143.80812074 428.38588124 -145.6465149 428.39163894 -147.48490906 428.3973999 C-151.33914468 428.40790041 -155.19335951 428.41374927 -159.04760742 428.41723633 C-163.97709461 428.4227185 -168.90630524 428.44674463 -173.83570576 428.47520828 C-177.63362929 428.49386713 -181.43148664 428.499042 -185.22945213 428.5005722 C-187.04626159 428.50359202 -188.86307006 428.51159781 -190.67983437 428.52475739 C-193.22630251 428.54188566 -195.77210053 428.53992124 -198.31860352 428.53344727 C-199.0632637 428.54266205 -199.80792389 428.55187683 -200.57514954 428.56137085 C-206.22765979 428.51654183 -211.04236715 427.43845042 -215.41113281 423.67700195 C-219.16357622 418.7082493 -220.21041207 415.40522426 -219.66894531 409.17700195 C-218.46388741 405.74760101 -216.84446115 402.55731878 -215.20410156 399.31762695 C-214.7182106 398.33086975 -214.23231964 397.34411255 -213.73170471 396.32745361 C-212.05754691 392.937142 -210.36301301 389.55740478 -208.66894531 386.17700195 C-207.38616537 383.59433819 -206.10763692 381.00957442 -204.82861328 378.42504883 C-200.97280975 370.64299561 -197.08785209 362.87567155 -193.19897461 355.11010742 C-191.74011435 352.19499491 -190.28423025 349.27840047 -188.82832241 346.36181259 C-187.39083282 343.48316377 -185.95138424 340.60549774 -184.51140022 337.72809601 C-183.8408404 336.38762708 -183.17083747 335.04687936 -182.50149345 333.70580292 C-178.6871328 326.06644072 -174.78880571 318.47867564 -170.79418945 310.93188477 C-166.1132515 302.08187441 -161.59847895 293.15576823 -157.1390686 284.19241333 C-155.81015533 281.52146492 -154.47849559 278.85190003 -153.14624023 276.18261719 C-150.31817331 270.51522504 -147.49329674 264.84624643 -144.66894531 259.17700195 C-141.38804238 252.59133395 -138.10571948 246.00638109 -134.81997681 239.42312622 C-133.52794549 236.83273024 -132.23838649 234.24111463 -130.94897461 231.64941406 C-126.5424837 222.80945753 -122.03552721 214.03315764 -117.41238403 205.30459595 C-113.19829656 197.32819776 -109.15724017 189.26888423 -105.1390686 181.19241333 C-103.81015533 178.52146492 -102.47849559 175.85190003 -101.14624023 173.18261719 C-98.31817331 167.51522504 -95.49329674 161.84624643 -92.66894531 156.17700195 C-89.38804238 149.59133395 -86.10571948 143.00638109 -82.81997681 136.42312622 C-81.52794549 133.83273024 -80.23838649 131.24111463 -78.94897461 128.64941406 C-74.95522738 120.63766378 -70.8978951 112.66865147 -66.70288086 104.76025391 C-61.85244409 95.60959392 -57.24387585 86.34906767 -52.67698097 77.05428123 C-50.29124285 72.20441497 -47.88983748 67.36229993 -45.49121094 62.51879883 C-42.46752411 56.41135593 -39.44862471 50.30168544 -36.4465332 44.18359375 C-33.99156219 39.1815494 -31.52094518 34.18751454 -29.03970909 29.19845009 C-28.1046552 27.31113622 -27.17532436 25.420975 -26.2520237 23.52788353 C-24.96417808 20.88919902 -23.65653419 18.26123422 -22.34399414 15.63476562 C-21.97343903 14.86332214 -21.60288391 14.09187866 -21.22109985 13.29705811 C-16.33839175 3.65928604 -10.63497028 0.03352444 0 0 Z " fill="#FFFFFF" transform="translate(1222.6689453125,1.822998046875)"/>
<path d="M0 0 C7.92 0 15.84 0 24 0 C24.57967529 1.66385742 25.15935059 3.32771484 25.7565918 5.04199219 C27.68939303 10.58700301 29.62557094 16.13082858 31.5639677 21.67388535 C32.73716826 25.02916559 33.90907904 28.3848839 35.07788086 31.74169922 C36.20940185 34.99128172 37.34452119 38.23958785 38.48197365 41.48709869 C39.11846773 43.30718529 39.7513876 45.12852058 40.38420105 46.94989014 C43.00342237 54.41578361 45.87385747 61.731738 49 69 C49.40726318 67.79802979 49.81452637 66.59605957 50.23413086 65.35766602 C57.64280046 43.50382169 65.08033795 21.67486455 73 0 C80.92 0 88.84 0 97 0 C97 31.02 97 62.04 97 94 C91.72 94 86.44 94 81 94 C80.67 71.89 80.34 49.78 80 27 C75.93620056 38.30164177 75.93620056 38.30164177 71.87304688 49.60351562 C70.2162644 54.21239288 68.55940597 58.82124274 66.90209961 63.42993164 C65.566118 67.14508554 64.23047338 70.86036043 62.8950634 74.57571983 C62.38524337 75.99394746 61.87530146 77.41213128 61.36523628 78.83027077 C60.65145367 80.81487299 59.93810261 82.79962982 59.22485352 84.78442383 C58.8184816 85.91471512 58.41210968 87.04500641 57.99342346 88.20954895 C57.30878721 90.13264019 56.64552356 92.06342931 56 94 C51.05 94 46.1 94 41 94 C32.6443314 72.12581067 24.84864379 50.06105282 17 28 C16.67 49.78 16.34 71.56 16 94 C10.72 94 5.44 94 0 94 C0 62.98 0 31.96 0 0 Z " fill="#FFFFFF" transform="translate(1911,141)"/>
<path d="M0 0 C5.94 0 11.88 0 18 0 C18.44915771 1.92303955 18.89831543 3.8460791 19.36108398 5.82739258 C20.84471118 12.17795268 22.32963986 18.52820734 23.81545925 24.87825489 C24.71634329 28.7286396 25.61670285 32.57914539 26.51586914 36.42993164 C27.38347816 40.14548334 28.25245786 43.86071201 29.12239265 47.57571983 C29.45420324 48.9937871 29.78551808 50.41197046 30.1163311 51.83027077 C30.57941901 53.81529426 31.04442634 55.79986967 31.50952148 57.78442383 C31.77377426 58.91471512 32.03802704 60.04500641 32.31028748 61.20954895 C32.97496818 64.05716248 32.97496818 64.05716248 34 67 C34.21075668 66.19011627 34.42151337 65.38023254 34.63865662 64.54580688 C36.6227981 56.92288345 38.60907312 49.3005199 40.59776211 41.67878151 C41.62015128 37.76011997 42.64170677 33.841245 43.66137695 29.921875 C44.64497868 26.14126815 45.63074417 22.36123166 46.61802864 18.58158493 C46.99478749 17.13766054 47.370759 15.69353047 47.74593925 14.2491951 C48.27053497 12.23019992 48.7978957 10.21194641 49.32592773 8.19384766 C49.6257103 7.04357086 49.92549286 5.89329407 50.23435974 4.7081604 C51 2 51 2 52 0 C57.94 0 63.88 0 70 0 C74.29842227 15.21163882 78.21789076 30.50338382 82.07226562 45.83276367 C82.8629166 48.97390299 83.65776062 52.11395768 84.453125 55.25390625 C84.69476379 56.22034561 84.93640259 57.18678497 85.18536377 58.18251038 C85.4093988 59.06531174 85.63343384 59.9481131 85.86425781 60.85766602 C86.06013489 61.63610367 86.25601196 62.41454132 86.45782471 63.21656799 C86.84887976 65.00583433 86.84887976 65.00583433 88 66 C93.28 44.22 98.56 22.44 104 0 C109.94 0 115.88 0 122 0 C120.23196061 9.95307455 117.46011393 19.61673989 114.7734375 29.3515625 C114.26032913 31.22048823 113.74752679 33.08949799 113.23501587 34.95858765 C111.89330484 39.84851775 110.5474718 44.73730387 109.20074463 49.62585449 C107.82402168 54.62618062 106.4512451 59.62758981 105.078125 64.62890625 C102.3892534 74.42032915 99.69565679 84.21044294 97 94 C91.06 94 85.12 94 79 94 C74.62160732 78.95848274 70.54807918 63.85360874 66.625 48.6875 C66.07445194 46.56699674 65.52367171 44.44655373 64.97265625 42.32617188 C63.64577513 37.21813567 62.32170488 32.10937786 61 27 C58.33525582 35.47849643 55.8620701 43.98471614 53.58203125 52.57421875 C53.27931808 53.70527542 52.97660492 54.83633209 52.66471863 56.00166321 C51.71168389 59.56300031 50.7617356 63.12514854 49.8125 66.6875 C48.85244255 70.28909726 47.89165055 73.89048835 46.92814636 77.49116516 C46.33179315 79.71977578 45.73741775 81.94891677 45.1452179 84.17863464 C44.87791367 85.17760269 44.61060944 86.17657074 44.33520508 87.20581055 C44.10078201 88.08593307 43.86635895 88.9660556 43.62483215 89.87284851 C43 92 43 92 42 94 C36.06 94 30.12 94 24 94 C20.86687002 82.18791945 17.7368572 70.37502513 14.61236572 58.56065655 C13.16150594 53.07515364 11.70926844 47.59002314 10.25390625 42.10571289 C8.85016459 36.81572406 7.45001079 31.52479771 6.05236816 26.23319435 C5.51778561 24.21179008 4.98189832 22.19073041 4.44470215 20.17001915 C3.69408074 17.34560379 2.94805514 14.52001267 2.203125 11.6940918 C1.97870728 10.85396042 1.75428955 10.01382904 1.52307129 9.14823914 C0.70332729 6.02330239 0 3.24549793 0 0 Z " fill="#FFFFFF" transform="translate(2307,2)"/>
<path d="M0 0 C19 0 19 0 23.05859375 3.70703125 C24.32519531 6.14306641 24.32519531 6.14306641 25.4375 8.8125 C26.37547768 10.67230606 27.3169704 12.53034291 28.26171875 14.38671875 C28.71337402 15.33208496 29.1650293 16.27745117 29.63037109 17.25146484 C31.70983848 21.42448513 34.20455026 25.21652496 36.75 29.125 C44.27543414 41.01518594 51.62513387 53.01584254 59 65 C59.33 43.55 59.66 22.1 60 0 C65.28 0 70.56 0 76 0 C76 31.02 76 62.04 76 94 C58 94 58 94 54.1796875 90.7578125 C52.96508789 88.56689453 52.96508789 88.56689453 51.875 86.125 C50.9361897 84.373606 49.99462863 82.6236846 49.05078125 80.875 C48.56818848 79.92753906 48.0855957 78.98007813 47.58837891 78.00390625 C44.69928101 72.54010967 41.3420282 67.3601886 38.0625 62.125 C36.82209833 60.10807335 35.5838571 58.08981662 34.34765625 56.0703125 C28.58607003 46.70061703 22.78959138 37.35241684 17 28 C16.67 49.78 16.34 71.56 16 94 C10.72 94 5.44 94 0 94 C0 62.98 0 31.96 0 0 Z " fill="#FFFFFF" transform="translate(2190,141)"/>
<path d="M0 0 C8.848125 -0.0825 17.69625 -0.165 26.8125 -0.25 C30.96936401 -0.30462402 30.96936401 -0.30462402 35.21020508 -0.36035156 C37.43830595 -0.37204804 39.66641546 -0.38223759 41.89453125 -0.390625 C43.59144104 -0.4213208 43.59144104 -0.4213208 45.32263184 -0.45263672 C54.01624765 -0.45640467 62.01779502 0.78034491 68.9375 6.375 C75.7573035 15.0547499 76.72122826 21.05044366 76 32 C74.49887446 39.31650952 70.16323903 44.89117398 64 49 C65.36125 49.7734375 65.36125 49.7734375 66.75 50.5625 C70.46858553 52.67533269 72.47567513 56.11063257 74 60 C74.66337492 63.61166847 74.87607368 67.21110138 75.0625 70.875 C75.42156538 77.3559085 76.02860158 83.04015152 78.37670898 89.12939453 C79 91 79 91 79 94 C73.06 94 67.12 94 61 94 C59.15118498 90.30236995 58.70896098 88.73075182 58.47265625 84.7890625 C58.40240234 83.79132813 58.33214844 82.79359375 58.25976562 81.765625 C58.12875917 79.67989842 58.00112839 77.59395693 57.87695312 75.5078125 C57.42037849 69.12399424 56.46318746 64.62996046 52.8125 59.25 C46.34223675 54.78774949 36.99599742 55.57340134 29.5 55.375 C25.375 55.25125 21.25 55.1275 17 55 C17 67.87 17 80.74 17 94 C11.39 94 5.78 94 0 94 C0 62.98 0 31.96 0 0 Z M17 14 C17 23.24 17 32.48 17 42 C21.30562412 42.06911525 25.60930087 42.12876967 29.91503906 42.16479492 C31.37767075 42.17982196 32.84025782 42.20024955 34.30273438 42.22631836 C36.4128728 42.26297267 38.52241226 42.27978676 40.6328125 42.29296875 C42.53377686 42.31653442 42.53377686 42.31653442 44.47314453 42.34057617 C49.41910844 41.86296163 52.67701504 40.21571591 56.3125 36.875 C58.89671328 32.47226627 59.70206285 27.99239903 58.5234375 22.96875 C57.10083673 19.27936779 55.44026337 16.93514814 52 15 C48.4937557 13.8312519 45.3522134 13.87485733 41.70703125 13.90234375 C41.00100266 13.9037587 40.29497406 13.90517365 39.56755066 13.90663147 C37.31582374 13.91222236 35.06419679 13.92477312 32.8125 13.9375 C31.28450665 13.94251618 29.75651173 13.94707888 28.22851562 13.95117188 C24.48560772 13.9613373 20.74291557 13.98091431 17 14 Z " fill="#FFFFFF" transform="translate(2521,2)"/>
<path d="M0 0 C7.858125 -0.0825 15.71625 -0.165 23.8125 -0.25 C26.27050049 -0.28641602 28.72850098 -0.32283203 31.26098633 -0.36035156 C33.24299246 -0.37205088 35.22500832 -0.38223974 37.20703125 -0.390625 C38.20875366 -0.41108887 39.21047607 -0.43155273 40.24255371 -0.45263672 C52.00069075 -0.45835774 61.2704548 3.50466171 69.68359375 11.625 C78.89912912 21.55295831 80.86735955 34.92165114 81 48 C80.47319923 61.69015174 77.10484231 75.14875412 67 85 C47.31179599 99.53176963 24.17551799 94 0 94 C0 62.98 0 31.96 0 0 Z M17 14 C17 35.45 17 56.9 17 79 C38.39227903 80.57438727 38.39227903 80.57438727 56.49609375 71.80859375 C64.52066853 62.15826096 63.67572364 48.78503447 63 37 C61.98798741 29.42383235 58.79497712 23.98851907 53 19 C41.79589022 11.66524123 30.86065801 14 17 14 Z " fill="#FFFFFF" transform="translate(2000,2)"/>
<path d="M0 0 C9.29666311 8.79518336 14.0220533 21.74533697 14.86328125 34.30859375 C15.17431401 50.56414803 11.51973324 64.15580474 0.4375 76.5625 C-9.14102428 85.5369732 -21.18656232 88.2258041 -33.84765625 87.99609375 C-45.85267306 87.15853444 -56.22075373 81.95192658 -64.48828125 73.21484375 C-74.52729752 60.09968998 -76.51435256 45.79953361 -75.375 29.75 C-73.5677543 17.16987563 -68.07051634 6.09037933 -58.375 -2.25 C-39.60620765 -14.36684566 -17.65028757 -14.08692762 0 0 Z M-49.375 10.75 C-56.60640381 20.47181074 -59.60687943 31.70120664 -58.375 43.75 C-56.6746609 54.0047583 -53.46311881 63.08064988 -45.05078125 69.6015625 C-39.54300052 73.37612552 -32.8443147 74.12244289 -26.265625 73.57421875 C-19.65524813 72.26536413 -13.91596605 68.75496854 -9.578125 63.625 C-2.45215537 52.90076848 -1.25124871 40.21422308 -3.375 27.75 C-5.53692993 18.64652209 -9.88781873 11.75278039 -17.5625 6.3125 C-27.43113321 0.829926 -41.4940497 2.66165627 -49.375 10.75 Z " fill="#FFFFFF" transform="translate(1882.375,149.25)"/>
<path d="M0 0 C1.38094849 0.00749268 1.38094849 0.00749268 2.78979492 0.01513672 C14.67276501 0.31856732 23.84436917 4.90068618 32.33203125 13.0859375 C42.88159794 24.46344487 45.42315498 39.17745828 44.96875 54.16015625 C44.26529358 67.64600202 39.05095685 79.23109845 29.17578125 88.4921875 C18.04130448 97.47667896 6.69817788 99.48732965 -7.3125 98.5 C-18.87259724 96.70411022 -29.08981827 90.72639343 -36.3125 81.5 C-45.28198795 67.14068369 -47.47393406 51.15879451 -44.1875 34.6875 C-40.77049757 21.78592074 -33.59963487 11.60713571 -22.1328125 4.82421875 C-14.7491069 1.35735421 -8.15845671 -0.05834415 0 0 Z M-21.3125 24.5 C-27.65823557 33.90643126 -29.55117718 45.42257568 -27.84765625 56.53125 C-25.97272229 66.02795694 -23.03944879 74.20291595 -14.9375 80 C-7.49770248 84.38438819 -0.78071115 85.33388012 7.6875 83.5 C15.45831401 80.96484082 20.0783813 75.71052851 23.9375 68.6875 C29.37294497 56.91070257 28.9360622 43.55368595 24.6875 31.5 C21.3850125 23.99530885 17.08457446 19.14474032 9.6875 15.5 C-2.13087209 11.56054264 -13.25524602 15.51176079 -21.3125 24.5 Z " fill="#FFFFFF" transform="translate(2257.3125,-0.49999999999999994)"/>
<path d="M0 0 C2.97 0 5.94 0 9 0 C9 141.24 9 282.48 9 428 C6.03 428 3.06 428 0 428 C0 286.76 0 145.52 0 0 Z " fill="#FFFFFF" transform="translate(1609,2)"/>
<path d="M0 0 C22.44 0 44.88 0 68 0 C68 4.95 68 9.9 68 15 C51.17 15 34.34 15 17 15 C17 22.59 17 30.18 17 38 C32.51 38 48.02 38 64 38 C64 42.62 64 47.24 64 52 C48.49 52 32.98 52 17 52 C17 60.91 17 69.82 17 79 C34.16 79 51.32 79 69 79 C69 83.95 69 88.9 69 94 C46.23 94 23.46 94 0 94 C0 62.98 0 31.96 0 0 Z " fill="#FFFFFF" transform="translate(2439,2)"/>
<path d="M0 0 C5.61 0 11.22 0 17 0 C17.01458252 1.89161865 17.02916504 3.7832373 17.04418945 5.73217773 C17.09601955 12.01073896 17.16135271 18.28904859 17.23571491 24.56738186 C17.28027507 28.37066429 17.31956183 32.17384314 17.34643555 35.97729492 C17.37261308 39.65389949 17.41311483 43.33010235 17.46318626 47.00645638 C17.47975805 48.40288322 17.49133225 49.79937939 17.49761391 51.19589043 C17.28833656 63.58064088 17.28833656 63.58064088 22.27436829 74.57444763 C27.48904269 79.39128251 33.81579202 80.43719629 40.66015625 80.25 C46.06822077 79.67217675 50.54863757 78.45136243 54.4375 74.5625 C55.2109375 73.2940625 55.2109375 73.2940625 56 72 C56.391875 71.38125 56.78375 70.7625 57.1875 70.125 C59.94416742 62.91525445 59.21884708 54.55073157 59.31640625 46.97265625 C59.33700907 45.61501989 59.35800634 44.25738947 59.37937927 42.89976501 C59.43425665 39.34724774 59.48381552 35.79467592 59.53222656 32.24206543 C59.58269427 28.6085939 59.63824768 24.97520041 59.69335938 21.34179688 C59.80052019 14.22793115 59.9015857 7.11399289 60 0 C65.61 0 71.22 0 77 0 C77.09082205 8.65883431 77.1640138 17.31734578 77.20724869 25.97655106 C77.2280124 29.99854661 77.25612099 34.02019586 77.30175781 38.04199219 C77.34562106 41.93239433 77.36922115 45.82246604 77.37950897 49.71309662 C77.38682855 51.18808942 77.40111924 52.66306672 77.42292023 54.13791656 C77.58426188 65.51842105 76.68082322 75.74924925 69.375 84.9375 C60.89895697 93.61797449 50.4249947 96.02563659 38.6875 96.3125 C27.34824079 96.13070827 17.63273745 93.97899741 9.09765625 86.28515625 C-0.1409913 76.73399631 -0.57366624 65.45081784 -0.390625 52.83203125 C-0.38314704 51.30076341 -0.37746148 49.76948587 -0.37347412 48.23820496 C-0.35833973 44.24482921 -0.31916679 40.25205306 -0.2746582 36.25891113 C-0.23343899 32.16943467 -0.21540674 28.07985953 -0.1953125 23.99023438 C-0.15265746 15.99318632 -0.08241118 7.99673726 0 0 Z " fill="#FFFFFF" transform="translate(1869,2)"/>
<path d="M0 0 C7.68374288 7.04343097 10.45779736 13.04519138 11.78125 23.6328125 C5.84125 23.6328125 -0.09875 23.6328125 -6.21875 23.6328125 C-6.775625 22.2509375 -7.3325 20.8690625 -7.90625 19.4453125 C-10.53896709 13.58153353 -13.88689389 9.4993787 -20.0703125 7.13671875 C-27.73526032 5.33894008 -35.2520616 6.088357 -42.21875 9.6328125 C-50.21955984 16.14509958 -53.58476327 24.6642268 -55.21875 34.6328125 C-56.34657696 45.67933686 -54.04980461 57.67259801 -47.21875 66.6328125 C-41.67896392 72.26957514 -35.74631367 74.48188926 -27.9296875 74.6953125 C-20.97614911 74.31298736 -15.83463095 71.44427333 -11.12890625 66.38671875 C-8.95844914 63.25753211 -8.00283214 60.47653151 -6.96875 56.8203125 C-6.39125 54.7784375 -5.81375 52.7365625 -5.21875 50.6328125 C0.39125 50.6328125 6.00125 50.6328125 11.78125 50.6328125 C11.63961099 61.11409888 8.4960851 70.17574933 1.59765625 78.16015625 C-8.19539697 87.27431496 -18.7569413 90.13998741 -31.94921875 89.87890625 C-43.838787 88.98399251 -54.14774067 83.74677469 -62.33203125 75.09765625 C-72.37104752 61.98250248 -74.35810256 47.68234611 -73.21875 31.6328125 C-71.4115043 19.05268813 -65.91426634 7.97319183 -56.21875 -0.3671875 C-39.13908087 -11.39356101 -16.48431145 -13.44417205 0 0 Z " fill="#FFFFFF" transform="translate(1786.21875,147.3671875)"/>
<path d="M0 0 C6.27 0 12.54 0 19 0 C23.96411705 11.66316794 28.49500058 23.4898104 33.0625 35.3125 C33.90981114 37.50337564 34.75722392 39.69421198 35.60473633 41.88500977 C36.87342628 45.1646118 38.14199112 48.44426156 39.40989685 51.72416687 C41.90091658 58.16654189 44.4020853 64.60483302 46.9140625 71.0390625 C47.74766989 73.17784868 48.58102448 75.31673316 49.41427612 77.45565796 C49.92723385 78.77041456 50.44132208 80.08473068 50.95657349 81.39859009 C51.65500784 83.17992996 52.34912888 84.96295928 53.04296875 86.74609375 C53.42477295 87.72247803 53.80657715 88.6988623 54.19995117 89.70483398 C55 92 55 92 55 94 C48.73 94 42.46 94 36 94 C34.66080132 90.39791426 33.32842874 86.79355571 32 83.1875 C31.6184375 82.16333984 31.236875 81.13917969 30.84375 80.08398438 C30.4828125 79.10107422 30.121875 78.11816406 29.75 77.10546875 C29.24726563 75.74651489 29.24726563 75.74651489 28.734375 74.36010742 C28 72 28 72 28 69 C15.79 69 3.58 69 -9 69 C-9.33 70.98 -9.66 72.96 -10 75 C-10.49745231 76.59563811 -11.03969727 78.17810549 -11.62890625 79.7421875 C-11.94150391 80.58007812 -12.25410156 81.41796875 -12.57617188 82.28125 C-12.90166016 83.1371875 -13.22714844 83.993125 -13.5625 84.875 C-13.89185547 85.75414062 -14.22121094 86.63328125 -14.56054688 87.5390625 C-15.36884837 89.69453314 -16.18376321 91.84752178 -17 94 C-22.94 94 -28.88 94 -35 94 C-34.33554567 90.67772834 -33.7612502 88.074668 -32.59570312 84.99975586 C-32.16669456 83.85963043 -32.16669456 83.85963043 -31.72901917 82.69647217 C-31.25987343 81.4680661 -31.25987343 81.4680661 -30.78125 80.21484375 C-30.45104355 79.34136292 -30.1208371 78.46788208 -29.78062439 77.56793213 C-28.69107944 74.6895884 -27.59569409 71.81350799 -26.5 68.9375 C-25.74208483 66.93992985 -24.9843562 64.94228891 -24.22680664 62.94458008 C-16.24633381 41.92648065 -8.13331818 20.95932683 0 0 Z M9 18 C7.146619 23.25036144 5.2952588 28.50142922 3.44580078 33.75317383 C2.81582805 35.54113205 2.18529514 37.328893 1.55419922 39.11645508 C0.64925534 41.67998919 -0.25369768 44.24421682 -1.15625 46.80859375 C-1.5827887 48.01484657 -1.5827887 48.01484657 -2.01794434 49.24546814 C-3.39283999 52.54853321 -3.39283999 52.54853321 -4 56 C4.91 56 13.82 56 23 56 C21.33316283 50.907736 19.66278808 45.81693778 17.98291016 40.72900391 C17.4123844 38.99729426 16.84401337 37.26487319 16.27783203 35.53173828 C15.46429946 33.04269904 14.64308777 30.5563094 13.8203125 28.0703125 C13.56814972 27.29317902 13.31598694 26.51604553 13.05618286 25.71536255 C11.68419114 21.47897746 11.68419114 21.47897746 9 18 Z " fill="#FFFFFF" transform="translate(2128,141)"/>
<path d="M0 0 C8.37375 -0.0825 16.7475 -0.165 25.375 -0.25 C29.31058838 -0.30462402 29.31058838 -0.30462402 33.32568359 -0.36035156 C35.43325994 -0.37204715 37.5408454 -0.38223691 39.6484375 -0.390625 C40.72005127 -0.41108887 41.79166504 -0.43155273 42.89575195 -0.45263672 C52.27014608 -0.45693394 60.52353241 1.71467398 67.53125 8.2265625 C73.57828265 15.52803277 74.71873855 24.85604851 74 34 C72.75816575 40.97742466 70.23203991 47.09496258 65 52 C57.60097643 56.76667865 51.00872914 58.16256574 42.29296875 58.09765625 C41.3274408 58.09614563 41.3274408 58.09614563 40.34240723 58.09460449 C37.95741981 58.08940599 35.57245795 58.07544492 33.1875 58.0625 C27.845625 58.041875 22.50375 58.02125 17 58 C17 69.88 17 81.76 17 94 C11.39 94 5.78 94 0 94 C0 62.98 0 31.96 0 0 Z M17 14 C17 23.9 17 33.8 17 44 C21.125 44.061875 25.25 44.12375 29.5 44.1875 C31.42682617 44.22846802 31.42682617 44.22846802 33.39257812 44.27026367 C40.32566532 44.32041746 46.92273925 44.35861382 52.54858398 39.72436523 C55.96676595 36.09588907 56.9156176 32.89417922 57 28 C56.57640916 23.37579999 55.64377808 20.15380223 52.0625 17.0625 C47.60695264 14.06182524 44.63232822 13.87933481 39.36328125 13.90234375 C38.19321533 13.90484131 37.02314941 13.90733887 35.81762695 13.90991211 C34.33093506 13.91901611 32.84424316 13.92812012 31.3125 13.9375 C26.589375 13.958125 21.86625 13.97875 17 14 Z " fill="#FFFFFF" transform="translate(2130,2)"/>
<path d="M0 0 C8.229375 -0.061875 16.45875 -0.12375 24.9375 -0.1875 C27.51812256 -0.21481201 30.09874512 -0.24212402 32.75756836 -0.27026367 C34.82665541 -0.279034 36.89574768 -0.28667664 38.96484375 -0.29296875 C40.01998169 -0.30831665 41.07511963 -0.32366455 42.16223145 -0.33947754 C52.20530495 -0.34299772 59.6992929 1.58345471 67.046875 8.6484375 C72.88896885 15.68231849 73.62261661 23.82603715 73.3125 32.703125 C72.50691895 41.20200504 69.58474288 47.40296855 63 53 C56.0580607 57.1128613 49.51545026 58.12954363 41.51171875 58.09765625 C40.22483154 58.09515869 38.93794434 58.09266113 37.61206055 58.09008789 C35.98695557 58.08098389 34.36185059 58.07187988 32.6875 58.0625 C24.9221875 58.0315625 24.9221875 58.0315625 17 58 C17 69.88 17 81.76 17 94 C11.39 94 5.78 94 0 94 C0 62.98 0 31.96 0 0 Z M17 14 C17 23.9 17 33.8 17 44 C22.9709375 44.061875 22.9709375 44.061875 29.0625 44.125 C30.92467163 44.15231201 30.92467163 44.15231201 32.82446289 44.18017578 C43.02866149 44.3190614 43.02866149 44.3190614 51.8125 39.6875 C55.68751355 34.92676907 56.62390258 31.13504202 56 25 C54.61654088 20.5016868 53.31508588 17.82379669 49.25 15.27734375 C43.35012861 12.98205132 36.77817208 13.69107357 30.5625 13.8125 C26.086875 13.874375 21.61125 13.93625 17 14 Z " fill="#FFFFFF" transform="translate(2027,141)"/>
<path d="M0 0 C21.45 0 42.9 0 65 0 C65 4.95 65 9.9 65 15 C49.16 15 33.32 15 17 15 C17 22.59 17 30.18 17 38 C30.86 38 44.72 38 59 38 C59 42.62 59 47.24 59 52 C45.14 52 31.28 52 17 52 C17 65.86 17 79.72 17 94 C11.39 94 5.78 94 0 94 C0 62.98 0 31.96 0 0 Z " fill="#FFFFFF" transform="translate(1718,2)"/>
<path d="M0 0 C16.4735985 -2.49381986 16.4735985 -2.49381986 21.71923828 1.21582031 C24.85231564 4.79172369 26.75558205 9.10122385 28.73388672 13.38769531 C31.17808927 18.43068939 34.13640297 23.18734354 37 28 C37.56517334 28.98564941 38.13034668 29.97129883 38.71264648 30.98681641 C39.24059814 31.89866699 39.7685498 32.81051758 40.3125 33.75 C40.78300781 34.56984375 41.25351563 35.3896875 41.73828125 36.234375 C42.15464844 36.81703125 42.57101563 37.3996875 43 38 C43.66 38 44.32 38 45 38 C45.34667725 37.38181396 45.69335449 36.76362793 46.05053711 36.12670898 C46.5378833 35.25860596 47.02522949 34.39050293 47.52734375 33.49609375 C48.06689697 32.53388916 48.6064502 31.57168457 49.16235352 30.58032227 C50.35168709 28.47465714 51.55152559 26.374893 52.76147461 24.28100586 C55.43985243 19.63640554 58.05192366 15.06531479 60.1640625 10.1328125 C62.03903122 5.97568973 63.52817001 3.05671989 67 0 C73.53640499 -1.70800532 80.38728629 -0.92968938 87 0 C82.74166957 8.01895978 78.15053409 15.78002555 73.375 23.5 C72.67269512 24.66114844 71.97145815 25.82294341 71.27124023 26.98535156 C68.19516561 32.06123892 65.13126773 37.00257558 61.32421875 41.578125 C49.16194474 56.75357501 51.50833077 75.49621763 52 94 C46.39 94 40.78 94 35 94 C35.12503906 91.65390625 35.25007813 89.3078125 35.37890625 86.890625 C36.17595402 64.41648887 32.63885078 50.28719839 19.35400391 32.26660156 C15.43371645 26.90841133 12.04193072 21.21217086 8.5625 15.5625 C7.93069824 14.56694092 7.29889648 13.57138184 6.64794922 12.5456543 C6.06416504 11.62437744 5.48038086 10.70310059 4.87890625 9.75390625 C4.11429077 8.55229858 4.11429077 8.55229858 3.33422852 7.32641602 C1.96950773 4.94683241 0.95598152 2.56797299 0 0 Z " fill="#FFFFFF" transform="translate(2274,141)"/>
<path d="M0 0 C5.61 0 11.22 0 17 0 C17 26.07 17 52.14 17 79 C32.84 79 48.68 79 65 79 C65 83.95 65 88.9 65 94 C43.55 94 22.1 94 0 94 C0 62.98 0 31.96 0 0 Z " fill="#FFFFFF" transform="translate(1795,2)"/>
<path d="M0 0 C5.61 0 11.22 0 17 0 C17 31.02 17 62.04 17 94 C11.39 94 5.78 94 0 94 C0 62.98 0 31.96 0 0 Z " fill="#FFFFFF" transform="translate(1964,2)"/>
<path d="M0 0 C3.35834931 1.65071407 4.95690399 3.42606273 6.90625 6.59375 C8.04129439 10.85016644 8.48029817 14.21676799 6.90625 18.34375 C4.82654968 21.28437364 2.47005475 23.82139244 -0.09375 26.34375 C-0.75375 27.00375 -1.41375 27.66375 -2.09375 28.34375 C0.54625 31.64375 3.18625 34.94375 5.90625 38.34375 C6.56625 35.70375 7.22625 33.06375 7.90625 30.34375 C10.54625 30.34375 13.18625 30.34375 15.90625 30.34375 C15.79041889 31.88613266 15.66308428 33.42765272 15.53125 34.96875 C15.46164062 35.82726562 15.39203125 36.68578125 15.3203125 37.5703125 C14.85948683 40.65697502 13.96343176 43.41286399 12.90625 46.34375 C13.54433594 47.01921875 14.18242188 47.6946875 14.83984375 48.390625 C15.66613281 49.28265625 16.49242187 50.1746875 17.34375 51.09375 C18.16746094 51.97546875 18.99117187 52.8571875 19.83984375 53.765625 C21.73693018 56.13250032 22.52727932 57.3946691 22.90625 60.34375 C14.13046525 61.26392937 14.13046525 61.26392937 11.12890625 59.0078125 C9.78125 57.34375 9.78125 57.34375 7.90625 54.34375 C6.99746094 54.97603516 6.99746094 54.97603516 6.0703125 55.62109375 C-1.27821779 60.42590202 -7.54105946 62.3810922 -16.28125 60.78125 C-21.80659849 59.11131709 -25.85058255 55.62289033 -28.59375 50.59375 C-29.52143981 44.56376622 -29.42207313 38.75112457 -25.96875 33.53125 C-23.16673235 30.06365044 -19.81849417 27.75387858 -16.09375 25.34375 C-16.4546875 24.88226563 -16.815625 24.42078125 -17.1875 23.9453125 C-21.09854374 18.44812324 -22.1318834 14.03394302 -21.09375 7.34375 C-19.75403209 3.84559767 -18.57536448 2.68440414 -15.53125 0.53125 C-10.33306554 -1.26448645 -5.30867342 -1.66391256 0 0 Z M-13.09375 9.34375 C-13.91627005 13.45635027 -13.24035947 15.09634652 -11.09375 18.71875 C-10.43375 19.585 -9.77375 20.45125 -9.09375 21.34375 C-6.46013744 20.96751963 -5.02154828 20.29160432 -2.84375 18.71875 C-0.41404072 15.42128741 -0.51217549 13.34207472 -1.09375 9.34375 C-2.78539222 7.30345404 -2.78539222 7.30345404 -5.09375 6.34375 C-8.7798049 6.34375 -10.24300356 7.03233396 -13.09375 9.34375 Z M-11.09375 31.34375 C-15.27486999 33.852422 -18.18202914 35.77686128 -20.09375 40.34375 C-20.76041667 43.84375 -20.76041667 43.84375 -20.09375 47.34375 C-17.9210078 49.97391161 -16.14701212 51.81711894 -13.09375 53.34375 C-8.25648845 53.74685513 -5.99543293 53.81918282 -1.65625 51.53125 C1.12952984 49.53427724 1.12952984 49.53427724 1.90625 46.34375 C0.15658102 43.65421714 0.15658102 43.65421714 -2.28125 40.90625 C-3.07917969 39.95878906 -3.87710937 39.01132812 -4.69921875 38.03515625 C-6.76129568 35.71742214 -8.87047184 33.50569634 -11.09375 31.34375 Z " fill="#FFFFFF" transform="translate(1744.09375,369.65625)"/>
<path d="M0 0 C0.639375 0.639375 1.27875 1.27875 1.9375 1.9375 C2.2675 0.6175 2.5975 -0.7025 2.9375 -2.0625 C5.5775 -2.0625 8.2175 -2.0625 10.9375 -2.0625 C10.96236852 3.61173184 10.98043935 9.28593138 10.99243164 14.96020508 C10.99743539 16.88729404 11.00424045 18.81437925 11.01293945 20.74145508 C11.02517948 23.52426076 11.03076804 26.30701589 11.03515625 29.08984375 C11.04031754 29.94021713 11.04547882 30.79059052 11.05079651 31.66673279 C11.05240641 49.14826807 11.05240641 49.14826807 4.9375 55.9375 C-0.34429921 60.37021565 -6.26880159 60.48949705 -12.93359375 60.2578125 C-18.46299936 59.691756 -22.38188833 58.49206579 -26.5625 54.625 C-28.3193677 51.4772787 -28.39282431 49.48848628 -28.0625 45.9375 C-22.70336809 45.49822689 -22.70336809 45.49822689 -20.0625 45.9375 C-18.1875 48.375 -18.1875 48.375 -17.0625 50.9375 C-13.34689694 52.79530153 -9.11794636 52.37178402 -5.0625 51.9375 C-1.91505481 50.70296291 -1.91505481 50.70296291 -0.0625 47.9375 C0.90265473 44.97054288 1.49577401 42.022989 1.9375 38.9375 C1.009375 39.5975 0.08125 40.2575 -0.875 40.9375 C-5.7664488 43.73119332 -10.57901818 43.60216446 -16.0625 42.9375 C-21.43477172 41.2143185 -25.0405777 37.62512043 -28.0625 32.9375 C-31.03564898 25.63060843 -31.39511052 16.96919395 -28.875 9.4375 C-25.75056091 3.40410037 -21.29352304 -0.65215899 -14.8125 -2.8125 C-9.29308725 -3.3142648 -4.66723343 -3.14323884 0 0 Z M-19.0625 8.9375 C-22.24180243 14.73914677 -22.77414904 20.58820728 -21.0625 26.9375 C-19.69734653 30.31818666 -18.13638288 33.11418979 -15.1875 35.375 C-10.74920611 36.5498425 -8.00535897 36.4181732 -3.875 34.3125 C0.24260557 30.83541086 1.69556802 28.2821494 2.25390625 22.87109375 C2.61799781 15.74584574 2.61799781 15.74584574 0.125 9.25 C-2.9090157 6.04261197 -4.42200644 5.00049937 -8.875 4.5625 C-13.30188991 4.71711564 -15.79486455 5.8218476 -19.0625 8.9375 Z " fill="#FFFFFF" transform="translate(1919.0625,387.0625)"/>
<path d="M0 0 C0.33 -0.99 0.66 -1.98 1 -3 C3.64 -3 6.28 -3 9 -3 C9.07637583 3.54696132 9.12873618 10.09380673 9.16479492 16.64111328 C9.17983512 18.86609185 9.20027246 21.09104101 9.22631836 23.31591797 C9.26291135 26.52318606 9.2797745 29.73006045 9.29296875 32.9375 C9.30845261 33.92427734 9.32393646 34.91105469 9.33988953 35.92773438 C9.34150964 42.65129696 8.73794189 48.65221491 4.31640625 54.05859375 C3.44822266 54.74115234 3.44822266 54.74115234 2.5625 55.4375 C1.98628906 55.91058594 1.41007812 56.38367188 0.81640625 56.87109375 C-4.64924055 60.26802262 -11.82720941 59.42155643 -18 59 C-22.52803318 57.93825429 -26.25508985 55.80064483 -29 52 C-29.75 48.25 -29.75 48.25 -30 45 C-24.63736264 44.56043956 -24.63736264 44.56043956 -22 45 C-20.1875 47.4375 -20.1875 47.4375 -19 50 C-14.6423934 51.45253553 -10.54955236 51.62402154 -6 51 C-2.86133093 48.95025694 -1.38336232 47.57120467 -0.484375 43.88671875 C-0.2209839 41.93554523 -0.09998292 39.96633069 0 38 C-0.598125 38.474375 -1.19625 38.94875 -1.8125 39.4375 C-6.44778507 42.7484179 -11.51970234 42.58456508 -17 42 C-22.25543559 40.35264029 -26.17776571 37.80825101 -29 33 C-32.69020553 23.60674957 -33.03318868 15.35579829 -29 6 C-25.64799943 0.8921896 -22.24668571 -2.18832857 -16.25 -3.6875 C-10.05278503 -4.28338605 -5.16410911 -3.71170342 0 0 Z M-21 9 C-23.81752774 13.4824305 -23.52774127 18.87451286 -23 24 C-21.96158801 27.81936466 -20.44865627 31.85945473 -17 34 C-12.46282273 35.04131937 -10.0978514 35.37285519 -5.6875 33.875 C-2.21845571 31.45473654 -0.79286644 29.09028426 0.6875 25.1875 C1.6279766 18.60416382 1.28478718 13.88996322 -2 8 C-4.96362407 4.69767604 -6.51074319 4.06989383 -10.9375 3.4375 C-15.69747497 3.68944574 -17.79366097 5.56463676 -21 9 Z " fill="#FFFFFF" transform="translate(2216,388)"/>
<path d="M0 0 C2.90234375 1.40234375 2.90234375 1.40234375 5 3 C5 3.66 5 4.32 5 5 C5.62261719 4.45859375 5.62261719 4.45859375 6.2578125 3.90625 C11.86206883 -0.31452883 16.85270373 -0.7372331 23.76953125 -0.5 C28.35843357 0.21025332 30.05972754 1.47167305 33 5 C34.63945963 8.27891925 34.12030178 11.90613534 34.09765625 15.5078125 C34.0962413 16.34843231 34.09482635 17.18905212 34.09336853 18.05514526 C34.08776237 20.74513275 34.07520886 23.43503759 34.0625 26.125 C34.05748579 27.94661338 34.05292275 29.76822807 34.04882812 31.58984375 C34.03779094 36.05992777 34.0205222 40.52994986 34 45 C31.36 45 28.72 45 26 45 C25.97494385 44.0212793 25.9498877 43.04255859 25.92407227 42.03417969 C25.82976017 38.39619296 25.72959797 34.75838657 25.62768555 31.12060547 C25.58442662 29.54740626 25.54274526 27.97416283 25.50268555 26.40087891 C25.44476338 24.13690885 25.38113286 21.87315949 25.31640625 19.609375 C25.29969376 18.90818542 25.28298126 18.20699585 25.26576233 17.48455811 C25.16648978 14.19766179 24.99187328 11.14857995 24 8 C22.43997572 7.8636872 20.87642824 7.76740874 19.3125 7.6875 C18.44238281 7.62949219 17.57226562 7.57148438 16.67578125 7.51171875 C12.77949172 8.22272049 11.46560035 9.95294747 9 13 C8.22493229 16.56319377 8.22493229 16.56319377 8.29296875 20.48828125 C8.27784744 21.19147995 8.26272614 21.89467865 8.24714661 22.6191864 C8.20438505 24.85062003 8.19544407 27.08069809 8.1875 29.3125 C8.16434629 30.83141595 8.13897911 32.35029988 8.11132812 33.86914062 C8.04859394 37.57940133 8.01616556 41.28921085 8 45 C5.03 45 2.06 45 -1 45 C-1.01458252 43.98574951 -1.02916504 42.97149902 -1.04418945 41.92651367 C-1.10216253 38.16345971 -1.17939459 34.40100479 -1.26245117 30.63842773 C-1.29570536 29.00994591 -1.32373584 27.38134869 -1.34643555 25.75268555 C-1.37997357 23.41144639 -1.43228585 21.07126514 -1.48828125 18.73046875 C-1.49467117 18.00224411 -1.5010611 17.27401947 -1.50764465 16.52372742 C-1.59252698 13.60566269 -1.66118699 11.50161358 -3.32104492 9.04418945 C-6.24662611 7.22468811 -8.66275798 7.59722941 -12 8 C-14.75329021 9.79562405 -16.52627461 11.05254922 -18 14 C-18.15520557 16.32273159 -18.25019167 18.64959313 -18.31640625 20.9765625 C-18.33718735 21.66181 -18.35796844 22.3470575 -18.37937927 23.05307007 C-18.44480185 25.24361069 -18.50372554 27.43427189 -18.5625 29.625 C-18.60569218 31.1093875 -18.6493067 32.59376278 -18.69335938 34.078125 C-18.80047553 37.71862084 -18.90176362 41.35925251 -19 45 C-21.64 45 -24.28 45 -27 45 C-27 30.48 -27 15.96 -27 1 C-24.69 1 -22.38 1 -20 1 C-19.67 1.99 -19.34 2.98 -19 4 C-18.278125 3.34 -17.55625 2.68 -16.8125 2 C-11.91668024 -1.29120897 -5.6317368 -0.78238146 0 0 Z " fill="#FFFFFF" transform="translate(2378,295)"/>
<path d="M0 0 C2.97 0 5.94 0 9 0 C9 8.58 9 17.16 9 26 C18.9 26 28.8 26 39 26 C39 17.42 39 8.84 39 0 C41.97 0 44.94 0 48 0 C48 20.13 48 40.26 48 61 C45.03 61 42.06 61 39 61 C39 51.76 39 42.52 39 33 C29.1 33 19.2 33 9 33 C9 42.24 9 51.48 9 61 C6.03 61 3.06 61 0 61 C0 40.87 0 20.74 0 0 Z " fill="#FFFFFF" transform="translate(1719,279)"/>
<path d="M0 0 C13.86 0 27.72 0 42 0 C42 2.64 42 5.28 42 8 C31.11 8 20.22 8 9 8 C9 13.94 9 19.88 9 26 C19.23 26 29.46 26 40 26 C40 28.31 40 30.62 40 33 C29.77 33 19.54 33 9 33 C9 39.6 9 46.2 9 53 C19.89 53 30.78 53 42 53 C42 55.64 42 58.28 42 61 C28.14 61 14.28 61 0 61 C0 40.87 0 20.74 0 0 Z " fill="#FFFFFF" transform="translate(1795,369)"/>
<path d="M0 0 C2.97 0 5.94 0 9 0 C9 20.13 9 40.26 9 61 C6.03 61 3.06 61 0 61 C0 60.01 0 59.02 0 58 C-0.8971875 58.7115625 -0.8971875 58.7115625 -1.8125 59.4375 C-7.54367247 62.24689827 -13.57528059 62.39749499 -19.8125 61.375 C-26.14091756 58.64509438 -29.75930859 55.15408821 -32.30859375 48.796875 C-33.99847569 41.9609684 -34.38970911 33.52531687 -31.75 26.875 C-28.52873494 21.58292168 -26.0411758 18.01372527 -20 16 C-12.44917747 15.2978216 -7.91978045 15.54010978 -1 19 C-0.67 12.73 -0.34 6.46 0 0 Z M-22 27 C-25.08934149 32.3742884 -25.97004021 38.00704378 -24.49609375 44.07421875 C-23.41205917 47.42543423 -22.19143818 49.76795372 -19.9375 52.5 C-15.61355551 54.70797166 -11.75758723 54.75243554 -7 54 C-3.38520398 52.15414671 -1.78804962 50.03707851 -0.125 46.4375 C1.54644656 41.25891413 1.43001951 36.23045178 0 31 C-2.06643295 27.58197573 -4.40020458 24.79989771 -8 23 C-13.98780251 22.50101646 -17.39656541 22.71773526 -22 27 Z " fill="#FFFFFF" transform="translate(1851,279)"/>
<path d="M0 0 C5.135625 -0.061875 10.27125 -0.12375 15.5625 -0.1875 C17.16939697 -0.21481201 18.77629395 -0.24212402 20.43188477 -0.27026367 C21.71377686 -0.27775635 22.99566895 -0.28524902 24.31640625 -0.29296875 C25.62037354 -0.3086792 26.92434082 -0.32438965 28.26782227 -0.34057617 C33.42515296 0.13005092 37.2832854 1.56167155 41.3125 4.9375 C44.79397768 9.19263939 45.2947227 12.36403785 45.3125 17.875 C45.32925781 19.06867188 45.34601562 20.26234375 45.36328125 21.4921875 C44.83539119 26.58944852 43.25203441 29.84186817 39.5 33.3125 C35.64310225 35.91590598 32.78385456 36.12073023 28.23828125 36.09765625 C26.72681519 36.09390991 26.72681519 36.09390991 25.18481445 36.09008789 C23.2680188 36.07643188 23.2680188 36.07643188 21.3125 36.0625 C15.2178125 36.0315625 15.2178125 36.0315625 9 36 C9 44.25 9 52.5 9 61 C6.03 61 3.06 61 0 61 C0 40.87 0 20.74 0 0 Z M9 8 C9 14.93 9 21.86 9 29 C11.825625 29.061875 14.65125 29.12375 17.5625 29.1875 C18.43849854 29.21481201 19.31449707 29.24212402 20.21704102 29.27026367 C25.57978718 29.32658613 29.28040068 28.60580194 34 26 C36.68209911 21.97685134 36.68843415 18.72780081 36 14 C33.88608123 10.50109996 32.88263941 9.29421314 29 8 C27.44578271 7.91893314 25.88832973 7.89243102 24.33203125 7.90234375 C23.1251062 7.90609009 23.1251062 7.90609009 21.89379883 7.90991211 C20.87697021 7.91901611 19.8601416 7.92812012 18.8125 7.9375 C15.574375 7.958125 12.33625 7.97875 9 8 Z " fill="#FFFFFF" transform="translate(2160,279)"/>
<path d="M0 0 C0.74701172 -0.02900391 1.49402344 -0.05800781 2.26367188 -0.08789062 C7.53111511 -0.1480107 10.56210609 0.74880874 14.6875 4.3125 C17.08018544 7.86213298 16.91841743 11.06424352 16.8828125 15.265625 C16.8799826 15.92584656 16.87715271 16.58606812 16.87423706 17.26629639 C16.86308415 19.36521897 16.83798946 21.46370742 16.8125 23.5625 C16.80246384 24.98957715 16.7933391 26.41666102 16.78515625 27.84375 C16.76316111 31.33347328 16.72866536 34.82294423 16.6875 38.3125 C18.0075 38.3125 19.3275 38.3125 20.6875 38.3125 C20.6875 40.6225 20.6875 42.9325 20.6875 45.3125 C13.42596154 46.78942308 13.42596154 46.78942308 9.6875 44.375 C9.0275 43.694375 8.3675 43.01375 7.6875 42.3125 C6.78 42.786875 5.8725 43.26125 4.9375 43.75 C-1.25086689 46.72517639 -6.94386319 47.30115657 -13.5625 45.0625 C-16.91339656 43.85617724 -18.53159093 42.41836251 -20.3125 39.3125 C-21.2115207 33.86593291 -21.37204396 28.93492669 -18.3125 24.25 C-11.8031657 20.04605493 -5.52389424 18.85820601 2.05078125 17.83984375 C4.90386731 17.4432411 4.90386731 17.4432411 7.6875 15.3125 C7.41715366 12.87532742 7.41715366 12.87532742 6.6875 10.3125 C3.55306646 8.22287764 2.81746308 8.05882446 -0.75 8.125 C-1.51183594 8.13144531 -2.27367188 8.13789063 -3.05859375 8.14453125 C-5.3104818 8.3123496 -7.19756242 8.51075896 -9.3125 9.3125 C-10.6170656 12.30865946 -10.6170656 12.30865946 -11.3125 15.3125 C-13.9525 15.3125 -16.5925 15.3125 -19.3125 15.3125 C-18.2030612 6.53263089 -18.2030612 6.53263089 -14.375 3.3125 C-9.60092405 0.19473611 -5.54167811 0.07062461 0 0 Z M-0.125 24.5625 C-0.85009766 24.67207031 -1.57519531 24.78164063 -2.32226562 24.89453125 C-6.82558729 25.67735935 -9.61446443 26.52105001 -12.3125 30.3125 C-12.40142339 33.44612718 -12.40142339 33.44612718 -11.3125 36.3125 C-7.26351194 39.01182537 -4.06317841 38.84778771 0.6875 38.3125 C4.87209301 36.58408115 6.89468739 34.46427657 8.6875 30.3125 C8.93849867 26.60356092 8.93849867 26.60356092 8.6875 23.3125 C5.75829603 23.3125 2.76360233 24.07222104 -0.125 24.5625 Z " fill="#FFFFFF" transform="translate(2440.3125,294.6875)"/>
<path d="M0 0 C0.74185547 -0.01160156 1.48371094 -0.02320313 2.24804688 -0.03515625 C6.79233183 -0.0108769 9.76633299 0.44072184 13.4375 3.375 C16.75672612 6.83981509 16.84944905 9.6189951 16.94921875 14.328125 C16.96716995 14.98834656 16.98512115 15.64856812 17.00361633 16.32879639 C17.05758809 18.42746689 17.09157043 20.52591177 17.125 22.625 C17.15818495 24.05211464 17.19267571 25.47919956 17.22851562 26.90625 C17.3133047 30.39561652 17.38017888 33.88506191 17.4375 37.375 C18.7575 37.705 20.0775 38.035 21.4375 38.375 C21.4375 40.685 21.4375 42.995 21.4375 45.375 C16.24060881 46.52007772 16.24060881 46.52007772 13.4375 46.375 C10.4375 43.9375 10.4375 43.9375 8.4375 41.375 C7.550625 42.014375 6.66375 42.65375 5.75 43.3125 C0.68638306 46.46531809 -3.63959379 46.78347629 -9.5625 46.375 C-14.63783646 44.74056961 -17.97462665 43.13668697 -20.5625 38.375 C-21.25480951 34.04806555 -21.06407597 30.52862472 -19.3125 26.5 C-15.09545495 21.37930244 -10.78280855 20.52514692 -4.5 19.3125 C-2.88293812 18.99420086 -1.26698521 18.67020178 0.34765625 18.33984375 C1.06058838 18.2018335 1.77352051 18.06382324 2.50805664 17.92163086 C4.73757328 17.39659629 4.73757328 17.39659629 7.4375 15.375 C7.6877157 12.29134129 7.6877157 12.29134129 7.4375 9.375 C4.54829306 8.41193102 2.51502119 8.1794064 -0.5 8.125 C-1.35464844 8.09921875 -2.20929688 8.0734375 -3.08984375 8.046875 C-6.06520542 8.44170972 -7.39012942 9.33993501 -9.5625 11.375 C-10.35873822 13.46915804 -10.35873822 13.46915804 -10.5625 15.375 C-13.2025 15.375 -15.8425 15.375 -18.5625 15.375 C-18.92207762 11.59943495 -18.67977831 9.60504592 -16.9375 6.1875 C-12.13987302 0.50609962 -7.00334101 -0.11009619 0 0 Z M0.125 24.6875 C-0.89110352 24.86442383 -0.89110352 24.86442383 -1.92773438 25.04492188 C-5.80850545 25.7846583 -8.75802324 26.50678513 -11.5625 29.375 C-12.0188339 32.50414674 -12.25577292 34.43144006 -10.33984375 37.0390625 C-6.92120449 39.60867706 -2.63535467 38.85645566 1.4375 38.375 C4.39483901 37.14277541 5.80860863 36.18357462 7.75 33.6875 C8.78470816 30.207118 8.55828138 26.99844134 8.4375 23.375 C5.67411966 23.375 2.8419118 24.17664942 0.125 24.6875 Z " fill="#FFFFFF" transform="translate(1915.5625,294.625)"/>
<path d="M0 0 C6.43489092 5.5574058 8.80267402 10.93390133 9.75 19.375 C9.75 20.695 9.75 22.015 9.75 23.375 C-1.14 23.375 -12.03 23.375 -23.25 23.375 C-20.59156835 31.08679549 -20.59156835 31.08679549 -15.25 35.375 C-12.80261739 35.84610255 -12.80261739 35.84610255 -10.25 35.75 C-9.404375 35.75773437 -8.55875 35.76546875 -7.6875 35.7734375 C-4.77244137 35.29693753 -3.41366185 34.35197421 -1.25 32.375 C0.0016467 30.29165365 0.0016467 30.29165365 0.75 28.375 C3.39 28.375 6.03 28.375 8.75 28.375 C8.46637301 34.18935334 5.93303812 37.57401923 1.75 41.375 C-3.40411552 44.5426335 -9.92481518 44.98793729 -15.79296875 43.90625 C-22.00579046 41.99141048 -26.40615524 39.40392971 -29.5625 33.5625 C-32.42019074 26.51741753 -32.49880608 18.16332154 -30.58984375 10.84375 C-28.14624207 5.34300162 -23.85003225 0.9693 -18.3359375 -1.47265625 C-12.00602654 -3.37667329 -5.89635661 -2.9481783 0 0 Z M-21.25 10.375 C-21.91 12.355 -22.57 14.335 -23.25 16.375 C-15.33 16.375 -7.41 16.375 0.75 16.375 C-1.18331462 10.3745808 -1.18331462 10.3745808 -5.25 6.375 C-11.65922073 3.17038963 -16.7456898 5.44170787 -21.25 10.375 Z " fill="#FFFFFF" transform="translate(2078.25,386.625)"/>
<path d="M0 0 C6.05853739 2.82035361 9.48483534 7.16950239 11.75 13.375 C13.20498636 17.63160903 13 20.07328477 13 25 C2.44 25 -8.12 25 -19 25 C-17.72914574 32.44446039 -17.72914574 32.44446039 -15 35.5 C-10.65955216 37.67022392 -6.75717665 37.92956325 -2 37 C0.82424288 34.80977082 2.41508603 33.16982793 4 30 C6.64 30 9.28 30 12 30 C11.52301595 35.00833254 10.20153104 38.10624603 7 42 C0.73822048 45.78315846 -4.93303441 46.89680807 -12.20703125 45.609375 C-18.66374513 43.89345104 -22.36492534 40.54555425 -26 35 C-29.21117659 27.6003322 -29.07271653 19.1673658 -26.375 11.625 C-21.27011843 0.22047734 -11.44111774 -1.07759365 0 0 Z M-17 11 C-18.78229676 13.67344514 -19 14.73770359 -19 18 C-11.41 18 -3.82 18 4 18 C2.91910497 12.59552487 1.98080159 11.49533798 -2 8 C-7.68261274 5.15869363 -12.44816766 7.18916362 -17 11 Z " fill="#FFFFFF" transform="translate(2285,295)"/>
<path d="M0 0 C5.84475953 4.89328705 8.21725152 9.84306639 9.6875 17.25 C9.6875 19.23 9.6875 21.21 9.6875 23.25 C-1.2025 23.25 -12.0925 23.25 -23.3125 23.25 C-20.64696895 30.96734934 -20.64696895 30.96734934 -15.3125 35.25 C-11.91114398 35.91367922 -8.72244532 35.8569482 -5.3125 35.25 C-2.48825712 33.05977082 -0.89741397 31.41982793 0.6875 28.25 C3.3275 28.25 5.9675 28.25 8.6875 28.25 C8.44359306 33.2500922 6.87129702 36.13371744 3.54296875 39.69921875 C-1.30932403 43.75471398 -6.69577497 44.52387147 -12.875 44.25 C-18.92610263 43.45335624 -23.86188298 41.43437735 -27.65625 36.50390625 C-32.05175257 29.20423234 -32.61616983 20.35957131 -30.8515625 12.08984375 C-28.77816086 6.73558894 -25.20528443 1.68655281 -20.015625 -0.890625 C-12.91680628 -3.31568729 -6.69400234 -3.53645407 0 0 Z M-21.3125 10.25 C-21.6425 12.23 -21.9725 14.21 -22.3125 16.25 C-14.7225 16.25 -7.1325 16.25 0.6875 16.25 C-0.39339503 10.84552487 -1.33169841 9.74533798 -5.3125 6.25 C-11.82105593 2.99572204 -16.89267053 5.29116694 -21.3125 10.25 Z " fill="#FFFFFF" transform="translate(2033.3125,386.75)"/>
<path d="M0 0 C3.52723006 1.7180043 5.02577293 4.01029048 6.4375 7.5078125 C7.09708404 9.60110317 7.5 11.18723552 7.5 13.3828125 C4.44975136 13.67057181 1.53819925 13.83692057 -1.5 13.3828125 C-3.4375 10.9453125 -3.4375 10.9453125 -4.5 8.3828125 C-6.85270593 7.20645953 -8.320752 7.24921891 -10.9375 7.2578125 C-11.71996094 7.25523437 -12.50242187 7.25265625 -13.30859375 7.25 C-15.67895347 7.29898702 -15.67895347 7.29898702 -18.5 8.3828125 C-18.46906827 10.79866824 -18.46906827 10.79866824 -17.5 13.3828125 C-12.03901018 16.66271108 -6.21086161 17.74956851 -0.05859375 19.125 C4.01335638 20.56426229 5.8824111 21.96663716 8.5 25.3828125 C9.56870634 29.7016434 9.53128251 34.32836781 7.5078125 38.359375 C4.44254325 42.22427971 1.35794938 44.05201294 -3.41796875 44.90234375 C-12.08561797 45.67901483 -18.35838438 45.40274056 -25.5 40.1953125 C-28.15774896 36.45785303 -28.26904214 33.92498384 -28.5 29.3828125 C-25.86 29.3828125 -23.22 29.3828125 -20.5 29.3828125 C-20.04625 30.3521875 -19.5925 31.3215625 -19.125 32.3203125 C-17.84213779 35.45360832 -17.84213779 35.45360832 -15.5 36.3828125 C-13.5246012 36.53061212 -11.54321076 36.60400216 -9.5625 36.6328125 C-8.50160156 36.65859375 -7.44070312 36.684375 -6.34765625 36.7109375 C-3.5329287 36.59787495 -3.5329287 36.59787495 -1.62109375 35.1796875 C-0.14687796 32.81683292 -0.27845532 31.11519687 -0.5 28.3828125 C-1.17804687 28.20105469 -1.85609375 28.01929688 -2.5546875 27.83203125 C-4.50666293 27.30483567 -6.45709376 26.77190005 -8.40625 26.234375 C-10.36129578 25.69624371 -12.31933518 25.16877269 -14.28125 24.65625 C-19.16917556 23.31648727 -22.81959612 22.06321638 -26.5 18.3828125 C-28.24451903 14.89377444 -28.07578672 11.18940249 -27.5 7.3828125 C-22.25518916 -2.58232809 -9.73652742 -2.40370521 0 0 Z " fill="#FFFFFF" transform="translate(2096.5,295.6171875)"/>
<path d="M0 0 C0.70318359 -0.01611328 1.40636719 -0.03222656 2.13085938 -0.04882812 C6.65167829 -0.05306507 9.45727349 0.57568571 13.0625 3.3125 C15.94769927 6.19769927 17.00220883 7.51364206 17.3125 11.625 C17.23 12.511875 17.1475 13.39875 17.0625 14.3125 C11.70336809 14.75177311 11.70336809 14.75177311 9.0625 14.3125 C7.1875 11.875 7.1875 11.875 6.0625 9.3125 C3.7228331 8.14266655 2.22858473 8.1463759 -0.375 8.125 C-1.15746094 8.11082031 -1.93992187 8.09664063 -2.74609375 8.08203125 C-5.22955987 8.17163936 -5.22955987 8.17163936 -7.9375 10.3125 C-7.89794102 12.23559422 -7.89794102 12.23559422 -6.9375 14.3125 C-3.18522544 16.84782065 0.71198368 17.74478753 5.0625 18.75 C11.34403152 20.23855151 15.37625094 21.7831264 19.0625 27.3125 C19.72350598 31.35507341 19.98178345 35.51422043 18.08203125 39.23046875 C14.96071645 43.1201072 11.9832598 44.97051733 7.14453125 45.83203125 C0.22683101 46.45189686 -5.7109394 46.72413633 -11.9375 43.3125 C-14.54526117 41.08503733 -16.40910239 39.36929522 -17.9375 36.3125 C-17.977492 34.31289988 -17.98096799 32.31202758 -17.9375 30.3125 C-15.2975 30.3125 -12.6575 30.3125 -9.9375 30.3125 C-9.48375 31.281875 -9.03 32.25125 -8.5625 33.25 C-7.27963779 36.38329582 -7.27963779 36.38329582 -4.9375 37.3125 C-2.9621012 37.46029962 -0.98071076 37.53368966 1 37.5625 C2.06089844 37.58828125 3.12179688 37.6140625 4.21484375 37.640625 C7.0295713 37.52756245 7.0295713 37.52756245 8.94140625 36.109375 C10.41562204 33.74652042 10.28404468 32.04488437 10.0625 29.3125 C9.38445313 29.13074219 8.70640625 28.94898438 8.0078125 28.76171875 C6.05583707 28.23452317 4.10540624 27.70158755 2.15625 27.1640625 C0.20120422 26.62593121 -1.75683518 26.09846019 -3.71875 25.5859375 C-8.60667556 24.24617477 -12.25709612 22.99290388 -15.9375 19.3125 C-17.79712086 15.59325827 -17.51148707 11.36229769 -16.9375 7.3125 C-12.22547485 1.0297998 -7.55084922 -0.0344159 0 0 Z " fill="#FFFFFF" transform="translate(2571.9375,294.6875)"/>
<path d="M0 0 C4.06771726 5.52047342 4.1243167 10.79650855 4.09765625 17.48828125 C4.0962413 18.19147995 4.09482635 18.89467865 4.09336853 19.6191864 C4.08780109 21.85033544 4.07525475 24.08138164 4.0625 26.3125 C4.05748079 27.83137875 4.05291862 29.35025909 4.04882812 30.86914062 C4.03784236 34.57946012 4.02060034 38.28972001 4 42 C1.03 42 -1.94 42 -5 42 C-5.33 30.12 -5.66 18.24 -6 6 C-10.84283806 4.38572065 -15.19228677 4.25333584 -19.875 6.1875 C-23.20944405 9.03158463 -23.8938704 11.92497057 -24.31884766 16.22973633 C-24.35026855 17.41849365 -24.38168945 18.60725098 -24.4140625 19.83203125 C-24.47207031 21.77045898 -24.47207031 21.77045898 -24.53125 23.74804688 C-24.56270014 25.10285995 -24.59394761 26.45767775 -24.625 27.8125 C-24.6632175 29.18687272 -24.7022714 30.56122244 -24.7421875 31.93554688 C-24.83635404 35.29022989 -24.921982 38.64490893 -25 42 C-27.64 42 -30.28 42 -33 42 C-33 27.15 -33 12.3 -33 -3 C-30.69 -3 -28.38 -3 -26 -3 C-25.67 -1.35 -25.34 0.3 -25 2 C-24.113125 1.195625 -23.22625 0.39125 -22.3125 -0.4375 C-16.04732446 -5.58077201 -6.29462587 -5.18380954 0 0 Z " fill="#FFFFFF" transform="translate(1878,388)"/>
<path d="M0 0 C2.97 0 5.94 0 9 0 C9.32798584 0.90355225 9.65597168 1.80710449 9.99389648 2.73803711 C11.20804209 6.08053673 12.42584524 9.42169371 13.64477539 12.76245117 C14.17247265 14.21032763 14.69916861 15.65856943 15.22485352 17.10717773 C15.97932068 19.18569567 16.73734369 21.26288606 17.49609375 23.33984375 C17.73154404 23.99089584 17.96699432 24.64194794 18.20957947 25.31272888 C19.19210434 28.39660126 19.19210434 28.39660126 21 31 C24.63 20.77 28.26 10.54 32 0 C34.97 0 37.94 0 41 0 C39.08651637 6.6825687 36.9009457 13.18637424 34.3828125 19.6640625 C34.04377899 20.54097748 33.70474548 21.41789246 33.35543823 22.32138062 C32.64314551 24.15906106 31.92877652 25.99593801 31.21240234 27.83203125 C30.12629194 30.62168169 29.05317617 33.4161104 27.98046875 36.2109375 C27.28203961 38.00811956 26.58284652 39.80500496 25.8828125 41.6015625 C25.41066818 42.83780869 25.41066818 42.83780869 24.9289856 44.09902954 C19.69355643 57.39500422 19.69355643 57.39500422 14.97488403 60.20669556 C11.60479879 61.56044775 8.6028268 61.1771882 5 61 C4 60 4 60 3.9375 56.4375 C3.958125 55.303125 3.97875 54.16875 4 53 C5.3921875 53.0928125 5.3921875 53.0928125 6.8125 53.1875 C9.91151295 53.27811507 9.91151295 53.27811507 11.75 51.8125 C14.11363833 48.38522442 15.08630061 46.06594025 14.74438477 41.84277344 C13.90860069 37.52816493 12.52843835 33.80406345 10.83984375 29.765625 C10.53051407 29.00578308 10.22118439 28.24594116 9.90248108 27.46307373 C8.92159135 25.05559149 7.9304743 22.65252048 6.9375 20.25 C5.94192705 17.83283253 4.9487348 15.41479057 3.96180725 12.99407959 C3.34943511 11.4927724 2.73196756 9.99353123 2.10887146 8.49664307 C0.88792861 5.50929061 0 3.26017551 0 0 Z " fill="#FFFFFF" transform="translate(1774,296)"/>
<path d="M0 0 C4.58676841 4.92238562 4.84881577 9.37270425 4.7578125 15.89453125 C4.7549826 16.66431808 4.75215271 17.43410492 4.74923706 18.22721863 C4.73809157 20.67247425 4.71299781 23.11735612 4.6875 25.5625 C4.6774629 27.22590615 4.66833833 28.88931807 4.66015625 30.55273438 C4.63817073 34.61863237 4.60368014 38.68425294 4.5625 42.75 C1.9225 42.75 -0.7175 42.75 -3.4375 42.75 C-3.4468457 41.7712793 -3.45619141 40.79255859 -3.46582031 39.78417969 C-3.50575458 36.14586209 -3.57152134 32.50838709 -3.64501953 28.87060547 C-3.67320954 27.29747356 -3.69443398 25.72420053 -3.70849609 24.15087891 C-3.72995442 21.88631044 -3.77661348 19.62343496 -3.828125 17.359375 C-3.82935364 16.65818542 -3.83058228 15.95699585 -3.83184814 15.23455811 C-3.93139515 11.90069933 -4.23719444 10.02322334 -6.22949219 7.30566406 C-8.95255422 5.38711571 -11.1719826 5.18279232 -14.47265625 5.3671875 C-17.69220825 5.99445608 -19.27690035 7.33521216 -21.4375 9.75 C-23.14813409 13.98847892 -23.72151076 17.69037664 -23.8515625 22.2421875 C-23.90957031 24.04042969 -23.90957031 24.04042969 -23.96875 25.875 C-24.01515625 27.73125 -24.01515625 27.73125 -24.0625 29.625 C-24.12050781 31.51605469 -24.12050781 31.51605469 -24.1796875 33.4453125 C-24.27366989 36.54673137 -24.35933411 39.64814886 -24.4375 42.75 C-27.0775 42.75 -29.7175 42.75 -32.4375 42.75 C-32.4375 27.9 -32.4375 13.05 -32.4375 -2.25 C-29.7975 -2.25 -27.1575 -2.25 -24.4375 -2.25 C-24.1075 -0.93 -23.7775 0.39 -23.4375 1.75 C-22.550625 1.110625 -21.66375 0.47125 -20.75 -0.1875 C-14.45358808 -4.10790742 -6.13514214 -4.78180196 0 0 Z " fill="#FFFFFF" transform="translate(2172.4375,387.25)"/>
<path d="M0 0 C2.60505304 2.22382577 3.4426504 3.04165316 4.5625 6.1875 C4.7313051 9.05028931 4.79524535 11.81185954 4.7578125 14.671875 C4.7549826 15.48746887 4.75215271 16.30306274 4.74923706 17.14337158 C4.73806558 19.74156528 4.71296675 22.33941095 4.6875 24.9375 C4.67746627 26.70181793 4.66834111 28.46614128 4.66015625 30.23046875 C4.63813619 34.54961273 4.60362733 38.86849741 4.5625 43.1875 C1.9225 43.1875 -0.7175 43.1875 -3.4375 43.1875 C-3.45208252 42.17324951 -3.46666504 41.15899902 -3.48168945 40.11401367 C-3.53966253 36.35095971 -3.61689459 32.58850479 -3.69995117 28.82592773 C-3.73320536 27.19744591 -3.76123584 25.56884869 -3.78393555 23.94018555 C-3.81747357 21.59894639 -3.86978585 19.25876514 -3.92578125 16.91796875 C-3.93217117 16.18974411 -3.9385611 15.46151947 -3.94514465 14.71122742 C-4.02951696 11.81069583 -4.10795182 9.68821612 -5.72729492 7.2277832 C-8.75364338 5.38691656 -12.05405234 5.69848608 -15.4375 6.1875 C-18.25031002 7.41046088 -19.8527486 8.30276365 -21.54443359 10.86230469 C-22.75118137 14.0042035 -22.76608818 16.77863514 -22.8515625 20.140625 C-22.87092865 20.80084656 -22.8902948 21.46106812 -22.9102478 22.14129639 C-22.96979349 24.23990153 -23.01632722 26.33856228 -23.0625 28.4375 C-23.10070294 29.8646066 -23.13975602 31.29169072 -23.1796875 32.71875 C-23.2754733 36.20812691 -23.35959642 39.69767286 -23.4375 43.1875 C-26.0775 43.1875 -28.7175 43.1875 -31.4375 43.1875 C-31.4375 28.3375 -31.4375 13.4875 -31.4375 -1.8125 C-29.1275 -1.8125 -26.8175 -1.8125 -24.4375 -1.8125 C-24.1075 -0.1625 -23.7775 1.4875 -23.4375 3.1875 C-22.921875 2.56875 -22.40625 1.95 -21.875 1.3125 C-15.49342872 -4.25092112 -7.12063233 -3.75451523 0 0 Z " fill="#FFFFFF" transform="translate(1989.4375,386.8125)"/>
<path d="M0 0 C3.60783257 1.82157701 5.93758947 3.49390209 8 7 C9.12238366 11.2207949 9.12980746 15.3712604 9.09765625 19.70703125 C9.0962413 20.43242599 9.09482635 21.15782074 9.09336853 21.90519714 C9.08779931 24.2076745 9.07525261 26.51005235 9.0625 28.8125 C9.05748102 30.37955588 9.05291881 31.9466133 9.04882812 33.51367188 C9.03783998 37.34248589 9.02059673 41.17122611 9 45 C6.36 45 3.72 45 1 45 C0.97494385 44.08710205 0.9498877 43.1742041 0.92407227 42.23364258 C0.82868393 38.83232369 0.72946598 35.43116061 0.62768555 32.0300293 C0.58449295 30.56067232 0.54280744 29.0912702 0.50268555 27.62182617 C0.44460118 25.50425645 0.38101902 23.38691063 0.31640625 21.26953125 C0.27974854 19.99698486 0.24309082 18.72443848 0.20532227 17.41333008 C0.0299208 14.49741104 -0.33392883 11.83732095 -1 9 C-5.41215071 7.5292831 -9.83655882 7.41528617 -14.3125 8.625 C-17.70683488 11.39075435 -18.88458476 15.10756842 -19.43237305 19.34326172 C-19.45855713 20.52678223 -19.48474121 21.71030273 -19.51171875 22.9296875 C-19.54716797 24.21875 -19.58261719 25.5078125 -19.61914062 26.8359375 C-19.64223493 28.18228642 -19.66501755 29.52864072 -19.6875 30.875 C-19.72070883 32.24482371 -19.75520175 33.61461692 -19.79101562 34.984375 C-19.87330159 38.3228341 -19.94251928 41.66103685 -20 45 C-22.64 45 -25.28 45 -28 45 C-28 30.48 -28 15.96 -28 1 C-25.36 1 -22.72 1 -20 1 C-19.67 1.99 -19.34 2.98 -19 4 C-18.278125 3.34 -17.55625 2.68 -16.8125 2 C-11.91668024 -1.29120897 -5.6317368 -0.78238146 0 0 Z " fill="#FFFFFF" transform="translate(2241,295)"/>
<path d="M0 0 C2.64 0 5.28 0 8 0 C8.01981934 0.91813477 8.03963867 1.83626953 8.06005859 2.78222656 C8.13826955 6.19671825 8.22496584 9.61077702 8.31738281 13.02490234 C8.35560666 14.50105536 8.39047103 15.97729943 8.421875 17.45361328 C8.46766986 19.57878094 8.52563837 21.70332542 8.5859375 23.828125 C8.6173584 25.1059082 8.6487793 26.38369141 8.68115234 27.70019531 C8.97511752 30.74248726 9.29775581 32.499947 11 35 C14.47531087 36.73765543 18.2088001 36.59585352 22 36 C25.28175318 33.47031526 26.69243777 31.92268669 28 28 C28.15070797 25.86338742 28.2485966 23.72287876 28.31640625 21.58203125 C28.35830078 20.32841797 28.40019531 19.07480469 28.44335938 17.78320312 C28.48267578 16.47287109 28.52199219 15.16253906 28.5625 13.8125 C28.60570992 12.47720022 28.649325 11.14191348 28.69335938 9.80664062 C28.79956502 6.53786703 28.90160997 3.26901667 29 0 C31.64 0 34.28 0 37 0 C37 14.52 37 29.04 37 44 C34.36 44 31.72 44 29 44 C28.67 42.68 28.34 41.36 28 40 C27.2575 40.639375 26.515 41.27875 25.75 41.9375 C21.25679257 45.30740557 17.58576644 45.37869603 12 45 C6.84551313 43.3400805 3.91631728 41.59880801 1 37 C-0.33491907 33.22347617 -0.12675373 29.34368153 -0.09765625 25.390625 C-0.0962413 24.66381531 -0.09482635 23.93700562 -0.09336853 23.18817139 C-0.08778792 20.87540506 -0.07523904 18.56273688 -0.0625 16.25 C-0.05748249 14.67838682 -0.05292002 13.10677211 -0.04882812 11.53515625 C-0.03782485 7.69006657 -0.02057361 3.8450499 0 0 Z " fill="#FFFFFF" transform="translate(2304,296)"/>
<path d="M0 0 C2.64 0 5.28 0 8 0 C8.01981934 0.91813477 8.03963867 1.83626953 8.06005859 2.78222656 C8.13826955 6.19671825 8.22496584 9.61077702 8.31738281 13.02490234 C8.35560666 14.50105536 8.39047103 15.97729943 8.421875 17.45361328 C8.46766986 19.57878094 8.52563837 21.70332542 8.5859375 23.828125 C8.6173584 25.1059082 8.6487793 26.38369141 8.68115234 27.70019531 C8.97511752 30.74248726 9.29775581 32.499947 11 35 C14.47531087 36.73765543 18.2088001 36.59585352 22 36 C25.28175318 33.47031526 26.69243777 31.92268669 28 28 C28.15070797 25.86338742 28.2485966 23.72287876 28.31640625 21.58203125 C28.35830078 20.32841797 28.40019531 19.07480469 28.44335938 17.78320312 C28.48267578 16.47287109 28.52199219 15.16253906 28.5625 13.8125 C28.60570992 12.47720022 28.649325 11.14191348 28.69335938 9.80664062 C28.79956502 6.53786703 28.90160997 3.26901667 29 0 C31.64 0 34.28 0 37 0 C37 14.52 37 29.04 37 44 C34.36 44 31.72 44 29 44 C28.67 42.68 28.34 41.36 28 40 C27.2575 40.639375 26.515 41.27875 25.75 41.9375 C21.25679257 45.30740557 17.58576644 45.37869603 12 45 C6.84551313 43.3400805 3.91631728 41.59880801 1 37 C-0.33491907 33.22347617 -0.12675373 29.34368153 -0.09765625 25.390625 C-0.0962413 24.66381531 -0.09482635 23.93700562 -0.09336853 23.18817139 C-0.08778792 20.87540506 -0.07523904 18.56273688 -0.0625 16.25 C-0.05748249 14.67838682 -0.05292002 13.10677211 -0.04882812 11.53515625 C-0.03782485 7.69006657 -0.02057361 3.8450499 0 0 Z " fill="#FFFFFF" transform="translate(1942,296)"/>
<path d="M0 0 C3.26430949 1.76845889 5.87835583 3.94077001 7.57421875 7.23828125 C8.26171875 10.98828125 8.26171875 10.98828125 8.57421875 14.23828125 C3.30006731 14.76569639 3.30006731 14.76569639 0.57421875 14.23828125 C-1.80078125 11.30078125 -1.80078125 11.30078125 -3.42578125 8.23828125 C-6.62432425 6.63900975 -9.94679754 6.87700217 -13.42578125 7.23828125 C-16.78391312 8.581534 -18.12026367 9.8168777 -20.23828125 12.73828125 C-22.29173531 18.79056691 -22.49066435 25.2881404 -20.11328125 31.30078125 C-18.59623621 34.44615316 -18.59623621 34.44615316 -15.42578125 36.23828125 C-10.89408339 36.88890899 -6.78746606 37.1574185 -2.92578125 34.55078125 C-1.38450784 32.17465142 -0.32059682 29.92272797 0.57421875 27.23828125 C3.54421875 27.23828125 6.51421875 27.23828125 9.57421875 27.23828125 C8.44790506 33.65826927 6.65598782 37.98848322 1.57421875 42.23828125 C-4.27635318 45.64708555 -10.46849052 46.25638974 -16.9765625 44.58203125 C-22.15049934 42.80373 -25.66845087 40.90060616 -28.53125 36.15625 C-32.46341689 27.72527209 -32.26914887 19.29129442 -29.40234375 10.5703125 C-24.47206484 -1.20319355 -11.4435607 -3.59338863 0 0 Z " fill="#FFFFFF" transform="translate(2540.42578125,295.76171875)"/>
<path d="M0 0 C4.11220059 2.13655639 6.53785391 5.24841241 8.609375 9.30859375 C8.859375 12.18359375 8.859375 12.18359375 8.609375 14.30859375 C3.33522356 14.83600889 3.33522356 14.83600889 0.609375 14.30859375 C-1.765625 11.37109375 -1.765625 11.37109375 -3.390625 8.30859375 C-6.59173571 6.7080384 -9.90944763 6.95378144 -13.390625 7.30859375 C-17.11757573 8.71655291 -18.16616761 9.92933817 -20.203125 13.37109375 C-22.36376593 19.198651 -22.32476004 25.12894533 -19.890625 30.80859375 C-19.395625 31.63359375 -18.900625 32.45859375 -18.390625 33.30859375 C-18.390625 33.96859375 -18.390625 34.62859375 -18.390625 35.30859375 C-14.04511009 36.75709872 -9.92722508 36.95978036 -5.390625 36.30859375 C-1.48765146 33.44110299 -0.57130486 32.03131318 0.609375 27.30859375 C3.579375 27.30859375 6.549375 27.30859375 9.609375 27.30859375 C7.1466184 38.48571985 7.1466184 38.48571985 3 41.46484375 C-3.14966355 45.14412963 -8.54093925 46.36504331 -15.66796875 44.8125 C-21.98774504 42.95126805 -25.39309268 40.23355179 -29.140625 34.74609375 C-31.93978338 27.04840819 -32.52197802 18.00114134 -29.390625 10.30859375 C-23.08588105 -0.81742498 -12.23184921 -3.53764266 0 0 Z " fill="#FFFFFF" transform="translate(2054.390625,295.69140625)"/>
<path d="M0 0 C2.64 0 5.28 0 8 0 C8 4.29 8 8.58 8 13 C10.64 13 13.28 13 16 13 C16 15.31 16 17.62 16 20 C13.36 20 10.72 20 8 20 C8 29.57 8 39.14 8 49 C10.64 49 13.28 49 16 49 C16 51.64 16 54.28 16 57 C5.1005291 57.38095238 5.1005291 57.38095238 1 55 C-0.50606515 51.98786971 -0.12160331 48.88717378 -0.09765625 45.5859375 C-0.0962413 44.85629791 -0.09482635 44.12665833 -0.09336853 43.37490845 C-0.08776531 41.04156415 -0.07521235 38.70831536 -0.0625 36.375 C-0.05748541 34.79427222 -0.05292243 33.21354293 -0.04882812 31.6328125 C-0.03779484 27.75517146 -0.02052811 23.87760193 0 20 C-2.64 20 -5.28 20 -8 20 C-8 17.69 -8 15.38 -8 13 C-5.36 13 -2.72 13 0 13 C0 8.71 0 4.42 0 0 Z " fill="#FFFFFF" transform="translate(2470,283)"/>
<path d="M0 0 C0 2.64 0 5.28 0 8 C-1.01320313 8.22042969 -1.01320313 8.22042969 -2.046875 8.4453125 C-7.99183535 9.93327897 -7.99183535 9.93327897 -12.5625 13.875 C-14.64640928 18.40523757 -15.12283097 22.56953476 -15.31640625 27.51953125 C-15.35830078 28.54111328 -15.40019531 29.56269531 -15.44335938 30.61523438 C-15.50233398 32.19788086 -15.50233398 32.19788086 -15.5625 33.8125 C-15.60568359 34.88693359 -15.64886719 35.96136719 -15.69335938 37.06835938 C-15.79910983 39.71212082 -15.90120233 42.3559711 -16 45 C-18.64 45 -21.28 45 -24 45 C-24 30.48 -24 15.96 -24 1 C-21.36 1 -18.72 1 -16 1 C-15.67 2.65 -15.34 4.3 -15 6 C-14.21625 5.195625 -13.4325 4.39125 -12.625 3.5625 C-8.32182266 -0.63822074 -5.79413828 -0.09345384 0 0 Z " fill="#FFFFFF" transform="translate(1893,295)"/>
<path d="M0 0 C0 2.97 0 5.94 0 9 C-1.4025 9.4125 -2.805 9.825 -4.25 10.25 C-8.06563488 11.52187829 -10.52592545 12.70123393 -13 16 C-14.07955212 19.23865635 -14.20441741 21.79155838 -14.31640625 25.19921875 C-14.35830078 26.40771484 -14.40019531 27.61621094 -14.44335938 28.86132812 C-14.48267578 30.12396484 -14.52199219 31.38660156 -14.5625 32.6875 C-14.60568359 33.96173828 -14.64886719 35.23597656 -14.69335938 36.54882812 C-14.7995486 39.69910852 -14.90159533 42.84946839 -15 46 C-17.64 46 -20.28 46 -23 46 C-23 31.15 -23 16.3 -23 1 C-20.69 1 -18.38 1 -16 1 C-15.67 2.98 -15.34 4.96 -15 7 C-14.32904297 6.36771484 -14.32904297 6.36771484 -13.64453125 5.72265625 C-9.06797544 1.57545749 -6.2623688 0 0 0 Z " fill="#FFFFFF" transform="translate(2117,384)"/>
<path d="M0 0 C2.64 0 5.28 0 8 0 C8 20.13 8 40.26 8 61 C5.36 61 2.72 61 0 61 C0 40.87 0 20.74 0 0 Z " fill="#FFFFFF" transform="translate(1989,279)"/>
<path d="M0 0 C2.64 0 5.28 0 8 0 C8 14.85 8 29.7 8 45 C5.36 45 2.72 45 0 45 C0 30.15 0 15.3 0 0 Z " fill="#FFFFFF" transform="translate(2122,385)"/>
<path d="M0 0 C2.64 0 5.28 0 8 0 C8 14.85 8 29.7 8 45 C5.36 45 2.72 45 0 45 C0 30.15 0 15.3 0 0 Z " fill="#FFFFFF" transform="translate(1940,385)"/>
<path d="M0 0 C2.64 0 5.28 0 8 0 C8 14.52 8 29.04 8 44 C5.36 44 2.72 44 0 44 C0 29.48 0 14.96 0 0 Z " fill="#FFFFFF" transform="translate(2494,296)"/>
<path d="M0 0 C2.64 0 5.28 0 8 0 C8 14.52 8 29.04 8 44 C5.36 44 2.72 44 0 44 C0 29.48 0 14.96 0 0 Z " fill="#FFFFFF" transform="translate(2008,296)"/>
<path d="M0 0 C3.3 0 6.6 0 10 0 C10.10883596 2.37625177 10.18766696 4.74743976 10.25 7.125 C10.30027344 8.12273437 10.30027344 8.12273437 10.3515625 9.140625 C10.45210335 14.26820838 9.28572178 17.10407274 6 21 C2.75 22.375 2.75 22.375 0 23 C-0.25 20.25 -0.25 20.25 0 17 C1.9375 14.75 1.9375 14.75 4 13 C4.33 12.34 4.66 11.68 5 11 C3.35 11 1.7 11 0 11 C0 7.37 0 3.74 0 0 Z " fill="#FFFFFF" transform="translate(2114,329)"/>
<path d="M0 0 C2.64 0 5.28 0 8 0 C8 3.3 8 6.6 8 10 C5.36 10 2.72 10 0 10 C0 6.7 0 3.4 0 0 Z " fill="#FFFFFF" transform="translate(2122,369)"/>
<path d="M0 0 C2.64 0 5.28 0 8 0 C8 3.3 8 6.6 8 10 C5.36 10 2.72 10 0 10 C0 6.7 0 3.4 0 0 Z " fill="#FFFFFF" transform="translate(1940,369)"/>
<path d="M0 0 C2.64 0 5.28 0 8 0 C8 3.3 8 6.6 8 10 C5.36 10 2.72 10 0 10 C0 6.7 0 3.4 0 0 Z " fill="#FFFFFF" transform="translate(2494,279)"/>
<path d="M0 0 C2.64 0 5.28 0 8 0 C8 3.3 8 6.6 8 10 C5.36 10 2.72 10 0 10 C0 6.7 0 3.4 0 0 Z " fill="#FFFFFF" transform="translate(2008,279)"/>
</svg>
