<?xml version="1.0" encoding="utf-8"?>
<!-- Generator: Adobe Illustrator 16.0.0, SVG Export Plug-In . SVG Version: 6.00 Build 0)  -->
<!DOCTYPE svg PUBLIC "-//W3C//DTD SVG 1.1//EN" "http://www.w3.org/Graphics/SVG/1.1/DTD/svg11.dtd">
<svg version="1.1" id="Layer_1" xmlns="http://www.w3.org/2000/svg" xmlns:xlink="http://www.w3.org/1999/xlink" x="0px" y="0px"
	 width="776.518px" height="179px" viewBox="-98.636 -24.452 776.518 179" enable-background="new -98.636 -24.452 776.518 179"
	 xml:space="preserve">
<g>
	<path fill="#FFFFFF" d="M-0.027,148.842H-42.49L-96.636-18.517h39.429l0.226,0.712l36.077,113.906L15.854-18.517h39.669
		L-0.027,148.842z M-41.003,146.799H-1.5L52.698-16.474H17.346L-19.93,99.755h-1.955l-0.226-0.712L-58.699-16.474h-35.129
		L-41.003,146.799z"/>
	<path fill="#FFFFFF" d="M105.605,148.842H67.213V-18.517h38.392V148.842z M69.254,146.799h34.31V-16.474h-34.31V146.799z"/>
	<path fill="#FFFFFF" d="M196.506,152.548c-9.151,0-18.157-1.143-26.768-3.392c-8.654-2.256-16.405-5.857-23.034-10.697
		c-6.659-4.854-12.021-11.125-15.935-18.645c-3.921-7.53-5.828-16.575-5.669-26.884l0.015-1.006h37.219v1.022
		c-0.001,5.371,0.972,9.966,2.892,13.651c1.922,3.701,4.506,6.735,7.681,9.02c3.196,2.307,7.015,4.045,11.351,5.169
		c4.375,1.13,8.963,1.702,13.637,1.702c3.187,0,6.642-0.269,10.271-0.799c3.586-0.524,6.995-1.544,10.13-3.037
		c3.076-1.462,5.682-3.51,7.746-6.084c2.002-2.505,3.017-5.757,3.017-9.667c0-4.168-1.337-7.585-3.976-10.149
		c-2.746-2.67-6.413-4.936-10.899-6.731c-4.564-1.826-9.814-3.446-15.603-4.818c-5.931-1.403-11.942-2.965-17.87-4.64
		c-6.156-1.535-12.273-3.456-18.146-5.702c-5.929-2.259-11.313-5.228-16.002-8.823c-4.724-3.62-8.596-8.212-11.506-13.643
		c-2.923-5.446-4.406-12.115-4.406-19.814c0-8.637,1.878-16.25,5.58-22.623c3.682-6.353,8.571-11.717,14.53-15.95
		c5.931-4.214,12.74-7.382,20.236-9.414c7.474-2.021,15.042-3.046,22.498-3.046c8.68,0,17.135,0.982,25.13,2.923
		c8.035,1.954,15.279,5.16,21.531,9.531C246.432-5.6,251.484,0.087,255.17,6.91c3.691,6.837,5.564,15.219,5.564,24.912v1.022
		h-37.172l-0.061-0.959c-0.299-4.768-1.309-8.751-3.002-11.846c-1.685-3.073-3.942-5.518-6.711-7.269
		c-2.808-1.771-6.081-3.048-9.731-3.797c-3.708-0.753-7.806-1.135-12.182-1.135c-2.839,0-5.729,0.301-8.588,0.902
		c-2.796,0.59-5.369,1.635-7.646,3.101c-2.261,1.458-4.146,3.308-5.607,5.498c-1.421,2.134-2.143,4.905-2.143,8.236
		c0,3.039,0.571,5.505,1.698,7.335c1.121,1.826,3.428,3.562,6.858,5.166c3.553,1.668,8.559,3.361,14.88,5.034
		c6.153,1.633,14.367,3.754,25.112,6.483c3.058,0.609,7.411,1.747,12.888,3.367c5.547,1.641,11.13,4.292,16.596,7.88
		c5.488,3.609,10.301,8.497,14.298,14.528c4.032,6.089,6.076,13.951,6.076,23.371c0,7.667-1.513,14.898-4.491,21.49
		c-2.987,6.603-7.486,12.375-13.368,17.157c-5.861,4.77-13.221,8.533-21.877,11.184C217.931,151.207,207.82,152.548,196.506,152.548
		z M127.132,93.966c-0.019,9.55,1.813,17.923,5.449,24.906c3.766,7.236,8.924,13.271,15.327,17.938
		c6.422,4.688,13.94,8.179,22.346,10.372c8.444,2.206,17.276,3.323,26.254,3.323c11.112,0,21.021-1.309,29.455-3.891
		c8.403-2.573,15.533-6.212,21.187-10.815c5.636-4.581,9.941-10.104,12.797-16.412c2.857-6.326,4.309-13.274,4.309-20.65
		c0-9.012-1.929-16.495-5.736-22.243c-3.843-5.799-8.458-10.493-13.715-13.947c-5.3-3.48-10.701-6.049-16.055-7.633
		c-5.419-1.603-9.712-2.725-12.759-3.332c-10.804-2.741-19.023-4.864-25.185-6.5c-6.438-1.704-11.561-3.438-15.221-5.157
		c-3.851-1.801-6.38-3.746-7.731-5.946c-1.329-2.155-2.002-4.984-2.002-8.405c0-3.74,0.837-6.892,2.486-9.367
		c1.616-2.425,3.701-4.471,6.2-6.083c2.486-1.601,5.29-2.739,8.333-3.383c2.999-0.627,6.03-0.946,9.01-0.946
		c4.511,0,8.746,0.396,12.59,1.178c3.894,0.797,7.396,2.167,10.414,4.071c3.065,1.938,5.559,4.634,7.412,8.016
		c1.721,3.145,2.789,7.09,3.179,11.742h33.216c-0.126-8.918-1.912-16.625-5.31-22.921c-3.536-6.541-8.376-11.993-14.39-16.204
		c-6.043-4.228-13.056-7.328-20.84-9.222c-7.839-1.902-16.133-2.864-24.651-2.864c-7.273,0-14.665,1-21.964,2.975
		c-7.263,1.971-13.853,5.035-19.586,9.11c-5.72,4.061-10.411,9.212-13.947,15.31c-3.52,6.061-5.303,13.327-5.303,21.599
		c0,7.36,1.4,13.701,4.164,18.85c2.773,5.173,6.457,9.544,10.949,12.989c4.532,3.476,9.744,6.347,15.488,8.537
		c5.798,2.217,11.836,4.112,17.943,5.636c5.93,1.675,11.914,3.228,17.816,4.627c5.887,1.394,11.232,3.045,15.891,4.909
		c4.733,1.895,8.625,4.304,11.563,7.162c3.047,2.967,4.593,6.872,4.593,11.613c0,4.385-1.166,8.064-3.465,10.94
		c-2.257,2.818-5.106,5.057-8.462,6.652c-3.319,1.58-6.923,2.661-10.71,3.215c-3.726,0.544-7.28,0.821-10.566,0.821
		c-4.846,0-9.607-0.597-14.147-1.77c-4.583-1.185-8.632-3.032-12.034-5.485c-3.437-2.477-6.229-5.75-8.298-9.733
		c-1.949-3.741-2.994-8.305-3.112-13.575h-33.177V93.966z"/>
	<path fill="#FFFFFF" d="M324.175,148.842h-38.392V-18.517h38.392V148.842z M287.824,146.799h34.311V-16.474h-34.311V146.799z"/>
	<path fill="#FFFFFF" d="M429.198,152.548c-12.739,0-24.367-2.249-34.558-6.687c-10.201-4.437-18.929-10.637-25.938-18.428
		c-7.005-7.783-12.446-17.05-16.179-27.547c-3.727-10.479-5.614-21.927-5.614-34.031c0-12.405,1.889-24.086,5.612-34.719
		c3.729-10.647,9.173-20.07,16.174-28.005c7.006-7.94,15.734-14.259,25.939-18.78c10.187-4.514,21.816-6.802,34.562-6.802
		c12.895,0,24.564,2.289,34.684,6.802c10.125,4.522,18.812,10.84,25.819,18.777c7.002,7.935,12.444,17.357,16.175,28.008
		c3.727,10.636,5.614,22.319,5.614,34.719c0,12.098-1.891,23.547-5.616,34.031c-3.729,10.498-9.173,19.765-16.181,27.547
		c-7.006,7.789-15.694,13.989-25.817,18.428C453.754,150.298,442.087,152.548,429.198,152.548z M429.198-20.412
		c-12.461,0-23.811,2.227-33.738,6.626c-9.934,4.402-18.424,10.548-25.234,18.265c-6.826,7.738-12.134,16.933-15.776,27.331
		c-3.649,10.416-5.497,21.869-5.497,34.045c0,11.871,1.848,23.09,5.495,33.349c3.642,10.243,8.948,19.281,15.771,26.863
		c6.814,7.571,15.306,13.603,25.236,17.923c9.933,4.324,21.285,6.516,33.744,6.516c12.605,0,23.996-2.191,33.857-6.515
		c9.856-4.321,18.308-10.353,25.122-17.924c6.825-7.582,12.132-16.621,15.771-26.863c3.65-10.264,5.499-21.483,5.499-33.349
		c0-12.171-1.851-23.625-5.5-34.045c-3.642-10.399-8.95-19.596-15.777-27.331c-6.813-7.719-15.266-13.864-25.12-18.267
		C453.194-18.183,441.805-20.412,429.198-20.412z M429.196,122.217c-8.316,0-15.493-1.643-21.333-4.875
		c-5.829-3.229-10.621-7.583-14.245-12.942c-3.597-5.31-6.254-11.378-7.899-18.036c-1.632-6.603-2.46-13.501-2.46-20.508
		c0-7.303,0.827-14.474,2.457-21.307c1.644-6.88,4.301-13.108,7.899-18.504c3.621-5.436,8.416-9.831,14.248-13.061
		c5.846-3.237,13.023-4.878,21.333-4.878c8.308,0,15.484,1.641,21.335,4.876c5.825,3.23,10.619,7.625,14.246,13.063
		c3.604,5.411,6.262,11.638,7.899,18.504c1.632,6.843,2.46,14.01,2.46,21.307c0,6.998-0.828,13.896-2.463,20.508
		c-1.638,6.644-4.296,12.712-7.9,18.038c-3.625,5.359-8.418,9.712-14.241,12.941C444.688,120.574,437.512,122.217,429.196,122.217z
		 M429.196,10.146c-7.96,0-14.805,1.556-20.345,4.621c-5.543,3.071-10.097,7.246-13.537,12.407
		c-3.463,5.197-6.025,11.202-7.611,17.848c-1.594,6.675-2.401,13.686-2.401,20.833c0,6.842,0.807,13.575,2.398,20.019
		c1.588,6.423,4.148,12.271,7.61,17.384c3.441,5.091,7.998,9.229,13.542,12.299c5.533,3.065,12.378,4.619,20.344,4.619
		c7.964,0,14.811-1.554,20.345-4.619c5.541-3.07,10.097-7.21,13.541-12.299c3.469-5.126,6.028-10.974,7.609-17.384
		c1.596-6.449,2.404-13.186,2.404-20.019c0-7.138-0.81-14.146-2.406-20.833c-1.58-6.633-4.143-12.638-7.611-17.848
		c-3.444-5.162-7.999-9.336-13.537-12.407C443.999,11.701,437.154,10.146,429.196,10.146z"/>
	<path fill="#FFFFFF" d="M675.882,148.842h-37.939l-67.641-108.86v108.86h-36.081V-18.517h37.71l67.873,109.099V-18.517h36.076
		v167.359H675.882z M639.077,146.799h34.763V-16.474h-31.994V94.429h-2.052L570.797-16.474h-34.534v163.275h31.997V36.127h2.049
		L639.077,146.799z"/>
</g>
</svg>
