<?xml version="1.0" encoding="utf-8"?>
<!-- Generator: Adobe Illustrator 16.0.0, SVG Export Plug-In . SVG Version: 6.00 Build 0)  -->
<!DOCTYPE svg PUBLIC "-//W3C//DTD SVG 1.1//EN" "http://www.w3.org/Graphics/SVG/1.1/DTD/svg11.dtd">
<svg version="1.1" id="Layer_1" xmlns="http://www.w3.org/2000/svg" xmlns:xlink="http://www.w3.org/1999/xlink" x="0px" y="0px"
	 width="152px" height="152px" viewBox="0 0 152 152" enable-background="new 0 0 152 152" xml:space="preserve">
<g>
	<rect y="0" fill="#FFFFFF" width="152" height="152"/>
	<polygon fill="#FF0000" points="94.149,84.994 83.791,84.994 78.612,76.023 73.432,84.994 68.251,93.963 57.893,93.963 
		63.072,84.994 68.251,76.023 73.432,67.049 78.612,58.079 83.791,67.049 88.97,76.023 	"/>
	<polygon fill="#FF0000" points="88.97,93.963 78.612,93.963 73.43,84.994 83.791,84.994 	"/>
	<polygon fill="#B03634" points="88.942,93.963 83.762,84.994 94.122,84.994 	"/>
	<rect x="48.202" y="5.407" width="4.279" height="4.281"/>
	<rect x="61.043" y="5.407" width="4.279" height="4.281"/>
	<rect x="69.602" y="5.407" width="4.279" height="4.281"/>
	<rect x="86.72" y="5.407" width="4.279" height="4.281"/>
	<rect x="91.001" y="5.407" width="4.279" height="4.281"/>
	<rect x="103.84" y="5.407" width="4.279" height="4.281"/>
	<rect x="108.121" y="5.407" width="4.278" height="4.281"/>
	<rect x="39.642" y="9.69" width="4.279" height="4.278"/>
	<rect x="43.923" y="9.69" width="4.279" height="4.278"/>
	<rect x="52.481" y="9.69" width="4.281" height="4.278"/>
	<rect x="61.043" y="9.69" width="4.279" height="4.278"/>
	<rect x="69.602" y="9.69" width="4.279" height="4.278"/>
	<rect x="73.882" y="9.69" width="4.279" height="4.278"/>
	<rect x="78.161" y="9.69" width="4.279" height="4.278"/>
	<rect x="82.44" y="9.69" width="4.279" height="4.278"/>
	<rect x="91.001" y="9.69" width="4.279" height="4.278"/>
	<rect x="108.121" y="9.69" width="4.278" height="4.278"/>
	<rect x="69.602" y="13.968" width="4.279" height="4.279"/>
	<rect x="82.44" y="13.968" width="4.279" height="4.279"/>
	<rect x="95.28" y="13.968" width="4.28" height="4.279"/>
	<rect x="48.202" y="18.248" width="4.279" height="4.279"/>
	<rect x="52.481" y="18.248" width="4.281" height="4.279"/>
	<rect x="56.763" y="18.248" width="4.278" height="4.279"/>
	<rect x="61.043" y="18.248" width="4.279" height="4.279"/>
	<rect x="73.882" y="18.248" width="4.279" height="4.279"/>
	<rect x="82.44" y="18.248" width="4.279" height="4.279"/>
	<rect x="91.001" y="18.248" width="4.279" height="4.279"/>
	<rect x="48.202" y="22.527" width="4.279" height="4.279"/>
	<rect x="52.481" y="22.527" width="4.281" height="4.279"/>
	<rect x="69.602" y="22.527" width="4.279" height="4.279"/>
	<rect x="73.882" y="22.527" width="4.279" height="4.279"/>
	<rect x="78.161" y="22.527" width="4.279" height="4.279"/>
	<rect x="82.44" y="22.527" width="4.279" height="4.279"/>
	<rect x="95.28" y="22.527" width="4.28" height="4.279"/>
	<rect x="39.642" y="26.808" width="4.279" height="4.279"/>
	<rect x="43.923" y="26.808" width="4.279" height="4.279"/>
	<rect x="48.202" y="26.808" width="4.279" height="4.279"/>
	<rect x="56.763" y="26.808" width="4.278" height="4.279"/>
	<rect x="73.882" y="26.808" width="4.279" height="4.279"/>
	<rect x="78.161" y="26.808" width="4.279" height="4.279"/>
	<rect x="82.44" y="26.808" width="4.279" height="4.279"/>
	<rect x="86.72" y="26.808" width="4.279" height="4.279"/>
	<rect x="91.001" y="26.808" width="4.279" height="4.279"/>
	<rect x="95.28" y="26.808" width="4.28" height="4.279"/>
	<rect x="99.561" y="26.808" width="4.279" height="4.279"/>
	<rect x="103.84" y="26.808" width="4.279" height="4.279"/>
	<rect x="108.121" y="26.808" width="4.278" height="4.279"/>
	<rect x="39.642" y="31.087" width="4.279" height="4.279"/>
	<rect x="48.202" y="31.087" width="4.279" height="4.279"/>
	<rect x="56.763" y="31.087" width="4.278" height="4.279"/>
	<rect x="65.322" y="31.087" width="4.279" height="4.279"/>
	<rect x="73.882" y="31.087" width="4.279" height="4.279"/>
	<rect x="82.44" y="31.087" width="4.279" height="4.279"/>
	<rect x="91.001" y="31.087" width="4.279" height="4.279"/>
	<rect x="99.561" y="31.087" width="4.279" height="4.279"/>
	<rect x="108.121" y="31.087" width="4.278" height="4.279"/>
	<rect x="39.642" y="35.367" width="4.279" height="4.279"/>
	<rect x="43.923" y="35.367" width="4.279" height="4.279"/>
	<rect x="61.043" y="35.367" width="4.279" height="4.279"/>
	<rect x="95.28" y="35.367" width="4.28" height="4.279"/>
	<rect x="108.121" y="35.367" width="4.278" height="4.279"/>
	<rect x="22.523" y="39.646" width="4.279" height="4.278"/>
	<rect x="26.805" y="39.646" width="4.279" height="4.278"/>
	<rect x="31.084" y="39.646" width="4.278" height="4.278"/>
	<rect x="35.362" y="39.646" width="4.279" height="4.278"/>
	<rect x="48.202" y="39.646" width="4.279" height="4.278"/>
	<rect x="61.043" y="39.646" width="4.279" height="4.278"/>
	<rect x="65.322" y="39.646" width="4.279" height="4.278"/>
	<rect x="69.602" y="39.646" width="4.279" height="4.278"/>
	<rect x="86.72" y="39.646" width="4.279" height="4.278"/>
	<rect x="91.001" y="39.646" width="4.279" height="4.278"/>
	<rect x="95.28" y="39.646" width="4.28" height="4.278"/>
	<rect x="103.84" y="39.646" width="4.279" height="4.278"/>
	<rect x="108.121" y="39.646" width="4.278" height="4.278"/>
	<rect x="116.679" y="39.646" width="4.279" height="4.278"/>
	<rect x="120.96" y="39.646" width="4.279" height="4.278"/>
	<rect x="138.078" y="39.646" width="4.279" height="4.278"/>
	<rect x="5.403" y="43.926" width="4.279" height="4.279"/>
	<rect x="18.244" y="43.926" width="4.279" height="4.279"/>
	<rect x="26.805" y="43.926" width="4.279" height="4.279"/>
	<rect x="35.362" y="43.926" width="4.279" height="4.279"/>
	<rect x="39.642" y="43.926" width="4.279" height="4.279"/>
	<rect x="43.923" y="43.926" width="4.279" height="4.279"/>
	<rect x="48.202" y="43.926" width="4.279" height="4.279"/>
	<rect x="61.043" y="43.926" width="4.279" height="4.279"/>
	<rect x="65.322" y="43.926" width="4.279" height="4.279"/>
	<rect x="69.602" y="43.926" width="4.279" height="4.279"/>
	<rect x="73.882" y="43.926" width="4.279" height="4.279"/>
	<rect x="86.72" y="43.926" width="4.279" height="4.279"/>
	<rect x="103.84" y="43.926" width="4.279" height="4.279"/>
	<rect x="120.96" y="43.926" width="4.279" height="4.279"/>
	<rect x="129.519" y="43.926" width="4.279" height="4.279"/>
	<rect x="5.403" y="48.206" width="4.279" height="4.279"/>
	<rect x="13.965" y="48.206" width="4.279" height="4.279"/>
	<rect x="18.244" y="48.206" width="4.279" height="4.279"/>
	<rect x="22.523" y="48.206" width="4.279" height="4.279"/>
	<rect x="26.805" y="48.206" width="4.279" height="4.279"/>
	<rect x="31.084" y="48.206" width="4.278" height="4.279"/>
	<rect x="48.202" y="48.206" width="4.279" height="4.279"/>
	<rect x="56.763" y="48.206" width="4.278" height="4.279"/>
	<rect x="78.161" y="48.206" width="4.279" height="4.279"/>
	<rect x="82.44" y="48.206" width="4.279" height="4.279"/>
	<rect x="95.28" y="48.206" width="4.28" height="4.279"/>
	<rect x="99.561" y="48.206" width="4.279" height="4.279"/>
	<rect x="103.84" y="48.206" width="4.279" height="4.279"/>
	<rect x="108.121" y="48.206" width="4.278" height="4.279"/>
	<rect x="112.399" y="48.206" width="4.279" height="4.279"/>
	<rect x="116.679" y="48.206" width="4.279" height="4.279"/>
	<rect x="120.96" y="48.206" width="4.279" height="4.279"/>
	<rect x="125.239" y="48.206" width="4.279" height="4.279"/>
	<rect x="133.798" y="48.206" width="4.279" height="4.279"/>
	<rect x="138.078" y="48.206" width="4.279" height="4.279"/>
	<rect x="5.403" y="52.487" width="4.279" height="4.279"/>
	<rect x="13.965" y="52.487" width="4.279" height="4.279"/>
	<rect x="43.923" y="52.487" width="4.279" height="4.279"/>
	<rect x="48.202" y="52.487" width="4.279" height="4.279"/>
	<rect x="116.679" y="52.487" width="4.279" height="4.279"/>
	<rect x="125.239" y="52.487" width="4.279" height="4.279"/>
	<rect x="138.078" y="52.487" width="4.279" height="4.279"/>
	<rect x="142.357" y="52.487" width="4.279" height="4.279"/>
	<rect x="9.687" y="56.767" width="4.278" height="4.279"/>
	<rect x="18.244" y="56.767" width="4.279" height="4.279"/>
	<rect x="26.805" y="56.767" width="4.279" height="4.279"/>
	<rect x="31.084" y="56.767" width="4.278" height="4.279"/>
	<rect x="48.202" y="56.767" width="4.279" height="4.279"/>
	<rect x="108.121" y="56.767" width="4.278" height="4.279"/>
	<rect x="116.679" y="56.767" width="4.279" height="4.279"/>
	<rect x="120.96" y="56.767" width="4.279" height="4.279"/>
	<rect x="142.357" y="56.767" width="4.279" height="4.279"/>
	<rect x="5.403" y="61.046" width="4.279" height="4.279"/>
	<rect x="13.965" y="61.046" width="4.279" height="4.279"/>
	<rect x="43.923" y="61.046" width="4.279" height="4.279"/>
	<rect x="99.561" y="61.046" width="4.279" height="4.279"/>
	<rect x="103.84" y="61.046" width="4.279" height="4.279"/>
	<rect x="129.519" y="61.046" width="4.279" height="4.279"/>
	<rect x="133.798" y="61.046" width="4.279" height="4.279"/>
	<rect x="138.078" y="61.046" width="4.279" height="4.279"/>
	<rect x="5.403" y="65.326" width="4.279" height="4.279"/>
	<rect x="9.687" y="65.326" width="4.278" height="4.279"/>
	<rect x="31.084" y="65.326" width="4.278" height="4.279"/>
	<rect x="48.202" y="65.326" width="4.279" height="4.279"/>
	<rect x="103.84" y="65.326" width="4.279" height="4.279"/>
	<rect x="112.399" y="65.326" width="4.279" height="4.279"/>
	<rect x="116.679" y="65.326" width="4.279" height="4.279"/>
	<rect x="125.239" y="65.326" width="4.279" height="4.279"/>
	<rect x="129.519" y="65.326" width="4.279" height="4.279"/>
	<rect x="138.078" y="65.326" width="4.279" height="4.279"/>
	<rect x="9.687" y="69.605" width="4.278" height="4.279"/>
	<rect x="13.965" y="69.605" width="4.279" height="4.279"/>
	<rect x="18.244" y="69.605" width="4.279" height="4.279"/>
	<rect x="103.84" y="69.605" width="4.279" height="4.279"/>
	<rect x="108.121" y="69.605" width="4.278" height="4.279"/>
	<rect x="120.96" y="69.605" width="4.279" height="4.279"/>
	<rect x="125.239" y="69.605" width="4.279" height="4.279"/>
	<rect x="129.519" y="69.605" width="4.279" height="4.279"/>
	<rect x="138.078" y="69.605" width="4.279" height="4.279"/>
	<rect x="142.357" y="69.605" width="4.279" height="4.279"/>
	<rect x="5.403" y="73.886" width="4.279" height="4.279"/>
	<rect x="9.687" y="73.886" width="4.278" height="4.279"/>
	<rect x="22.523" y="73.886" width="4.279" height="4.279"/>
	<rect x="31.084" y="73.886" width="4.278" height="4.279"/>
	<rect x="39.642" y="73.886" width="4.279" height="4.279"/>
	<rect x="48.202" y="73.886" width="4.279" height="4.279"/>
	<rect x="112.399" y="73.886" width="4.279" height="4.279"/>
	<rect x="116.679" y="73.886" width="4.279" height="4.279"/>
	<rect x="125.239" y="73.886" width="4.279" height="4.279"/>
	<rect x="133.798" y="73.886" width="4.279" height="4.279"/>
	<rect x="138.078" y="73.886" width="4.279" height="4.279"/>
	<rect x="9.687" y="78.166" width="4.278" height="4.279"/>
	<rect x="13.965" y="78.166" width="4.279" height="4.279"/>
	<rect x="18.244" y="78.166" width="4.279" height="4.279"/>
	<rect x="22.523" y="78.166" width="4.279" height="4.279"/>
	<rect x="103.84" y="78.166" width="4.279" height="4.279"/>
	<rect x="108.121" y="78.166" width="4.278" height="4.279"/>
	<rect x="112.399" y="78.166" width="4.279" height="4.279"/>
	<rect x="120.96" y="78.166" width="4.279" height="4.279"/>
	<rect x="138.078" y="78.166" width="4.279" height="4.279"/>
	<rect x="5.403" y="82.445" width="4.279" height="4.278"/>
	<rect x="31.084" y="82.445" width="4.278" height="4.278"/>
	<rect x="35.362" y="82.445" width="4.279" height="4.278"/>
	<rect x="39.642" y="82.445" width="4.279" height="4.278"/>
	<rect x="48.202" y="82.445" width="4.279" height="4.278"/>
	<rect x="103.84" y="82.445" width="4.279" height="4.278"/>
	<rect x="108.121" y="82.445" width="4.278" height="4.278"/>
	<rect x="112.399" y="82.445" width="4.279" height="4.278"/>
	<rect x="116.679" y="82.445" width="4.279" height="4.278"/>
	<rect x="125.239" y="82.445" width="4.279" height="4.278"/>
	<rect x="129.519" y="82.445" width="4.279" height="4.278"/>
	<rect x="138.078" y="82.445" width="4.279" height="4.278"/>
	<rect x="13.965" y="86.723" width="4.279" height="4.279"/>
	<rect x="18.244" y="86.723" width="4.279" height="4.279"/>
	<rect x="35.362" y="86.723" width="4.279" height="4.279"/>
	<rect x="43.923" y="86.723" width="4.279" height="4.279"/>
	<rect x="48.202" y="86.723" width="4.279" height="4.279"/>
	<rect x="116.679" y="86.723" width="4.279" height="4.279"/>
	<rect x="120.96" y="86.723" width="4.279" height="4.279"/>
	<rect x="125.239" y="86.723" width="4.279" height="4.279"/>
	<rect x="138.078" y="86.723" width="4.279" height="4.279"/>
	<rect x="5.403" y="91.004" width="4.279" height="4.279"/>
	<rect x="18.244" y="91.004" width="4.279" height="4.279"/>
	<rect x="26.805" y="91.004" width="4.279" height="4.279"/>
	<rect x="31.084" y="91.004" width="4.278" height="4.279"/>
	<rect x="35.362" y="91.004" width="4.279" height="4.279"/>
	<rect x="48.202" y="91.004" width="4.279" height="4.279"/>
	<rect x="99.561" y="91.004" width="4.279" height="4.279"/>
	<rect x="125.239" y="91.004" width="4.279" height="4.279"/>
	<rect x="129.519" y="91.004" width="4.279" height="4.279"/>
	<rect x="138.078" y="91.004" width="4.279" height="4.279"/>
	<rect x="5.403" y="95.284" width="4.279" height="4.28"/>
	<rect x="9.687" y="95.284" width="4.278" height="4.28"/>
	<rect x="22.523" y="95.284" width="4.279" height="4.28"/>
	<rect x="26.805" y="95.284" width="4.279" height="4.28"/>
	<rect x="43.923" y="95.284" width="4.279" height="4.28"/>
	<rect x="48.202" y="95.284" width="4.279" height="4.28"/>
	<rect x="108.121" y="95.284" width="4.278" height="4.28"/>
	<rect x="112.399" y="95.284" width="4.279" height="4.28"/>
	<rect x="116.679" y="95.284" width="4.279" height="4.28"/>
	<rect x="129.519" y="95.284" width="4.279" height="4.28"/>
	<rect x="133.798" y="95.284" width="4.279" height="4.28"/>
	<rect x="138.078" y="95.284" width="4.279" height="4.28"/>
	<rect x="18.244" y="99.563" width="4.279" height="4.28"/>
	<rect x="22.523" y="99.563" width="4.279" height="4.28"/>
	<rect x="26.805" y="99.563" width="4.279" height="4.28"/>
	<rect x="31.084" y="99.563" width="4.278" height="4.28"/>
	<rect x="61.043" y="99.563" width="4.279" height="4.28"/>
	<rect x="65.322" y="99.563" width="4.279" height="4.28"/>
	<rect x="73.882" y="99.563" width="4.279" height="4.28"/>
	<rect x="82.44" y="99.563" width="4.279" height="4.28"/>
	<rect x="91.001" y="99.563" width="4.279" height="4.28"/>
	<rect x="103.84" y="99.563" width="4.279" height="4.28"/>
	<rect x="108.121" y="99.563" width="4.278" height="4.28"/>
	<rect x="133.798" y="99.563" width="4.279" height="4.28"/>
	<rect x="138.078" y="99.563" width="4.279" height="4.28"/>
	<rect x="22.523" y="103.845" width="4.279" height="4.279"/>
	<rect x="35.362" y="103.845" width="4.279" height="4.279"/>
	<rect x="52.481" y="103.845" width="4.281" height="4.279"/>
	<rect x="65.322" y="103.845" width="4.279" height="4.279"/>
	<rect x="73.882" y="103.845" width="4.279" height="4.279"/>
	<rect x="78.161" y="103.845" width="4.279" height="4.279"/>
	<rect x="91.001" y="103.845" width="4.279" height="4.279"/>
	<rect x="95.28" y="103.845" width="4.28" height="4.279"/>
	<rect x="99.561" y="103.845" width="4.279" height="4.279"/>
	<rect x="103.84" y="103.845" width="4.279" height="4.279"/>
	<rect x="125.239" y="103.845" width="4.279" height="4.279"/>
	<rect x="5.403" y="108.125" width="4.279" height="4.279"/>
	<rect x="9.687" y="108.125" width="4.278" height="4.279"/>
	<rect x="13.965" y="108.125" width="4.279" height="4.279"/>
	<rect x="18.244" y="108.125" width="4.279" height="4.279"/>
	<rect x="22.523" y="108.125" width="4.279" height="4.279"/>
	<rect x="31.084" y="108.125" width="4.278" height="4.279"/>
	<rect x="35.362" y="108.125" width="4.279" height="4.279"/>
	<rect x="39.642" y="108.125" width="4.279" height="4.279"/>
	<rect x="48.202" y="108.125" width="4.279" height="4.279"/>
	<rect x="61.043" y="108.125" width="4.279" height="4.279"/>
	<rect x="69.602" y="108.125" width="4.279" height="4.279"/>
	<rect x="82.44" y="108.125" width="4.279" height="4.279"/>
	<rect x="86.72" y="108.125" width="4.279" height="4.279"/>
	<rect x="95.28" y="108.125" width="4.28" height="4.279"/>
	<rect x="99.561" y="108.125" width="4.279" height="4.279"/>
	<rect x="108.121" y="108.125" width="4.278" height="4.279"/>
	<rect x="112.399" y="108.125" width="4.279" height="4.279"/>
	<rect x="116.679" y="108.125" width="4.279" height="4.279"/>
	<rect x="120.96" y="108.125" width="4.279" height="4.279"/>
	<rect x="125.239" y="108.125" width="4.279" height="4.279"/>
	<rect x="129.519" y="108.125" width="4.279" height="4.279"/>
	<rect x="39.642" y="112.404" width="4.279" height="4.279"/>
	<rect x="43.923" y="112.404" width="4.279" height="4.279"/>
	<rect x="52.481" y="112.404" width="4.281" height="4.279"/>
	<rect x="61.043" y="112.404" width="4.279" height="4.279"/>
	<rect x="78.161" y="112.404" width="4.279" height="4.279"/>
	<rect x="82.44" y="112.404" width="4.279" height="4.279"/>
	<rect x="95.28" y="112.404" width="4.28" height="4.279"/>
	<rect x="108.121" y="112.404" width="4.278" height="4.279"/>
	<rect x="125.239" y="112.404" width="4.279" height="4.279"/>
	<rect x="133.798" y="112.404" width="4.279" height="4.279"/>
	<rect x="39.642" y="116.683" width="4.279" height="4.279"/>
	<rect x="48.202" y="116.683" width="4.279" height="4.279"/>
	<rect x="56.763" y="116.683" width="4.278" height="4.279"/>
	<rect x="61.043" y="116.683" width="4.279" height="4.279"/>
	<rect x="73.882" y="116.683" width="4.279" height="4.279"/>
	<rect x="82.44" y="116.683" width="4.279" height="4.279"/>
	<rect x="86.72" y="116.683" width="4.279" height="4.279"/>
	<rect x="108.121" y="116.683" width="4.278" height="4.279"/>
	<rect x="116.679" y="116.683" width="4.279" height="4.279"/>
	<rect x="125.239" y="116.683" width="4.279" height="4.279"/>
	<rect x="129.519" y="116.683" width="4.279" height="4.279"/>
	<rect x="133.798" y="116.683" width="4.279" height="4.279"/>
	<rect x="138.078" y="116.683" width="4.279" height="4.279"/>
	<rect x="39.642" y="120.963" width="4.279" height="4.279"/>
	<rect x="43.923" y="120.963" width="4.279" height="4.279"/>
	<rect x="52.481" y="120.963" width="4.281" height="4.279"/>
	<rect x="56.763" y="120.963" width="4.278" height="4.279"/>
	<rect x="61.043" y="120.963" width="4.279" height="4.279"/>
	<rect x="65.322" y="120.963" width="4.279" height="4.279"/>
	<rect x="73.882" y="120.963" width="4.279" height="4.279"/>
	<rect x="86.72" y="120.963" width="4.279" height="4.279"/>
	<rect x="99.561" y="120.963" width="4.279" height="4.279"/>
	<rect x="108.121" y="120.963" width="4.278" height="4.279"/>
	<rect x="125.239" y="120.963" width="4.279" height="4.279"/>
	<rect x="138.078" y="120.963" width="4.279" height="4.279"/>
	<rect x="142.357" y="120.963" width="4.279" height="4.279"/>
	<rect x="39.642" y="125.243" width="4.279" height="4.279"/>
	<rect x="52.481" y="125.243" width="4.281" height="4.279"/>
	<rect x="69.602" y="125.243" width="4.279" height="4.279"/>
	<rect x="78.161" y="125.243" width="4.279" height="4.279"/>
	<rect x="86.72" y="125.243" width="4.279" height="4.279"/>
	<rect x="99.561" y="125.243" width="4.279" height="4.279"/>
	<rect x="108.121" y="125.243" width="4.278" height="4.279"/>
	<rect x="112.399" y="125.243" width="4.279" height="4.279"/>
	<rect x="116.679" y="125.243" width="4.279" height="4.279"/>
	<rect x="120.96" y="125.243" width="4.279" height="4.279"/>
	<rect x="125.239" y="125.243" width="4.279" height="4.279"/>
	<rect x="43.923" y="129.522" width="4.279" height="4.279"/>
	<rect x="61.043" y="129.522" width="4.279" height="4.279"/>
	<rect x="65.322" y="129.522" width="4.279" height="4.279"/>
	<rect x="73.882" y="129.522" width="4.279" height="4.279"/>
	<rect x="91.001" y="129.522" width="4.279" height="4.279"/>
	<rect x="95.28" y="129.522" width="4.28" height="4.279"/>
	<rect x="116.679" y="129.522" width="4.279" height="4.279"/>
	<rect x="120.96" y="129.522" width="4.279" height="4.279"/>
	<rect x="125.239" y="129.522" width="4.279" height="4.279"/>
	<rect x="129.519" y="129.522" width="4.279" height="4.279"/>
	<rect x="142.357" y="129.522" width="4.279" height="4.279"/>
	<rect x="48.202" y="133.801" width="4.279" height="4.279"/>
	<rect x="56.763" y="133.801" width="4.278" height="4.279"/>
	<rect x="61.043" y="133.801" width="4.279" height="4.279"/>
	<rect x="73.882" y="133.801" width="4.279" height="4.279"/>
	<rect x="78.161" y="133.801" width="4.279" height="4.279"/>
	<rect x="82.44" y="133.801" width="4.279" height="4.279"/>
	<rect x="91.001" y="133.801" width="4.279" height="4.279"/>
	<rect x="108.121" y="133.801" width="4.278" height="4.279"/>
	<rect x="112.399" y="133.801" width="4.279" height="4.279"/>
	<rect x="116.679" y="133.801" width="4.279" height="4.279"/>
	<rect x="125.239" y="133.801" width="4.279" height="4.279"/>
	<rect x="129.519" y="133.801" width="4.279" height="4.279"/>
	<rect x="133.798" y="133.801" width="4.279" height="4.279"/>
	<rect x="48.202" y="138.083" width="4.279" height="4.279"/>
	<rect x="52.481" y="138.083" width="4.281" height="4.279"/>
	<rect x="69.602" y="138.083" width="4.279" height="4.279"/>
	<rect x="73.882" y="138.083" width="4.279" height="4.279"/>
	<rect x="91.001" y="138.083" width="4.279" height="4.279"/>
	<rect x="95.28" y="138.083" width="4.28" height="4.279"/>
	<rect x="103.84" y="138.083" width="4.279" height="4.279"/>
	<rect x="108.121" y="138.083" width="4.278" height="4.279"/>
	<rect x="120.96" y="138.083" width="4.279" height="4.279"/>
	<rect x="125.239" y="138.083" width="4.279" height="4.279"/>
	<rect x="133.798" y="138.083" width="4.279" height="4.279"/>
	<rect x="52.481" y="142.362" width="4.281" height="4.28"/>
	<rect x="56.763" y="142.362" width="4.278" height="4.28"/>
	<rect x="61.043" y="142.362" width="4.279" height="4.28"/>
	<rect x="69.602" y="142.362" width="4.279" height="4.28"/>
	<rect x="73.882" y="142.362" width="4.279" height="4.28"/>
	<rect x="86.72" y="142.362" width="4.279" height="4.28"/>
	<rect x="95.28" y="142.362" width="4.28" height="4.28"/>
	<rect x="99.561" y="142.362" width="4.279" height="4.28"/>
	<rect x="103.84" y="142.362" width="4.279" height="4.28"/>
	<rect x="108.121" y="142.362" width="4.278" height="4.28"/>
	<rect x="120.96" y="142.362" width="4.279" height="4.28"/>
	<rect x="133.798" y="142.362" width="4.279" height="4.28"/>
	<rect x="142.357" y="142.362" width="4.279" height="4.28"/>
	<path d="M5.405,25.248v-9.727c0-5.576,4.59-10.112,10.229-10.112h9.502c5.638,0,10.227,4.536,10.227,10.112v19.847L15.634,35.36
		C9.995,35.36,5.405,30.826,5.405,25.248 M9.899,25.248c0,3.1,2.571,5.62,5.734,5.62l15.235,0.005V15.521
		c0-3.099-2.572-5.618-5.733-5.618h-9.502c-3.163,0-5.734,2.52-5.734,5.618V25.248z"/>
	<path d="M146.639,25.248v-9.727c0-5.576-4.591-10.112-10.23-10.112h-9.502c-5.636,0-10.228,4.536-10.228,10.112v19.847
		l19.729-0.008C142.048,35.36,146.639,30.826,146.639,25.248 M142.145,25.248c0,3.1-2.573,5.62-5.736,5.62l-15.235,0.005V15.521
		c0-3.099,2.574-5.618,5.733-5.618h9.502c3.163,0,5.736,2.52,5.736,5.618V25.248z"/>
	<path d="M5.405,126.803v9.727c0,5.576,4.59,10.112,10.229,10.112h9.502c5.638,0,10.227-4.536,10.227-10.112v-19.847l-19.729,0.006
		C9.995,116.689,5.405,121.225,5.405,126.803 M9.899,126.803c0-3.1,2.571-5.621,5.734-5.621l15.235-0.005v15.353
		c0,3.099-2.572,5.618-5.733,5.618h-9.502c-3.163,0-5.734-2.52-5.734-5.618V126.803z"/>
	<path d="M13.964,23.312v-5.853c0-1.926,1.593-3.492,3.549-3.492h5.742c1.957,0,3.55,1.566,3.55,3.492v9.349l-9.292-0.005
		C15.557,26.803,13.964,25.238,13.964,23.312"/>
	<path d="M138.078,23.312v-5.853c0-1.926-1.591-3.492-3.549-3.492h-5.743c-1.954,0-3.547,1.566-3.547,3.492v9.349l9.29-0.005
		C136.487,26.803,138.078,25.238,138.078,23.312"/>
	<path d="M13.964,128.739v5.853c0,1.926,1.593,3.491,3.549,3.491h5.742c1.957,0,3.55-1.565,3.55-3.491v-9.349l-9.292,0.005
		C15.557,125.248,13.964,126.813,13.964,128.739"/>
</g>
</svg>
