<?xml version="1.0" encoding="utf-8"?>
<!-- Generator: Adobe Illustrator 16.0.0, SVG Export Plug-In . SVG Version: 6.00 Build 0)  -->
<!DOCTYPE svg PUBLIC "-//W3C//DTD SVG 1.1//EN" "http://www.w3.org/Graphics/SVG/1.1/DTD/svg11.dtd">
<svg version="1.1" id="Layer_1" xmlns="http://www.w3.org/2000/svg" xmlns:xlink="http://www.w3.org/1999/xlink" x="0px" y="0px"
	 width="152px" height="152px" viewBox="0 0 152 152" enable-background="new 0 0 152 152" xml:space="preserve">
<g display="none">
	<path display="inline" fill="#414042" d="M29.613,24.726v102.546h92.773V24.726H29.613z M118.757,123.642H33.244V28.356h85.513
		V123.642z"/>
	<rect x="42.209" y="114.438" display="inline" fill="#414042" width="31.777" height="3.63"/>
	<rect x="42.209" y="105.334" display="inline" fill="#414042" width="31.777" height="3.63"/>
	<rect x="42.209" y="96.229" display="inline" fill="#414042" width="31.777" height="3.631"/>
	<rect x="42.209" y="87.125" display="inline" fill="#414042" width="31.777" height="3.631"/>
	<path display="inline" fill="#414042" d="M100.002,78.129c0-10.622-6.941-19.641-16.525-22.793c2.709-2.194,4.475-5.502,4.475-9.25
		c0-6.587-5.36-11.948-11.951-11.948s-11.951,5.36-11.951,11.948c0,3.748,1.769,7.055,4.474,9.25
		c-9.58,3.152-16.525,12.171-16.525,22.793v1.813h48.004V78.129z M67.679,46.086c0-4.587,3.733-8.317,8.321-8.317
		s8.321,3.73,8.321,8.317c0,3.988-2.819,7.321-6.563,8.129c-0.585-0.042-1.167-0.089-1.759-0.089s-1.173,0.046-1.755,0.089
		C70.498,53.408,67.679,50.075,67.679,46.086z M55.71,76.314c0.879-9.902,8.899-17.709,18.851-18.418
		c0.479,0.057,0.947,0.145,1.439,0.145c0.496,0,0.964-0.088,1.443-0.145c9.947,0.709,17.967,8.516,18.847,18.418H55.71z"/>
	<path display="inline" fill="#414042" d="M79.134,84.48l8.545,34.638l8.153-8.154l11.703,11.699l9.782-9.785l-11.7-11.699
		l8.158-8.154L79.134,84.48z M112.184,112.878l-4.648,4.651L95.832,105.83l-6.168,6.169l-5.566-22.556l22.559,5.566l-6.172,6.169
		L112.184,112.878z"/>
</g>
<g display="none">
	<path display="inline" fill="#414042" d="M126.783,20.328H34.011v8.792h-8.796v102.552h92.768v-8.796h8.8V20.328z M114.354,128.042
		H28.846V32.75h5.166v90.125h80.342V128.042z M123.152,119.246H37.642V23.958h85.511V119.246z"/>
	<rect x="67.862" y="61.457" display="inline" fill="#414042" width="49.667" height="3.63"/>
	<rect x="67.862" y="52.349" display="inline" fill="#414042" width="49.667" height="3.63"/>
	<rect x="55.566" y="39.951" display="inline" fill="#414042" width="49.661" height="3.63"/>
	<rect x="65.855" y="30.847" display="inline" fill="#414042" width="29.084" height="3.63"/>
	<polygon display="inline" fill="#414042" points="63.628,54.444 61.062,51.878 51.227,61.712 46.682,57.167 44.115,59.734 
		51.227,66.846 	"/>
	<rect x="67.862" y="84.417" display="inline" fill="#414042" width="49.667" height="3.63"/>
	<rect x="67.862" y="75.312" display="inline" fill="#414042" width="49.667" height="3.63"/>
	<polygon display="inline" fill="#414042" points="63.628,77.404 61.062,74.837 51.227,84.672 46.682,80.127 44.115,82.693 
		51.227,89.806 	"/>
	<rect x="67.862" y="107.376" display="inline" fill="#414042" width="49.667" height="3.631"/>
	<rect x="67.862" y="98.271" display="inline" fill="#414042" width="49.667" height="3.631"/>
	<polygon display="inline" fill="#414042" points="63.628,100.363 61.062,97.797 51.227,107.635 46.682,103.094 44.115,105.66 
		51.227,112.769 	"/>
</g>
<g display="none">
	<rect x="101.97" y="40.94" display="inline" fill="#414042" width="24.898" height="3.63"/>
	<rect x="101.97" y="32.978" display="inline" fill="#414042" width="24.898" height="3.63"/>
	<rect x="101.97" y="63.411" display="inline" fill="#414042" width="24.898" height="3.63"/>
	<rect x="101.97" y="55.444" display="inline" fill="#414042" width="24.898" height="3.63"/>
	<rect x="101.97" y="85.874" display="inline" fill="#414042" width="24.898" height="3.63"/>
	<rect x="101.97" y="77.911" display="inline" fill="#414042" width="24.898" height="3.63"/>
	<path display="inline" fill="#414042" d="M52.799,52.413c4.155,0,7.534,3.378,7.534,7.53c0,4.155-3.378,7.534-7.534,7.534h-1.815
		V79.69h3.63v-8.732c5.296-0.869,9.349-5.478,9.349-11.015c0-6.155-5.01-11.161-11.165-11.161c-6.154,0-11.164,5.006-11.164,11.161
		h3.63C45.266,55.792,48.645,52.413,52.799,52.413z"/>
	<path display="inline" fill="#414042" d="M52.799,83.477c-1.967,0-3.57,1.603-3.57,3.574c0,1.971,1.603,3.573,3.57,3.573
		c1.968,0,3.57-1.603,3.57-3.573C56.37,85.079,54.767,83.477,52.799,83.477z"/>
	<path display="inline" fill="#414042" d="M58.405,16.169v11.32H12v108.342l17.979-18.198h63.62v-11.316h28.412L140,124.819V16.169
		H58.405z M89.969,114.002H28.461L15.63,126.988V31.12h74.338V114.002z M136.369,115.878l-12.826-13.192H93.599V27.489H62.035V19.8
		h74.334V115.878z"/>
</g>
<g>
	<polygon fill="#414042" points="35.615,24.721 35.615,61.422 39.246,61.422 39.246,28.351 124.741,28.351 124.741,123.649 
		39.246,123.649 39.246,90.536 35.615,90.536 35.615,127.279 128.371,127.279 128.371,24.721 	"/>
	<polygon fill="#414042" points="64.237,101.65 66.803,104.217 95.027,75.993 66.803,47.765 64.237,50.332 88.079,74.178 
		23.628,74.178 23.628,77.809 88.079,77.809 	"/>
</g>
<g display="none">
	<path display="inline" fill="#414042" d="M129.839,88.408c-2.527-0.652-4.967-1.631-7.254-2.899
		c-3.456-1.922-6.477-4.496-9.016-7.604V33.058h-25.59v-3.989H76.656v-3.205c0-5.222-4.247-9.469-9.469-9.469
		c-5.223,0-9.47,4.247-9.47,9.469v3.205H46.393v3.985h-25.59v102.55h92.77v-9.643c7.154-2.198,17.624-8.495,17.624-26.463V88.763
		L129.839,88.408z M50.023,32.699h11.324v-6.835c0-3.219,2.62-5.839,5.839-5.839c3.219,0,5.839,2.62,5.839,5.839v6.835H84.35v9.175
		H50.023V32.699z M24.434,131.974v-95.29h21.959v8.821h41.586v-8.817h21.96v41.225c-2.549,3.107-5.566,5.674-9.013,7.596
		c-2.279,1.269-4.719,2.247-7.25,2.899l-1.357,0.354v6.694H32.318v3.63h60.001v0.411c0,1.815,0.138,3.481,0.337,5.063H32.318v3.631
		h60.982c0.489,2.028,1.131,3.857,1.915,5.474H32.318v3.631h65.088c1.716,2.34,3.709,4.119,5.758,5.474H32.318v3.631h77.624v5.573
		H24.434z M127.566,99.498c0,15.543-8.491,21.216-15.809,23.215c-7.321-1.999-15.809-7.665-15.809-23.215v-7.955
		c2.344-0.709,4.605-1.674,6.743-2.865c3.403-1.893,6.445-4.332,9.065-7.268c2.613,2.929,5.651,5.367,9.063,7.268
		c2.141,1.191,4.406,2.156,6.746,2.865V99.498z"/>
	<path display="inline" fill="#414042" d="M67.187,23.006c-1.794,0-3.251,1.461-3.251,3.255s1.457,3.254,3.251,3.254
		s3.251-1.46,3.251-3.254S68.98,23.006,67.187,23.006z"/>
	<polygon display="inline" fill="#414042" points="88.675,55.708 86.107,53.142 60.872,78.377 48.261,65.763 45.695,68.33 
		60.872,83.509 	"/>
	<polygon display="inline" fill="#414042" points="113.573,93.386 109.942,93.386 109.942,99.768 103.562,99.768 103.562,103.398 
		109.942,103.398 109.942,109.779 113.573,109.779 113.573,103.398 119.951,103.398 119.951,99.768 113.573,99.768 	"/>
</g>
</svg>
