<?xml version="1.0" encoding="utf-8"?>
<!-- Generator: Adobe Illustrator 16.0.0, SVG Export Plug-In . SVG Version: 6.00 Build 0)  -->
<!DOCTYPE svg PUBLIC "-//W3C//DTD SVG 1.1//EN" "http://www.w3.org/Graphics/SVG/1.1/DTD/svg11.dtd">
<svg version="1.1" id="Layer_1" xmlns="http://www.w3.org/2000/svg" xmlns:xlink="http://www.w3.org/1999/xlink" x="0px" y="0px"
	 width="992px" height="284.949px" viewBox="0 0 992 284.949" enable-background="new 0 0 992 284.949" xml:space="preserve">
<path d="M775.133,112.263c0-52.711-42.726-95.437-95.437-95.437h-39.563v-0.178h-78.869c-3.704,0-6.703,3.004-6.703,6.699v50.921
	V96.89v3.93v36.031v64.336c0,3.694,2.999,6.697,6.703,6.697h78.869v-0.177h39.563C732.407,207.708,775.133,164.975,775.133,112.263z
	 M600.678,59.419h78.841c29.188,0,52.846,23.661,52.846,52.844c0,29.19-23.658,52.853-52.845,52.853h-78.842
	c-1.843,0-3.34-1.502-3.34-3.349v-99C597.338,60.92,598.835,59.419,600.678,59.419"/>
<path d="M919.488,55.821l-17.758-35.31c-1.134-2.259-3.455-3.686-5.979-3.686h-37.232c-2.533,0-4.847,1.427-5.979,3.686
	l-14.841,29.523l-74.703,147.962c-2.251,4.457,0.992,9.72,5.979,9.72h34.83c2.535,0,4.849-1.426,5.981-3.682l64.362-127.551
	c1.239-2.455,4.75-2.455,5.989,0l64.336,127.547c1.144,2.26,3.455,3.686,5.99,3.686h34.83c4.988,0,8.224-5.263,5.979-9.72
	L919.488,55.821z"/>
<path d="M476.102,207.885H327.91c-3.699,0-6.699-2.999-6.699-6.697v-29.373c0-3.694,3-6.698,6.699-6.698h148.191
	c8.685,0,15.729-7.044,15.729-15.728c0-8.691-7.044-15.736-15.729-15.736H419.43h-10.048h-37.555
	c-32.311,0-58.501-26.192-58.501-58.498c0-32.313,26.19-58.506,58.501-58.506h37.555h10.048h101.191c3.695,0,6.693,3,6.693,6.699
	V52.72c0,3.704-2.998,6.699-6.693,6.699H371.827c-8.688,0-15.732,7.044-15.732,15.735c0,8.684,7.044,15.729,15.732,15.729h104.274
	c32.307,0,58.497,26.191,58.497,58.506C534.599,181.693,508.407,207.885,476.102,207.885"/>
<polygon fill="#FF0000" points="275.818,204.74 197.013,204.74 157.61,136.496 118.208,204.74 78.805,272.992 0,272.992 
	39.402,204.74 78.805,136.496 118.208,68.244 157.61,0 197.013,68.244 236.42,136.496 "/>
<polygon fill="#FF0000" points="236.416,272.992 157.61,272.992 118.208,204.74 197.013,204.74 "/>
<polygon fill="#BE272D" points="236.416,272.992 197.013,204.74 275.818,204.74 "/>
<rect x="322.354" y="239.686" width="5.299" height="33.652"/>
<path d="M347.881,246.415c-2.777,0-5.271,0.962-7.407,2.856l-0.397-2.746l-5.016,0.828l0.812,5.924v20.061h5.082v-20.061
	c1.808-1.59,3.447-2.269,5.449-2.269c3.128,0,4.519,1.644,4.519,5.334v16.994h5.086v-18.526
	C356.006,249.716,352.816,246.415,347.881,246.415"/>
<path d="M383.093,235.202l-5.893,0.807l0.869,5.94v5.082c-0.877-0.195-1.91-0.283-3.203-0.283c-7.936,0-12.67,5.449-12.67,14.575
	c0,7.663,3.832,12.616,9.769,12.616c2.354,0,4.546-0.811,6.689-2.472l0.351,2.349l4.896-0.695l-0.808-5.941L383.093,235.202
	L383.093,235.202z M373.497,269.404c-4.228,0-6.105-2.911-6.105-9.445c0-4.081,1.853-8.844,7.089-8.844
	c1.799,0,2.697,0.253,3.588,0.594v15.958C376.891,268.584,375.517,269.404,373.497,269.404"/>
<path d="M411.287,246.53l-5.894,0.811l0.808,5.937v13.811c-1.781,1.626-3.42,2.317-5.449,2.317c-3.128,0-4.519-1.657-4.519-5.396
	V246.53l-5.893,0.811l0.812,5.937v12.265c0,5.104,3.189,8.399,8.125,8.399c2.751,0,5.24-0.948,7.402-2.817l0.398,2.702l5.015-0.824
	l-0.806-5.928V246.53z"/>
<path d="M429.858,258.814l-4.883-2.295c-1.046-0.496-2.468-1.168-2.468-2.853c0-1.83,1.387-2.716,4.249-2.716
	c2.145,0,3.854,0.615,5.378,1.283l0.337,0.146l1.736-4.439l-0.31-0.133c-2.34-0.992-4.391-1.396-7.089-1.396
	c-4.62,0-9.276,2.326-9.276,7.522c0,4.807,3.481,6.385,4.971,7.049l4.762,2.192c1.645,0.739,2.474,1.423,2.474,3.074
	c0,2.791-2.862,3.207-4.572,3.207c-1.644,0-3.544-0.481-5.657-1.448l-0.354-0.158l-1.538,4.491l0.278,0.138
	c1.94,0.918,4.528,1.403,7.487,1.403c5.591,0,9.494-3.429,9.494-8.346C434.878,262.555,433.283,260.419,429.858,258.814"/>
<path d="M452.617,268.314c-0.708,0.451-1.692,0.981-2.986,0.981c-2.06,0-3.039-0.629-3.039-4.19v-13.826h7.168v-4.266h-7.168v-4.972
	l-5.027,0.638v4.297l-3.774,0.764v3.539h3.774v15.303c0,4.506,2.613,7.305,6.813,7.305c2.844,0,4.352-0.708,6.025-1.635l0.273-0.154
	l-1.71-4.014L452.617,268.314z"/>
<path d="M464.344,249.698l-0.395-3.173l-5.021,0.824l0.808,5.928v20.061h5.076v-19.462c1.853-1.644,3.942-2.379,6.771-2.379h0.35
	v-5.024h-0.35C468.792,246.473,466.479,247.501,464.344,249.698"/>
<polygon points="476.704,253.282 476.704,273.338 481.781,273.338 481.781,246.53 475.889,247.341 "/>
<path d="M479.3,237.165c-1.979,0-3.526,1.546-3.526,3.526c0,1.979,1.546,3.531,3.526,3.531c1.914,0,3.469-1.587,3.469-3.531
	C482.769,238.746,481.214,237.165,479.3,237.165"/>
<path d="M506.52,254.873c0-5.141-3.509-8.453-8.943-8.453c-2.981,0-5.409,0.682-8.112,2.295l-0.279,0.159l1.884,3.837l0.31-0.154
	c1.746-0.848,3.137-1.44,5.161-1.44c3.474,0,4.958,1.711,4.958,5.725v1.98l-4.284,0.456c-5.879,0.623-9.126,3.375-9.126,7.744
	c0,4.306,2.733,6.974,7.142,6.974c2.946,0,4.998-1.349,6.734-2.906l0.35,2.737l5.077-0.824l-0.868-5.928v-12.201H506.52z
	 M501.496,262.492v5.023c-1.223,1.067-2.743,2.162-5.232,2.162c-1.944,0-3.149-1.228-3.149-3.208c0-1.993,1.426-3.03,4.785-3.485
	L501.496,262.492z"/>
<polygon points="514.521,241.949 514.521,273.338 519.604,273.338 519.604,235.202 513.71,236.009 "/>
<path d="M562.491,258.559h5.879v-4.15h-9.657l-0.018,0.333c-0.213,3.393-0.377,5.112-1.028,7.141l-7.425-6.024
	c3.455-2.821,5.542-4.972,5.542-9.582c0-4.268-2.915-7.137-7.248-7.137c-5.219,0-8.729,3.549-8.729,8.834
	c0,3.051,1.135,5.527,3.774,8.194c-3.03,2.597-5.308,4.998-5.308,9.321c0,5.166,3.748,8.507,9.548,8.507
	c4.683,0,8.363-1.755,10.96-5.215l7.049,5.631l2.897-3.668l-7.63-6.138C561.898,262.448,562.363,260.424,562.491,258.559
	 M548.146,243.177c2.375,0,3.212,1.905,3.212,3.535c0,2.915-1.271,4.479-4.116,6.761c-2.418-2.32-2.901-3.906-2.901-5.83
	C544.341,244.807,545.732,243.177,548.146,243.177 M546.573,258.807c0.058,0.045,0.124,0.094,0.189,0.146l8.732,7.193
	c-1.839,2.451-4.144,3.639-7.019,3.639c-3.261,0-5.448-2.057-5.448-5.122C543.029,262.617,544.226,260.641,546.573,258.807"/>
<path d="M607.51,267.304c-1.799,0.794-4.244,1.88-6.867,1.88c-7.594,0-10.979-4.041-10.979-13.104
	c0-8.374,5.521-12.188,10.65-12.188c3.013,0,4.962,0.764,6.866,1.608l0.319,0.146l2.028-4.639l-0.318-0.142
	c-2.614-1.13-4.9-1.781-8.843-1.781c-9.791,0-16.117,7.12-16.117,18.138c0,10.313,5.591,16.721,14.584,16.721
	c4.2,0,7.346-0.7,10.509-2.34l0.283-0.149l-1.799-4.293L607.51,267.304z"/>
<path d="M622.918,246.411c-6.973,0-11.297,5.28-11.297,13.769c0,8.998,3.907,13.762,11.297,13.762
	c6.973,0,11.297-5.272,11.297-13.762C634.215,251.174,630.308,246.411,622.918,246.411 M622.918,269.404
	c-4.049,0-6.104-3.164-6.104-9.394c0-6.096,1.993-9.063,6.104-9.063c4.059,0,6.105,3.146,6.105,9.339
	C629.023,266.427,627.029,269.404,622.918,269.404"/>
<path d="M667.53,246.415c-3.074,0-5.769,1.144-8.223,3.487c-1.418-2.217-3.881-3.487-6.831-3.487c-2.773,0-5.265,0.962-7.407,2.856
	l-0.399-2.746l-5.015,0.828l0.807,5.924v20.061h5.086V253.27c1.72-1.563,3.411-2.26,5.449-2.26c3.128,0,4.519,1.645,4.519,5.334
	v16.994h5.086v-18.195c0-0.752-0.098-1.466-0.142-1.793c1.551-1.494,3.563-2.34,5.538-2.34c3.207,0,4.572,1.596,4.572,5.334v16.994
	h5.031v-18.527C675.604,249.716,672.431,246.415,667.53,246.415"/>
<path d="M710.664,246.415c-3.075,0-5.77,1.144-8.232,3.487c-1.407-2.217-3.871-3.487-6.821-3.487c-2.773,0-5.271,0.962-7.407,2.856
	l-0.398-2.746l-5.016,0.828l0.814,5.924v20.061h5.077V253.27c1.72-1.563,3.411-2.26,5.449-2.26c3.128,0,4.52,1.645,4.52,5.334
	v16.994h5.086v-18.195c0-0.752-0.099-1.466-0.143-1.793c1.551-1.494,3.554-2.34,5.538-2.34c3.207,0,4.572,1.596,4.572,5.334v16.994
	h5.032v-18.527C718.735,249.716,715.563,246.415,710.664,246.415"/>
<path d="M743.182,267.854c-1.799,0.903-3.41,1.498-5.476,1.498c-5.219,0-7.62-2.912-7.753-9.429h15.045v-3.411
	c0-6.513-3.217-10.092-9.056-10.092c-6.558,0-10.97,5.462-10.97,13.592c0,8.984,4.19,13.93,11.793,13.93
	c3.217,0,5.77-0.621,8.268-2.021l0.283-0.15l-1.808-4.076L743.182,267.854z M735.73,250.619c2.869,0,4.366,1.87,4.455,5.543h-9.959
	C730.874,252.684,732.903,250.619,735.73,250.619"/>
<path d="M755.64,249.698l-0.39-3.173l-5.024,0.824l0.808,5.928v20.061h5.077v-19.462c1.852-1.644,3.941-2.379,6.77-2.379h0.354
	v-5.024h-0.354C760.088,246.473,757.775,247.501,755.64,249.698"/>
<path d="M777.933,251.115c1.809,0,3.386,0.515,4.688,1.02l0.338,0.129l1.604-4.604l-0.312-0.124
	c-1.914-0.753-3.907-1.121-6.104-1.121c-5.84,0-12.662,3.69-12.662,14.093c0,8.408,4.288,13.434,11.466,13.434
	c2.534,0,4.926-0.51,7.098-1.516l0.301-0.138l-1.735-4.195l-0.328,0.134c-1.427,0.61-2.782,1.178-4.457,1.178
	c-4.891,0-7.266-3.142-7.266-9.608C770.561,254.438,773.387,251.115,777.933,251.115"/>
<path d="M792.49,237.165c-1.977,0-3.526,1.546-3.526,3.526c0,1.979,1.551,3.531,3.526,3.531c1.914,0,3.474-1.587,3.474-3.531
	C795.964,238.746,794.404,237.165,792.49,237.165"/>
<polygon points="789.895,253.282 789.895,273.338 794.98,273.338 794.98,246.53 789.079,247.341 "/>
<path d="M819.719,254.873c0-5.141-3.518-8.453-8.949-8.453c-2.985,0-5.413,0.682-8.115,2.295l-0.274,0.159l1.878,3.837l0.319-0.154
	c1.735-0.848,3.128-1.44,5.156-1.44c3.474,0,4.952,1.711,4.952,5.725v1.98l-4.278,0.456c-5.883,0.623-9.126,3.375-9.126,7.744
	c0,4.306,2.736,6.974,7.142,6.974c2.941,0,4.997-1.349,6.733-2.906l0.346,2.737l5.077-0.824l-0.859-5.928L819.719,254.873
	L819.719,254.873z M814.686,262.492v5.023c-1.214,1.067-2.736,2.162-5.228,2.162c-1.949,0-3.154-1.228-3.154-3.208
	c0-1.993,1.427-3.03,4.785-3.485L814.686,262.492z"/>
<polygon points="827.711,241.949 827.711,273.338 832.797,273.338 832.797,235.202 826.904,236.009 "/>
<path d="M864.127,254.936l-5.307-2.623c-2.181-1.09-3.358-2.082-3.358-4.174c0-4.199,4.67-4.527,6.104-4.527
	c2.216,0,3.802,0.669,5.636,1.437l0.629,0.267l1.799-4.556l-0.337-0.118c-2.816-1.033-4.838-1.557-8.01-1.557
	c-6.45,0-10.969,3.792-10.969,9.215c0,5.18,2.896,7.266,6.007,8.745l5.147,2.464c2.782,1.338,4.396,2.569,4.396,4.944
	c0,3.181-2.091,4.789-6.211,4.789c-2.153,0-4.537-0.599-7.089-1.772l-0.337-0.158l-1.665,4.664l0.301,0.133
	c2.854,1.219,5.928,1.834,9.117,1.834c6.557,0,10.97-4.103,10.97-10.202C870.95,258.962,867.672,256.68,864.127,254.936"/>
<path d="M897,246.53l-5.893,0.811l0.814,5.937v13.811c-1.79,1.626-3.42,2.317-5.458,2.317c-3.128,0-4.519-1.657-4.519-5.396V246.53
	l-5.894,0.811l0.815,5.937v12.265c0,5.104,3.188,8.399,8.125,8.399c2.756,0,5.245-0.948,7.397-2.817l0.398,2.702l5.016-0.824
	L897,267.073V246.53z"/>
<path d="M916.299,246.411c-2.366,0-4.502,0.812-6.689,2.524l-0.347-2.41l-5.015,0.824l0.807,5.933v31.663l5.086-0.824V273.32
	c0.922,0.199,1.977,0.291,3.261,0.291c8.063,0,12.503-5.219,12.503-14.689C925.903,250.854,922.492,246.411,916.299,246.411
	 M910.141,252.844c1.055-0.854,2.533-1.785,4.679-1.785c4.209,0,6.008,2.726,6.008,9.121c0,5.637-2.658,9.008-7.099,9.008
	c-1.407,0-2.533-0.187-3.588-0.599V252.844L910.141,252.844z"/>
<path d="M943.395,246.411c-2.366,0-4.502,0.812-6.689,2.524l-0.346-2.41l-5.016,0.824l0.807,5.933v31.663l5.086-0.824V273.32
	c0.912,0.199,1.968,0.291,3.261,0.291c8.063,0,12.502-5.219,12.502-14.689C952.998,250.854,949.587,246.411,943.395,246.411
	 M937.235,252.844c1.055-0.854,2.534-1.785,4.679-1.785c4.209,0,5.998,2.726,5.998,9.121c0,5.637-2.648,9.008-7.088,9.008
	c-1.418,0-2.534-0.187-3.589-0.599V252.844z"/>
<polygon points="959.13,241.949 959.13,273.338 964.216,273.338 964.216,235.202 958.324,236.009 "/>
<path d="M986.491,247.018l-6.237,17.683l-6.867-18.519l-5.016,1.328l9.295,23.941c-2.029,4.979-5.848,8.07-11.35,9.184l-0.355,0.075
	l0.975,4.239l0.338-0.066c9.33-1.896,12.884-6.813,15.586-14.133l8.71-23.732H986.491L986.491,247.018z"/>
</svg>
