<?xml version="1.0" encoding="utf-8"?>
<!-- Generator: Adobe Illustrator 16.0.0, SVG Export Plug-In . SVG Version: 6.00 Build 0)  -->
<!DOCTYPE svg PUBLIC "-//W3C//DTD SVG 1.1//EN" "http://www.w3.org/Graphics/SVG/1.1/DTD/svg11.dtd">
<svg version="1.1" id="Layer_1" xmlns="http://www.w3.org/2000/svg" xmlns:xlink="http://www.w3.org/1999/xlink" x="0px" y="0px"
	 width="992px" height="284.949px" viewBox="0 0 992 284.949" enable-background="new 0 0 992 284.949" xml:space="preserve">
<path fill-rule="evenodd" clip-rule="evenodd" fill="#FFFFFF" d="M775.133,112.263c0-52.711-42.726-95.437-95.437-95.437h-39.563
	v-0.178h-78.869c-3.704,0-6.703,3.004-6.703,6.699v50.921V96.89v3.93v36.031v64.336c0,3.695,2.999,6.698,6.703,6.698h78.869v-0.177
	h39.563C732.407,207.708,775.133,164.974,775.133,112.263z M600.678,59.419h78.841c29.187,0,52.845,23.661,52.845,52.844
	c0,29.19-23.658,52.853-52.845,52.853h-78.841c-1.843,0-3.34-1.502-3.34-3.349V62.768C597.338,60.92,598.835,59.419,600.678,59.419"
	/>
<path fill-rule="evenodd" clip-rule="evenodd" fill="#FFFFFF" d="M919.488,55.821l-17.757-35.31
	c-1.134-2.259-3.456-3.686-5.98-3.686h-37.232c-2.534,0-4.847,1.427-5.98,3.686l-14.841,29.523l-74.703,147.962
	c-2.251,4.457,0.992,9.72,5.98,9.72h34.83c2.535,0,4.848-1.426,5.981-3.682l64.362-127.551c1.24-2.455,4.75-2.455,5.99,0
	l64.336,127.547c1.143,2.26,3.455,3.686,5.99,3.686h34.83c4.988,0,8.223-5.263,5.98-9.72L919.488,55.821z"/>
<path fill-rule="evenodd" clip-rule="evenodd" fill="#FFFFFF" d="M476.102,207.885H327.91c-3.699,0-6.699-2.999-6.699-6.698v-29.372
	c0-3.695,3-6.699,6.699-6.699h148.192c8.684,0,15.728-7.044,15.728-15.727c0-8.692-7.044-15.736-15.728-15.736H419.43h-10.048
	h-37.555c-32.31,0-58.501-26.192-58.501-58.498c0-32.313,26.191-58.506,58.501-58.506h37.555h10.048h101.191
	c3.695,0,6.694,3,6.694,6.699V52.72c0,3.704-2.999,6.699-6.694,6.699H371.827c-8.688,0-15.732,7.044-15.732,15.735
	c0,8.684,7.044,15.729,15.732,15.729h104.275c32.306,0,58.497,26.191,58.497,58.506
	C534.599,181.693,508.407,207.885,476.102,207.885"/>
<polygon fill="#FF0000" points="275.818,204.74 197.013,204.74 157.61,136.496 118.208,204.74 78.805,272.992 0,272.992 
	39.402,204.74 78.805,136.496 118.208,68.244 157.61,0 197.013,68.244 236.42,136.496 "/>
<polygon fill="#FF0000" points="236.416,272.992 157.61,272.992 118.208,204.74 197.013,204.74 "/>
<polygon fill="#BE272D" points="236.416,272.992 197.013,204.74 275.818,204.74 "/>
<rect x="322.354" y="239.686" fill="#FFFFFF" width="5.298" height="33.652"/>
<path fill="#FFFFFF" d="M347.881,246.415c-2.777,0-5.271,0.962-7.407,2.857l-0.398-2.747l-5.015,0.829l0.811,5.923v20.061h5.082
	v-20.061c1.808-1.59,3.447-2.268,5.449-2.268c3.128,0,4.519,1.644,4.519,5.334v16.994h5.086v-18.527
	C356.006,249.716,352.816,246.415,347.881,246.415"/>
<path fill="#FFFFFF" d="M383.093,235.202l-5.893,0.807l0.869,5.94v5.082c-0.877-0.195-1.91-0.283-3.203-0.283
	c-7.935,0-12.67,5.449-12.67,14.575c0,7.664,3.832,12.617,9.769,12.617c2.353,0,4.546-0.811,6.689-2.472l0.351,2.348l4.896-0.695
	l-0.807-5.941V235.202z M373.497,269.404c-4.227,0-6.105-2.911-6.105-9.445c0-4.081,1.852-8.844,7.088-8.844
	c1.799,0,2.698,0.253,3.588,0.594v15.958C376.891,268.584,375.517,269.404,373.497,269.404"/>
<path fill="#FFFFFF" d="M411.287,246.53l-5.893,0.811l0.807,5.937v13.81c-1.781,1.626-3.42,2.317-5.449,2.317
	c-3.128,0-4.519-1.657-4.519-5.396V246.53l-5.892,0.811l0.811,5.937v12.264c0,5.104,3.19,8.399,8.125,8.399
	c2.751,0,5.241-0.948,7.403-2.817l0.398,2.702l5.015-0.824l-0.806-5.928V246.53z"/>
<path fill="#FFFFFF" d="M429.858,258.815l-4.882-2.295c-1.046-0.496-2.468-1.169-2.468-2.853c0-1.83,1.387-2.716,4.249-2.716
	c2.144,0,3.854,0.615,5.378,1.284l0.337,0.146l1.736-4.439l-0.31-0.133c-2.339-0.992-4.39-1.396-7.088-1.396
	c-4.621,0-9.277,2.326-9.277,7.522c0,4.807,3.482,6.385,4.971,7.049l4.762,2.193c1.644,0.739,2.473,1.422,2.473,3.074
	c0,2.791-2.862,3.207-4.572,3.207c-1.644,0-3.544-0.482-5.657-1.448l-0.354-0.159l-1.538,4.492l0.279,0.137
	c1.94,0.918,4.528,1.404,7.487,1.404c5.591,0,9.494-3.429,9.494-8.346C434.878,262.555,433.283,260.419,429.858,258.815"/>
<path fill="#FFFFFF" d="M452.617,268.314c-0.708,0.451-1.692,0.982-2.986,0.982c-2.06,0-3.039-0.629-3.039-4.19v-13.827h7.168
	v-4.266h-7.168v-4.971l-5.028,0.638v4.297l-3.774,0.763v3.539h3.774v15.303c0,4.506,2.614,7.305,6.813,7.305
	c2.844,0,4.351-0.708,6.025-1.635l0.274-0.154l-1.71-4.014L452.617,268.314z"/>
<path fill="#FFFFFF" d="M464.344,249.698l-0.395-3.173l-5.02,0.824l0.807,5.928v20.061h5.077v-19.462
	c1.852-1.644,3.942-2.379,6.77-2.379h0.35v-5.024h-0.35C468.792,246.473,466.479,247.501,464.344,249.698"/>
<polygon fill="#FFFFFF" points="476.704,253.282 476.704,273.338 481.781,273.338 481.781,246.53 475.889,247.341 "/>
<path fill="#FFFFFF" d="M479.3,237.165c-1.98,0-3.527,1.546-3.527,3.526s1.546,3.531,3.527,3.531c1.914,0,3.469-1.586,3.469-3.531
	S481.214,237.165,479.3,237.165"/>
<path fill="#FFFFFF" d="M506.52,254.873c0-5.14-3.509-8.453-8.944-8.453c-2.981,0-5.409,0.682-8.112,2.295l-0.279,0.159l1.883,3.837
	l0.31-0.155c1.746-0.847,3.137-1.44,5.161-1.44c3.474,0,4.958,1.711,4.958,5.725v1.98l-4.284,0.456
	c-5.879,0.624-9.126,3.376-9.126,7.744c0,4.306,2.733,6.974,7.142,6.974c2.946,0,4.998-1.348,6.734-2.906l0.35,2.737l5.077-0.824
	l-0.868-5.928V254.873z M501.496,262.492v5.024c-1.223,1.067-2.743,2.162-5.232,2.162c-1.945,0-3.15-1.228-3.15-3.208
	c0-1.993,1.426-3.03,4.785-3.486L501.496,262.492z"/>
<polygon fill="#FFFFFF" points="514.521,241.949 514.521,273.338 519.603,273.338 519.603,235.202 513.71,236.009 "/>
<path fill="#FFFFFF" d="M562.491,258.559h5.879v-4.151h-9.657l-0.018,0.333c-0.213,3.393-0.377,5.112-1.028,7.141l-7.425-6.024
	c3.455-2.822,5.542-4.972,5.542-9.583c0-4.267-2.915-7.137-7.248-7.137c-5.219,0-8.728,3.549-8.728,8.834
	c0,3.052,1.134,5.528,3.774,8.195c-3.03,2.597-5.308,4.998-5.308,9.321c0,5.166,3.748,8.507,9.548,8.507
	c4.683,0,8.364-1.755,10.96-5.215l7.049,5.631l2.897-3.668l-7.629-6.137C561.898,262.448,562.363,260.424,562.491,258.559
	 M548.146,243.177c2.375,0,3.212,1.905,3.212,3.535c0,2.915-1.271,4.479-4.116,6.761c-2.418-2.321-2.901-3.907-2.901-5.83
	C544.341,244.807,545.732,243.177,548.146,243.177 M546.573,258.807c0.058,0.044,0.124,0.093,0.19,0.146l8.732,7.194
	c-1.839,2.45-4.143,3.638-7.018,3.638c-3.261,0-5.449-2.056-5.449-5.122C543.029,262.617,544.226,260.641,546.573,258.807"/>
<path fill="#FFFFFF" d="M607.51,267.304c-1.799,0.793-4.244,1.879-6.867,1.879c-7.594,0-10.979-4.041-10.979-13.104
	c0-8.374,5.521-12.188,10.65-12.188c3.013,0,4.962,0.763,6.867,1.608l0.319,0.146l2.028-4.639l-0.318-0.142
	c-2.614-1.13-4.9-1.781-8.843-1.781c-9.791,0-16.117,7.12-16.117,18.138c0,10.313,5.591,16.72,14.584,16.72
	c4.2,0,7.346-0.7,10.509-2.339l0.283-0.15l-1.799-4.293L607.51,267.304z"/>
<path fill="#FFFFFF" d="M622.918,246.411c-6.973,0-11.297,5.28-11.297,13.769c0,8.998,3.907,13.761,11.297,13.761
	c6.973,0,11.297-5.272,11.297-13.761C634.215,251.174,630.308,246.411,622.918,246.411 M622.918,269.404
	c-4.049,0-6.105-3.164-6.105-9.393c0-6.096,1.994-9.064,6.105-9.064c4.059,0,6.105,3.146,6.105,9.339
	C629.023,266.427,627.029,269.404,622.918,269.404"/>
<path fill="#FFFFFF" d="M667.53,246.415c-3.074,0-5.768,1.144-8.222,3.487c-1.418-2.216-3.881-3.487-6.832-3.487
	c-2.773,0-5.264,0.962-7.407,2.857l-0.399-2.747l-5.015,0.829l0.807,5.923v20.061h5.086v-20.069
	c1.719-1.563,3.411-2.259,5.449-2.259c3.128,0,4.519,1.644,4.519,5.334v16.994h5.086v-18.195c0-0.753-0.098-1.466-0.142-1.794
	c1.551-1.493,3.562-2.339,5.538-2.339c3.207,0,4.572,1.595,4.572,5.334v16.994h5.032v-18.527
	C675.603,249.716,672.431,246.415,667.53,246.415"/>
<path fill="#FFFFFF" d="M710.664,246.415c-3.075,0-5.769,1.144-8.232,3.487c-1.408-2.216-3.871-3.487-6.822-3.487
	c-2.773,0-5.271,0.962-7.407,2.857l-0.398-2.747l-5.016,0.829l0.815,5.923v20.061h5.077v-20.069
	c1.719-1.563,3.411-2.259,5.449-2.259c3.128,0,4.519,1.644,4.519,5.334v16.994h5.086v-18.195c0-0.753-0.098-1.466-0.142-1.794
	c1.551-1.493,3.554-2.339,5.538-2.339c3.207,0,4.572,1.595,4.572,5.334v16.994h5.032v-18.527
	C718.735,249.716,715.563,246.415,710.664,246.415"/>
<path fill="#FFFFFF" d="M743.182,267.854c-1.799,0.903-3.411,1.497-5.476,1.497c-5.219,0-7.62-2.911-7.753-9.428h15.045v-3.411
	c0-6.513-3.217-10.092-9.056-10.092c-6.557,0-10.969,5.462-10.969,13.592c0,8.984,4.19,13.929,11.793,13.929
	c3.216,0,5.769-0.62,8.267-2.021l0.283-0.15l-1.807-4.076L743.182,267.854z M735.73,250.619c2.87,0,4.367,1.87,4.456,5.543h-9.959
	C730.874,252.684,732.903,250.619,735.73,250.619"/>
<path fill="#FFFFFF" d="M755.64,249.698l-0.39-3.173l-5.024,0.824l0.807,5.928v20.061h5.077v-19.462
	c1.852-1.644,3.942-2.379,6.77-2.379h0.354v-5.024h-0.354C760.088,246.473,757.775,247.501,755.64,249.698"/>
<path fill="#FFFFFF" d="M777.933,251.115c1.808,0,3.385,0.515,4.687,1.02l0.338,0.129l1.604-4.604l-0.311-0.124
	c-1.914-0.753-3.907-1.121-6.104-1.121c-5.839,0-12.662,3.69-12.662,14.093c0,8.408,4.288,13.433,11.466,13.433
	c2.534,0,4.926-0.51,7.098-1.515l0.301-0.138l-1.736-4.195l-0.328,0.133c-1.427,0.611-2.782,1.179-4.457,1.179
	c-4.891,0-7.266-3.142-7.266-9.609C770.561,254.438,773.387,251.115,777.933,251.115"/>
<path fill="#FFFFFF" d="M792.49,237.165c-1.976,0-3.526,1.546-3.526,3.526s1.551,3.531,3.526,3.531c1.914,0,3.474-1.586,3.474-3.531
	S794.404,237.165,792.49,237.165"/>
<polygon fill="#FFFFFF" points="789.895,253.282 789.895,273.338 794.98,273.338 794.98,246.53 789.079,247.341 "/>
<path fill="#FFFFFF" d="M819.719,254.873c0-5.14-3.518-8.453-8.949-8.453c-2.986,0-5.414,0.682-8.116,2.295l-0.274,0.159
	l1.878,3.837l0.319-0.155c1.736-0.847,3.128-1.44,5.156-1.44c3.474,0,4.953,1.711,4.953,5.725v1.98l-4.279,0.456
	c-5.883,0.624-9.126,3.376-9.126,7.744c0,4.306,2.737,6.974,7.142,6.974c2.941,0,4.997-1.348,6.733-2.906l0.346,2.737l5.077-0.824
	l-0.859-5.928V254.873z M814.686,262.492v5.024c-1.214,1.067-2.737,2.162-5.228,2.162c-1.949,0-3.154-1.228-3.154-3.208
	c0-1.993,1.427-3.03,4.785-3.486L814.686,262.492z"/>
<polygon fill="#FFFFFF" points="827.711,241.949 827.711,273.338 832.797,273.338 832.797,235.202 826.904,236.009 "/>
<path fill="#FFFFFF" d="M864.127,254.935l-5.307-2.623c-2.18-1.09-3.358-2.082-3.358-4.173c0-4.2,4.67-4.527,6.104-4.527
	c2.216,0,3.802,0.668,5.636,1.436l0.629,0.266l1.799-4.555l-0.337-0.119c-2.817-1.033-4.838-1.556-8.01-1.556
	c-6.45,0-10.969,3.792-10.969,9.215c0,5.179,2.896,7.266,6.007,8.745l5.148,2.464c2.782,1.338,4.395,2.569,4.395,4.944
	c0,3.181-2.091,4.789-6.211,4.789c-2.153,0-4.537-0.599-7.089-1.772l-0.337-0.159l-1.665,4.665l0.301,0.133
	c2.854,1.218,5.928,1.834,9.117,1.834c6.557,0,10.97-4.103,10.97-10.203C870.95,258.962,867.672,256.68,864.127,254.935"/>
<path fill="#FFFFFF" d="M897,246.53l-5.893,0.811l0.815,5.937v13.81c-1.79,1.626-3.42,2.317-5.458,2.317
	c-3.128,0-4.519-1.657-4.519-5.396V246.53l-5.893,0.811l0.815,5.937v12.264c0,5.104,3.189,8.399,8.125,8.399
	c2.756,0,5.245-0.948,7.398-2.817l0.398,2.702l5.016-0.824L897,267.073V246.53z"/>
<path fill="#FFFFFF" d="M916.299,246.411c-2.366,0-4.502,0.811-6.69,2.524l-0.346-2.41l-5.015,0.824l0.807,5.933v31.663l5.086-0.824
	V273.32c0.921,0.199,1.976,0.292,3.26,0.292c8.063,0,12.503-5.219,12.503-14.69C925.903,250.854,922.492,246.411,916.299,246.411
	 M910.141,252.844c1.054-0.855,2.533-1.785,4.678-1.785c4.209,0,6.008,2.725,6.008,9.121c0,5.636-2.658,9.007-7.098,9.007
	c-1.408,0-2.534-0.186-3.588-0.598V252.844z"/>
<path fill="#FFFFFF" d="M943.394,246.411c-2.366,0-4.501,0.811-6.689,2.524l-0.346-2.41l-5.015,0.824l0.806,5.933v31.663
	l5.086-0.824V273.32c0.913,0.199,1.968,0.292,3.261,0.292c8.063,0,12.502-5.219,12.502-14.69
	C952.998,250.854,949.587,246.411,943.394,246.411 M937.235,252.844c1.055-0.855,2.534-1.785,4.679-1.785
	c4.209,0,5.998,2.725,5.998,9.121c0,5.636-2.648,9.007-7.088,9.007c-1.418,0-2.534-0.186-3.589-0.598V252.844z"/>
<polygon fill="#FFFFFF" points="959.13,241.949 959.13,273.338 964.216,273.338 964.216,235.202 958.324,236.009 "/>
<path fill="#FFFFFF" d="M986.491,247.018l-6.237,17.682l-6.867-18.519l-5.016,1.329l9.295,23.941
	c-2.029,4.979-5.848,8.071-11.35,9.184l-0.355,0.075l0.975,4.239l0.337-0.066c9.33-1.896,12.884-6.813,15.586-14.133l8.71-23.732
	H986.491z"/>
</svg>
