<?xml version="1.0" encoding="UTF-8"?>
<!DOCTYPE svg PUBLIC "-//W3C//DTD SVG 1.1//EN" "http://www.w3.org/Graphics/SVG/1.1/DTD/svg11.dtd">
<svg xmlns="http://www.w3.org/2000/svg" version="1.1" width="256px" height="256px" style="shape-rendering:geometricPrecision; text-rendering:geometricPrecision; image-rendering:optimizeQuality; fill-rule:evenodd; clip-rule:evenodd" xmlns:xlink="http://www.w3.org/1999/xlink">
<g><path style="opacity:1" fill="#fefdfd" d="M -0.5,-0.5 C 84.8333,-0.5 170.167,-0.5 255.5,-0.5C 255.5,84.8333 255.5,170.167 255.5,255.5C 170.167,255.5 84.8333,255.5 -0.5,255.5C -0.5,170.167 -0.5,84.8333 -0.5,-0.5 Z"/></g>
<g><path style="opacity:1" fill="#fd5207" d="M 178.5,18.5 C 186.717,18.5283 191.883,22.5283 194,30.5C 196.515,40.6101 194.015,49.1101 186.5,56C 179.799,58.5691 174.633,56.7358 171,50.5C 167.667,42.1667 167.667,33.8333 171,25.5C 172.742,22.2543 175.242,19.921 178.5,18.5 Z"/></g>
<g><path style="opacity:1" fill="#fd5103" d="M 226.5,37.5 C 249.579,36.6028 257.413,47.2695 250,69.5C 240.859,87.986 226.025,96.486 205.5,95C 196.702,89.5691 193.202,81.7358 195,71.5C 200.16,55.1751 210.66,43.8418 226.5,37.5 Z"/></g>
<g><path style="opacity:1" fill="#4e4e4e" d="M 111.5,47.5 C 100.482,47.3808 89.4816,47.7141 78.5,48.5C 84.5868,46.9506 90.9201,46.2839 97.5,46.5C 102.346,46.5008 107.012,46.8341 111.5,47.5 Z"/></g>
<g><path style="opacity:1" fill="#1b1b1b" d="M 111.5,47.5 C 141.72,52.0236 165.22,67.0236 182,92.5C 187.192,101.247 190.692,110.581 192.5,120.5C 194.431,132.463 194.764,144.463 193.5,156.5C 188.619,183.891 174.619,205.391 151.5,221C 104.891,246.479 62.7241,240.646 25,203.5C 1.17213,172.708 -3.82787,139.041 10,102.5C 23.9316,73.1275 46.765,55.1275 78.5,48.5C 89.4816,47.7141 100.482,47.3808 111.5,47.5 Z"/></g>
<g><path style="opacity:1" fill="#a6a6a6" d="M 108.5,78.5 C 100.149,78.4815 91.8156,78.8148 83.5,79.5C 88.2449,78.001 93.2449,77.3343 98.5,77.5C 102.018,77.5016 105.351,77.8349 108.5,78.5 Z"/></g>
<g><path style="opacity:1" fill="#fdfdfd" d="M 108.5,78.5 C 128.527,81.9374 144.027,92.2707 155,109.5C 158.262,114.79 160.428,120.457 161.5,126.5C 162.07,134.154 162.404,141.821 162.5,149.5C 156.904,179.264 139.237,197.431 109.5,204C 75.6912,207.814 51.8578,194.314 38,163.5C 28.0921,130.83 37.2587,104.996 65.5,86C 71.2095,82.931 77.2095,80.7644 83.5,79.5C 91.8156,78.8148 100.149,78.4815 108.5,78.5 Z"/></g>
<g><path style="opacity:1" fill="#ff9e72" d="M 228.5,107.5 C 224.007,107.269 219.674,107.936 215.5,109.5C 216.347,108.034 217.68,107.2 219.5,107C 222.696,106.195 225.696,106.362 228.5,107.5 Z"/></g>
<g><path style="opacity:1" fill="#fd5308" d="M 228.5,107.5 C 236.693,109.008 242.86,113.342 247,120.5C 248.236,128.257 245.069,133.091 237.5,135C 228.205,136.929 220.371,134.429 214,127.5C 210.267,122.569 209.6,117.236 212,111.5C 212.816,110.177 213.983,109.511 215.5,109.5C 219.674,107.936 224.007,107.269 228.5,107.5 Z"/></g>
<g><path style="opacity:1" fill="#555555" d="M 192.5,120.5 C 193.268,121.263 193.768,122.263 194,123.5C 195.379,133.468 195.713,143.468 195,153.5C 194.768,154.737 194.268,155.737 193.5,156.5C 194.764,144.463 194.431,132.463 192.5,120.5 Z"/></g>
<g><path style="opacity:1" fill="#a3a3a3" d="M 161.5,126.5 C 163.025,130.728 163.692,135.228 163.5,140C 163.498,143.352 163.165,146.518 162.5,149.5C 162.404,141.821 162.07,134.154 161.5,126.5 Z"/></g>
</svg>
