<?xml version="1.0" encoding="utf-8"?>
<!-- Generator: Adobe Illustrator 16.0.0, SVG Export Plug-In . SVG Version: 6.00 Build 0)  -->
<!DOCTYPE svg PUBLIC "-//W3C//DTD SVG 1.1//EN" "http://www.w3.org/Graphics/SVG/1.1/DTD/svg11.dtd">
<svg version="1.1" id="Layer_1" xmlns="http://www.w3.org/2000/svg" xmlns:xlink="http://www.w3.org/1999/xlink" x="0px" y="0px"
	 width="512px" height="114.993px" viewBox="0 0 512 114.993" enable-background="new 0 0 512 114.993" xml:space="preserve">
<g>
	<polygon fill="none" stroke="#8A2C2D" stroke-width="1.357" stroke-miterlimit="10" points="35.56,112.529 0,2.617 24.785,2.617 
		49.261,79.894 49.57,79.894 74.353,2.617 99.292,2.617 62.808,112.529 	"/>
	
		<rect x="108.681" y="2.617" fill="none" stroke="#8A2C2D" stroke-width="1.357" stroke-miterlimit="10" width="24.168" height="109.912"/>
	<path fill="none" stroke="#8A2C2D" stroke-width="1.357" stroke-miterlimit="10" d="M172.565,85.436
		c1.333,2.566,3.104,4.645,5.312,6.234c2.206,1.592,4.796,2.771,7.774,3.541c2.974,0.769,6.053,1.154,9.236,1.154
		c2.154,0,4.464-0.178,6.927-0.539c2.462-0.358,4.771-1.051,6.928-2.078c2.154-1.023,3.949-2.437,5.388-4.233
		c1.436-1.795,2.155-4.079,2.155-6.85c0-2.976-0.951-5.389-2.848-7.235c-1.9-1.848-4.389-3.387-7.467-4.618
		c-3.079-1.232-6.569-2.31-10.469-3.233c-3.9-0.924-7.85-1.947-11.853-3.078c-4.106-1.025-8.108-2.282-12.008-3.772
		c-3.9-1.486-7.389-3.41-10.468-5.771c-3.078-2.36-5.568-5.313-7.465-8.853c-1.9-3.54-2.849-7.824-2.849-12.854
		c0-5.642,1.204-10.544,3.618-14.7c2.41-4.157,5.565-7.621,9.467-10.392c3.898-2.77,8.313-4.822,13.238-6.157
		C182.109,0.669,187.036,0,191.961,0c5.746,0,11.263,0.642,16.549,1.924c5.284,1.285,9.979,3.363,14.085,6.234
		c4.104,2.875,7.362,6.543,9.775,11.008c2.41,4.463,3.617,9.878,3.617,16.24h-23.398c-0.206-3.283-0.899-6.005-2.078-8.159
		c-1.181-2.155-2.746-3.849-4.695-5.081c-1.949-1.23-4.183-2.101-6.696-2.616c-2.516-0.512-5.261-0.77-8.235-0.77
		c-1.951,0-3.901,0.207-5.85,0.615c-1.951,0.412-3.722,1.131-5.312,2.155c-1.593,1.027-2.9,2.311-3.925,3.85
		c-1.027,1.54-1.539,3.49-1.539,5.85c0,2.154,0.408,3.9,1.23,5.233c0.82,1.336,2.437,2.566,4.85,3.694
		c2.41,1.131,5.746,2.26,10.006,3.387c4.258,1.131,9.826,2.566,16.703,4.312c2.052,0.41,4.898,1.153,8.543,2.231
		c3.643,1.078,7.259,2.797,10.854,5.157c3.591,2.361,6.695,5.518,9.313,9.467c2.617,3.952,3.926,9.005,3.926,15.163
		c0,5.03-0.977,9.698-2.925,14.009c-1.951,4.311-4.85,8.031-8.698,11.16c-3.848,3.132-8.62,5.568-14.316,7.313
		c-5.695,1.744-12.291,2.617-19.781,2.617c-6.057,0-11.93-0.745-17.626-2.232c-5.696-1.486-10.726-3.821-15.085-7.005
		c-4.363-3.179-7.827-7.233-10.392-12.16c-2.566-4.927-3.798-10.776-3.694-17.55h23.398C170.564,79.74,171.23,82.873,172.565,85.436
		z"/>
	
		<rect x="253.998" y="2.617" fill="none" stroke="#8A2C2D" stroke-width="1.357" stroke-miterlimit="10" width="24.168" height="109.912"/>
	<path fill="none" stroke="#8A2C2D" stroke-width="1.357" stroke-miterlimit="10" d="M298.332,35.175
		c2.463-7.029,6.004-13.162,10.621-18.396c4.619-5.234,10.289-9.336,17.012-12.315C332.684,1.488,340.254,0,348.67,0
		c8.518,0,16.111,1.488,22.783,4.464c6.67,2.979,12.314,7.081,16.934,12.315s8.16,11.367,10.621,18.396
		c2.463,7.03,3.695,14.649,3.695,22.859c0,8.004-1.232,15.471-3.695,22.398c-2.461,6.928-6.002,12.957-10.621,18.088
		c-4.619,5.133-10.264,9.159-16.934,12.084c-6.672,2.925-14.266,4.388-22.783,4.388c-8.416,0-15.986-1.463-22.705-4.388
		c-6.723-2.925-12.393-6.951-17.012-12.084c-4.617-5.131-8.158-11.16-10.621-18.088s-3.693-14.395-3.693-22.398
		C294.639,49.825,295.869,42.206,298.332,35.175z M320.422,71.504c1.078,4.363,2.795,8.289,5.156,11.776
		c2.359,3.49,5.439,6.287,9.236,8.39c3.797,2.104,8.414,3.156,13.855,3.156c5.438,0,10.057-1.052,13.855-3.156
		c3.795-2.103,6.873-4.899,9.236-8.39c2.359-3.487,4.08-7.413,5.156-11.776c1.078-4.361,1.617-8.852,1.617-13.47
		c0-4.823-0.539-9.491-1.617-14.009c-1.076-4.515-2.797-8.542-5.156-12.084c-2.363-3.54-5.441-6.362-9.236-8.467
		c-3.799-2.102-8.418-3.157-13.855-3.157c-5.441,0-10.059,1.056-13.855,3.157c-3.797,2.104-6.877,4.927-9.236,8.467
		c-2.361,3.542-4.078,7.569-5.156,12.084c-1.078,4.518-1.615,9.186-1.615,14.009C318.807,62.653,319.344,67.143,320.422,71.504z"/>
	<polygon fill="none" stroke="#8A2C2D" stroke-width="1.357" stroke-miterlimit="10" points="443.189,2.617 489.063,76.353 
		489.371,76.353 489.371,2.617 512,2.617 512,112.529 487.832,112.529 442.111,38.947 441.805,38.947 441.805,112.529 
		419.174,112.529 419.174,2.617 	"/>
</g>
</svg>
