<?xml version="1.0" encoding="utf-8"?>
<!-- Generator: Adobe Illustrator 16.0.0, SVG Export Plug-In . SVG Version: 6.00 Build 0)  -->
<!DOCTYPE svg PUBLIC "-//W3C//DTD SVG 1.1//EN" "http://www.w3.org/Graphics/SVG/1.1/DTD/svg11.dtd">
<svg version="1.1" id="Layer_1" xmlns="http://www.w3.org/2000/svg" xmlns:xlink="http://www.w3.org/1999/xlink" x="0px" y="0px"
	 width="542.972px" height="115px" viewBox="0 0 542.972 115" enable-background="new 0 0 542.972 115" xml:space="preserve">
<g>
	<polygon fill="none" stroke="#FFFFFF" stroke-width="1.357" stroke-miterlimit="10" points="34.023,2.618 59.732,78.206 
		60.04,78.206 84.364,2.618 118.386,2.618 118.386,112.536 95.755,112.536 95.755,34.639 95.448,34.639 68.506,112.536 
		49.878,112.536 22.938,35.408 22.629,35.408 22.629,112.536 0,112.536 0,2.618 	"/>
	
		<rect x="139.631" y="2.618" fill="none" stroke="#FFFFFF" stroke-width="1.357" stroke-miterlimit="10" width="24.169" height="109.918"/>
	<path fill="none" stroke="#FFFFFF" stroke-width="1.357" stroke-miterlimit="10" d="M203.519,85.442
		c1.332,2.566,3.103,4.644,5.312,6.234c2.205,1.593,4.796,2.771,7.773,3.54c2.977,0.771,6.055,1.155,9.237,1.155
		c2.155,0,4.465-0.178,6.928-0.539c2.464-0.358,4.772-1.051,6.929-2.078c2.154-1.025,3.949-2.437,5.387-4.233
		c1.436-1.795,2.156-4.079,2.156-6.851c0-2.976-0.95-5.388-2.849-7.235c-1.9-1.848-4.388-3.388-7.466-4.619
		c-3.079-1.231-6.57-2.309-10.469-3.233c-3.902-0.923-7.852-1.948-11.854-3.078c-4.106-1.025-8.11-2.283-12.01-3.771
		c-3.901-1.487-7.388-3.411-10.468-5.773c-3.079-2.359-5.569-5.312-7.466-8.853c-1.901-3.54-2.849-7.824-2.849-12.855
		c0-5.643,1.205-10.544,3.617-14.7c2.411-4.157,5.566-7.621,9.469-10.392c3.899-2.771,8.313-4.823,13.239-6.157S217.99,0,222.917,0
		c5.746,0,11.263,0.644,16.55,1.925c5.284,1.284,9.979,3.363,14.086,6.235c4.104,2.874,7.362,6.542,9.775,11.007
		c2.41,4.464,3.618,9.88,3.618,16.241h-23.4c-0.206-3.283-0.9-6.004-2.078-8.159c-1.182-2.155-2.747-3.849-4.695-5.08
		c-1.951-1.231-4.184-2.103-6.697-2.617c-2.516-0.513-5.261-0.77-8.236-0.77c-1.95,0-3.901,0.207-5.85,0.615
		c-1.951,0.412-3.722,1.131-5.312,2.156c-1.592,1.026-2.9,2.309-3.926,3.848c-1.027,1.54-1.539,3.491-1.539,5.851
		c0,2.155,0.409,3.901,1.231,5.234c0.82,1.334,2.437,2.566,4.85,3.694c2.41,1.131,5.746,2.259,10.006,3.387
		c4.258,1.131,9.827,2.566,16.704,4.311c2.052,0.411,4.899,1.155,8.545,2.232c3.641,1.078,7.259,2.798,10.853,5.157
		c3.591,2.362,6.696,5.519,9.314,9.469c2.616,3.951,3.925,9.005,3.925,15.163c0,5.029-0.977,9.699-2.925,14.01
		c-1.951,4.31-4.85,8.032-8.698,11.161c-3.849,3.132-8.62,5.568-14.317,7.313c-5.696,1.744-12.292,2.617-19.781,2.617
		c-6.058,0-11.932-0.746-17.629-2.232c-5.694-1.486-10.726-3.822-15.086-7.005c-4.363-3.18-7.828-7.235-10.392-12.161
		c-2.567-4.928-3.799-10.776-3.694-17.551h23.399C201.517,79.745,202.184,82.878,203.519,85.442z"/>
	
		<rect x="284.956" y="2.618" fill="none" stroke="#FFFFFF" stroke-width="1.357" stroke-miterlimit="10" width="24.17" height="109.918"/>
	<path fill="none" stroke="#FFFFFF" stroke-width="1.357" stroke-miterlimit="10" d="M329.292,35.178
		c2.464-7.028,6.004-13.163,10.622-18.396c4.618-5.234,10.289-9.338,17.012-12.316C363.647,1.489,371.217,0,379.633,0
		c8.518,0,16.112,1.489,22.785,4.465c6.67,2.979,12.315,7.082,16.934,12.316c4.618,5.233,8.159,11.368,10.622,18.396
		c2.464,7.031,3.694,14.651,3.694,22.861c0,8.005-1.23,15.472-3.694,22.399c-2.463,6.928-6.004,12.958-10.622,18.089
		c-4.618,5.133-10.264,9.16-16.934,12.085c-6.673,2.925-14.268,4.388-22.785,4.388c-8.416,0-15.986-1.463-22.707-4.388
		c-6.723-2.925-12.394-6.952-17.012-12.085c-4.618-5.131-8.158-11.161-10.622-18.089s-3.694-14.395-3.694-22.399
		C325.598,49.829,326.829,42.209,329.292,35.178z M351.383,71.51c1.078,4.363,2.796,8.289,5.157,11.776
		c2.36,3.49,5.44,6.288,9.237,8.391c3.796,2.104,8.414,3.155,13.855,3.155c5.439,0,10.058-1.051,13.855-3.155
		c3.796-2.103,6.875-4.9,9.236-8.391c2.36-3.487,4.08-7.413,5.157-11.776c1.079-4.361,1.617-8.853,1.617-13.471
		c0-4.823-0.538-9.491-1.617-14.009c-1.077-4.517-2.797-8.545-5.157-12.086c-2.361-3.541-5.44-6.362-9.236-8.467
		c-3.798-2.103-8.416-3.156-13.855-3.156c-5.441,0-10.06,1.054-13.855,3.156c-3.797,2.104-6.877,4.926-9.237,8.467
		c-2.361,3.541-4.079,7.569-5.157,12.086c-1.077,4.518-1.615,9.186-1.615,14.009C349.768,62.657,350.306,67.148,351.383,71.51z"/>
	<polygon fill="none" stroke="#FFFFFF" stroke-width="1.357" stroke-miterlimit="10" points="474.158,2.618 520.034,76.358 
		520.342,76.358 520.342,2.618 542.972,2.618 542.972,112.536 518.802,112.536 473.081,38.95 472.772,38.95 472.772,112.536 
		450.141,112.536 450.141,2.618 	"/>
</g>
</svg>
